G75*
G70*
%OFA0B0*%
%FSLAX24Y24*%
%IPPOS*%
%LPD*%
%AMOC8*
5,1,8,0,0,1.08239X$1,22.5*
%
%ADD10C,0.0080*%
%ADD11C,0.0060*%
%ADD12C,0.0040*%
%ADD13C,0.0010*%
%ADD14C,0.0050*%
D10*
X010100Y011500D02*
X010100Y015500D01*
X010350Y015500D01*
X010350Y011500D01*
X010100Y011500D01*
X010350Y011500D02*
X011850Y011500D01*
X011850Y015500D01*
X010350Y015500D01*
X013350Y017500D02*
X014850Y017500D01*
X016350Y017500D02*
X017850Y017500D01*
X019336Y016083D02*
X021826Y018573D01*
X026374Y018573D01*
X028864Y016083D01*
X028864Y005687D01*
X019336Y005687D01*
X019336Y016083D01*
X017572Y015740D02*
X017572Y013260D01*
X016628Y013260D01*
X016628Y015740D01*
X017572Y015740D01*
X014572Y015740D02*
X014572Y013260D01*
X013628Y013260D01*
X013628Y015740D01*
X014572Y015740D01*
X014350Y010000D02*
X014100Y009750D01*
X014100Y009250D01*
X014350Y009000D01*
X014850Y009000D01*
X015100Y009250D01*
X015350Y009000D01*
X015850Y009000D01*
X016100Y009250D01*
X016350Y009000D01*
X016850Y009000D01*
X017100Y009250D01*
X017350Y009000D01*
X017850Y009000D01*
X018100Y009250D01*
X018100Y009750D01*
X017850Y010000D01*
X017350Y010000D01*
X017100Y009750D01*
X016850Y010000D01*
X016350Y010000D01*
X016100Y009750D01*
X015850Y010000D01*
X015350Y010000D01*
X015100Y009750D01*
X014850Y010000D01*
X014350Y010000D01*
D11*
X020800Y011541D02*
X027028Y011541D01*
X027028Y013629D02*
X020800Y013629D01*
X016100Y018500D02*
X016102Y018563D01*
X016108Y018625D01*
X016118Y018687D01*
X016131Y018749D01*
X016149Y018809D01*
X016170Y018868D01*
X016195Y018926D01*
X016224Y018982D01*
X016256Y019036D01*
X016291Y019088D01*
X016329Y019137D01*
X016371Y019185D01*
X016415Y019229D01*
X016463Y019271D01*
X016512Y019309D01*
X016564Y019344D01*
X016618Y019376D01*
X016674Y019405D01*
X016732Y019430D01*
X016791Y019451D01*
X016851Y019469D01*
X016913Y019482D01*
X016975Y019492D01*
X017037Y019498D01*
X017100Y019500D01*
X017163Y019498D01*
X017225Y019492D01*
X017287Y019482D01*
X017349Y019469D01*
X017409Y019451D01*
X017468Y019430D01*
X017526Y019405D01*
X017582Y019376D01*
X017636Y019344D01*
X017688Y019309D01*
X017737Y019271D01*
X017785Y019229D01*
X017829Y019185D01*
X017871Y019137D01*
X017909Y019088D01*
X017944Y019036D01*
X017976Y018982D01*
X018005Y018926D01*
X018030Y018868D01*
X018051Y018809D01*
X018069Y018749D01*
X018082Y018687D01*
X018092Y018625D01*
X018098Y018563D01*
X018100Y018500D01*
X018098Y018437D01*
X018092Y018375D01*
X018082Y018313D01*
X018069Y018251D01*
X018051Y018191D01*
X018030Y018132D01*
X018005Y018074D01*
X017976Y018018D01*
X017944Y017964D01*
X017909Y017912D01*
X017871Y017863D01*
X017829Y017815D01*
X017785Y017771D01*
X017737Y017729D01*
X017688Y017691D01*
X017636Y017656D01*
X017582Y017624D01*
X017526Y017595D01*
X017468Y017570D01*
X017409Y017549D01*
X017349Y017531D01*
X017287Y017518D01*
X017225Y017508D01*
X017163Y017502D01*
X017100Y017500D01*
X017037Y017502D01*
X016975Y017508D01*
X016913Y017518D01*
X016851Y017531D01*
X016791Y017549D01*
X016732Y017570D01*
X016674Y017595D01*
X016618Y017624D01*
X016564Y017656D01*
X016512Y017691D01*
X016463Y017729D01*
X016415Y017771D01*
X016371Y017815D01*
X016329Y017863D01*
X016291Y017912D01*
X016256Y017964D01*
X016224Y018018D01*
X016195Y018074D01*
X016170Y018132D01*
X016149Y018191D01*
X016131Y018251D01*
X016118Y018313D01*
X016108Y018375D01*
X016102Y018437D01*
X016100Y018500D01*
X013100Y018500D02*
X013102Y018563D01*
X013108Y018625D01*
X013118Y018687D01*
X013131Y018749D01*
X013149Y018809D01*
X013170Y018868D01*
X013195Y018926D01*
X013224Y018982D01*
X013256Y019036D01*
X013291Y019088D01*
X013329Y019137D01*
X013371Y019185D01*
X013415Y019229D01*
X013463Y019271D01*
X013512Y019309D01*
X013564Y019344D01*
X013618Y019376D01*
X013674Y019405D01*
X013732Y019430D01*
X013791Y019451D01*
X013851Y019469D01*
X013913Y019482D01*
X013975Y019492D01*
X014037Y019498D01*
X014100Y019500D01*
X014163Y019498D01*
X014225Y019492D01*
X014287Y019482D01*
X014349Y019469D01*
X014409Y019451D01*
X014468Y019430D01*
X014526Y019405D01*
X014582Y019376D01*
X014636Y019344D01*
X014688Y019309D01*
X014737Y019271D01*
X014785Y019229D01*
X014829Y019185D01*
X014871Y019137D01*
X014909Y019088D01*
X014944Y019036D01*
X014976Y018982D01*
X015005Y018926D01*
X015030Y018868D01*
X015051Y018809D01*
X015069Y018749D01*
X015082Y018687D01*
X015092Y018625D01*
X015098Y018563D01*
X015100Y018500D01*
X015098Y018437D01*
X015092Y018375D01*
X015082Y018313D01*
X015069Y018251D01*
X015051Y018191D01*
X015030Y018132D01*
X015005Y018074D01*
X014976Y018018D01*
X014944Y017964D01*
X014909Y017912D01*
X014871Y017863D01*
X014829Y017815D01*
X014785Y017771D01*
X014737Y017729D01*
X014688Y017691D01*
X014636Y017656D01*
X014582Y017624D01*
X014526Y017595D01*
X014468Y017570D01*
X014409Y017549D01*
X014349Y017531D01*
X014287Y017518D01*
X014225Y017508D01*
X014163Y017502D01*
X014100Y017500D01*
X014037Y017502D01*
X013975Y017508D01*
X013913Y017518D01*
X013851Y017531D01*
X013791Y017549D01*
X013732Y017570D01*
X013674Y017595D01*
X013618Y017624D01*
X013564Y017656D01*
X013512Y017691D01*
X013463Y017729D01*
X013415Y017771D01*
X013371Y017815D01*
X013329Y017863D01*
X013291Y017912D01*
X013256Y017964D01*
X013224Y018018D01*
X013195Y018074D01*
X013170Y018132D01*
X013149Y018191D01*
X013131Y018251D01*
X013118Y018313D01*
X013108Y018375D01*
X013102Y018437D01*
X013100Y018500D01*
D12*
X020783Y011837D02*
X020920Y011935D01*
X021556Y012533D01*
X021244Y013295D01*
X021183Y013355D01*
X021786Y013355D01*
X021786Y013322D01*
X021770Y013289D01*
X021786Y013262D01*
X021786Y013235D01*
X021924Y012889D01*
X022313Y013273D01*
X022335Y013300D01*
X022351Y013333D01*
X022357Y013355D01*
X022702Y013355D01*
X022631Y013306D01*
X022576Y013268D01*
X022499Y013202D01*
X021984Y012719D01*
X022291Y011963D01*
X022379Y011842D01*
X022395Y011842D01*
X022428Y011875D01*
X022472Y012007D01*
X022538Y012253D01*
X022614Y012566D01*
X022757Y013147D01*
X022779Y013246D01*
X022779Y013355D01*
X024023Y013355D01*
X024089Y013339D01*
X024133Y013311D01*
X024166Y013251D01*
X024188Y013196D01*
X024188Y013103D01*
X024171Y013059D01*
X024105Y012785D01*
X024084Y012730D01*
X024001Y012648D01*
X023936Y012621D01*
X023848Y012599D01*
X023738Y012599D01*
X023897Y012577D01*
X024012Y012522D01*
X024018Y012511D01*
X024018Y012363D01*
X023957Y012122D01*
X023919Y012061D01*
X023908Y011996D01*
X023826Y011902D01*
X023760Y011870D01*
X023656Y011837D01*
X021754Y011837D01*
X021786Y011897D01*
X021786Y011935D01*
X021611Y012368D01*
X021156Y011924D01*
X021107Y011837D01*
X020783Y011837D01*
X022916Y012023D02*
X023042Y012505D01*
X023541Y012505D01*
X023585Y012489D01*
X023612Y012451D01*
X023612Y012434D01*
X023530Y012111D01*
X023508Y012078D01*
X023469Y012034D01*
X023448Y012023D01*
X022916Y012023D01*
X023080Y012703D02*
X023195Y013169D01*
X023700Y013169D01*
X023749Y013141D01*
X023755Y013054D01*
X023678Y012763D01*
X023661Y012725D01*
X023629Y012703D01*
X023080Y012703D01*
X024138Y012122D02*
X024127Y012034D01*
X024127Y011979D01*
X024144Y011919D01*
X024171Y011880D01*
X024215Y011848D01*
X024259Y011837D01*
X025344Y011837D01*
X025421Y012023D01*
X025350Y012012D01*
X024560Y012012D01*
X024539Y012029D01*
X024533Y012067D01*
X024544Y012100D01*
X024588Y012286D01*
X025487Y012286D01*
X025580Y012664D01*
X025580Y012856D01*
X025558Y012878D01*
X025487Y012933D01*
X025427Y012955D01*
X024566Y012955D01*
X024533Y012950D01*
X024467Y012928D01*
X024380Y012873D01*
X024330Y012801D01*
X024264Y012670D01*
X024248Y012610D01*
X024138Y012122D01*
X024637Y012462D02*
X024643Y012456D01*
X025114Y012456D01*
X025174Y012692D01*
X025174Y012763D01*
X025158Y012780D01*
X025136Y012785D01*
X024747Y012785D01*
X024714Y012769D01*
X024692Y012730D01*
X024676Y012686D01*
X024637Y012462D01*
X025597Y012122D02*
X025586Y012034D01*
X025586Y011979D01*
X025602Y011919D01*
X025629Y011880D01*
X025673Y011848D01*
X025717Y011837D01*
X026803Y011837D01*
X026879Y012023D01*
X026808Y012012D01*
X026019Y012012D01*
X025997Y012029D01*
X025991Y012067D01*
X026002Y012100D01*
X026046Y012286D01*
X026945Y012286D01*
X027038Y012664D01*
X027038Y012856D01*
X027017Y012878D01*
X026945Y012933D01*
X026885Y012955D01*
X026024Y012955D01*
X025991Y012950D01*
X025926Y012928D01*
X025838Y012873D01*
X025789Y012801D01*
X025723Y012670D01*
X025706Y012610D01*
X025597Y012122D01*
X026096Y012462D02*
X026101Y012456D01*
X026572Y012456D01*
X026633Y012692D01*
X026633Y012763D01*
X026616Y012780D01*
X026594Y012785D01*
X026205Y012785D01*
X026172Y012769D01*
X026150Y012730D01*
X026134Y012686D01*
X026096Y012462D01*
X026457Y011245D02*
X026342Y011184D01*
X026134Y011009D01*
X025986Y010861D01*
X025969Y010817D01*
X025942Y010685D01*
X025937Y010576D01*
X025991Y010472D01*
X026085Y010411D01*
X026211Y010411D01*
X026370Y010433D01*
X026474Y010499D01*
X026616Y010532D01*
X026693Y010609D01*
X026797Y010691D01*
X026858Y010800D01*
X026869Y010872D01*
X026841Y010976D01*
X026748Y011053D01*
X026638Y011129D01*
X026561Y011151D01*
X026556Y011179D01*
X026518Y011223D01*
X026463Y011245D01*
X026403Y011058D02*
X026342Y011014D01*
X026200Y010905D01*
X026106Y010779D01*
X026057Y010620D01*
X026052Y010565D01*
X026101Y010537D01*
X026233Y010543D01*
X026364Y010592D01*
X026501Y010636D01*
X026616Y010702D01*
X026726Y010779D01*
X026726Y010910D01*
X026605Y011036D01*
X026540Y011058D01*
X026403Y011058D01*
X025816Y011102D02*
X025789Y011053D01*
X025789Y011009D01*
X025745Y010965D01*
X025684Y010927D01*
X025564Y010872D01*
X025449Y010800D01*
X025394Y010768D01*
X025476Y010685D01*
X025580Y010614D01*
X025657Y010554D01*
X025701Y010499D01*
X025723Y010444D01*
X025728Y010411D01*
X025712Y010378D01*
X025695Y010373D01*
X025651Y010406D01*
X025438Y010576D01*
X025235Y010713D01*
X025196Y010713D01*
X025185Y010674D01*
X025147Y010565D01*
X025114Y010466D01*
X025092Y010411D01*
X025092Y010378D01*
X025032Y010433D01*
X025026Y010515D01*
X025037Y010570D01*
X025087Y010746D01*
X025114Y010844D01*
X025174Y010981D01*
X025213Y011053D01*
X025229Y011091D01*
X025191Y011097D01*
X025147Y011064D01*
X025147Y011069D01*
X025131Y011091D01*
X025103Y011107D01*
X025092Y011129D01*
X025098Y011162D01*
X025131Y011195D01*
X025191Y011217D01*
X025262Y011245D01*
X025580Y011245D01*
X025646Y011228D01*
X025723Y011201D01*
X025767Y011173D01*
X025805Y011129D01*
X025816Y011102D01*
X025662Y011069D02*
X025624Y011058D01*
X025569Y011003D01*
X025492Y010959D01*
X025421Y010921D01*
X025339Y010905D01*
X025273Y010872D01*
X025377Y011058D01*
X025383Y011113D01*
X025580Y011113D01*
X025646Y011102D01*
X025662Y011069D01*
X024895Y011075D02*
X024895Y011053D01*
X024873Y011003D01*
X024840Y010965D01*
X024774Y010921D01*
X024533Y010800D01*
X024407Y010751D01*
X024308Y010729D01*
X024275Y010724D01*
X024237Y010724D01*
X024221Y010674D01*
X024188Y010576D01*
X024160Y010488D01*
X024138Y010450D01*
X024127Y010428D01*
X024105Y010417D01*
X024078Y010433D01*
X024056Y010466D01*
X024056Y010504D01*
X024067Y010548D01*
X024116Y010652D01*
X024149Y010729D01*
X024160Y010800D01*
X024177Y010866D01*
X024204Y010954D01*
X024232Y011020D01*
X024259Y011064D01*
X024215Y011064D01*
X024215Y011157D01*
X024264Y011157D01*
X024308Y011190D01*
X024352Y011234D01*
X024401Y011206D01*
X024599Y011206D01*
X024758Y011190D01*
X024867Y011124D01*
X024895Y011075D01*
X024769Y011058D02*
X024763Y011042D01*
X024736Y011020D01*
X024648Y010976D01*
X024577Y010927D01*
X024478Y010899D01*
X024407Y010872D01*
X024363Y010866D01*
X024297Y010866D01*
X024396Y011069D01*
X024407Y011097D01*
X024687Y011097D01*
X024752Y011069D01*
X024769Y011058D01*
D13*
X017880Y017468D02*
X017826Y017540D01*
X017827Y017539D02*
X017880Y017582D01*
X017931Y017627D01*
X017979Y017676D01*
X018024Y017727D01*
X018067Y017781D01*
X018106Y017837D01*
X018142Y017895D01*
X018175Y017955D01*
X018204Y018016D01*
X018229Y018080D01*
X018251Y018144D01*
X018270Y018210D01*
X018284Y018277D01*
X018295Y018344D01*
X018302Y018412D01*
X018305Y018480D01*
X018304Y018549D01*
X018299Y018617D01*
X018291Y018685D01*
X018278Y018752D01*
X018262Y018818D01*
X018242Y018883D01*
X018219Y018948D01*
X018192Y019010D01*
X018161Y019071D01*
X018127Y019130D01*
X018090Y019188D01*
X018049Y019243D01*
X018005Y019295D01*
X017959Y019345D01*
X017910Y019392D01*
X017858Y019437D01*
X017804Y019478D01*
X017747Y019517D01*
X017688Y019552D01*
X017628Y019583D01*
X017566Y019611D01*
X017502Y019636D01*
X017437Y019657D01*
X017371Y019674D01*
X017304Y019688D01*
X017236Y019697D01*
X017168Y019703D01*
X017100Y019705D01*
X017032Y019703D01*
X016964Y019697D01*
X016896Y019688D01*
X016829Y019674D01*
X016763Y019657D01*
X016698Y019636D01*
X016634Y019611D01*
X016572Y019583D01*
X016512Y019552D01*
X016453Y019517D01*
X016396Y019478D01*
X016342Y019437D01*
X016290Y019392D01*
X016241Y019345D01*
X016195Y019295D01*
X016151Y019243D01*
X016110Y019188D01*
X016073Y019130D01*
X016039Y019071D01*
X016008Y019010D01*
X015981Y018948D01*
X015958Y018883D01*
X015938Y018818D01*
X015922Y018752D01*
X015909Y018685D01*
X015901Y018617D01*
X015896Y018549D01*
X015895Y018480D01*
X015898Y018412D01*
X015905Y018344D01*
X015916Y018277D01*
X015930Y018210D01*
X015949Y018144D01*
X015971Y018080D01*
X015996Y018016D01*
X016025Y017955D01*
X016058Y017895D01*
X016094Y017837D01*
X016133Y017781D01*
X016176Y017727D01*
X016221Y017676D01*
X016269Y017627D01*
X016320Y017582D01*
X016373Y017539D01*
X016320Y017468D01*
X016319Y017467D01*
X016264Y017511D01*
X016211Y017559D01*
X016160Y017609D01*
X016113Y017662D01*
X016069Y017717D01*
X016027Y017775D01*
X015989Y017835D01*
X015954Y017896D01*
X015923Y017960D01*
X015895Y018025D01*
X015871Y018092D01*
X015850Y018160D01*
X015834Y018229D01*
X015821Y018299D01*
X015812Y018369D01*
X015806Y018440D01*
X015805Y018511D01*
X015808Y018582D01*
X015814Y018653D01*
X015824Y018723D01*
X015838Y018792D01*
X015856Y018861D01*
X015878Y018929D01*
X015903Y018995D01*
X015932Y019060D01*
X015965Y019123D01*
X016001Y019184D01*
X016040Y019243D01*
X016082Y019300D01*
X016127Y019355D01*
X016176Y019407D01*
X016227Y019456D01*
X016280Y019503D01*
X016337Y019546D01*
X016395Y019586D01*
X016456Y019623D01*
X016518Y019657D01*
X016582Y019687D01*
X016648Y019714D01*
X016715Y019737D01*
X016784Y019756D01*
X016853Y019771D01*
X016923Y019783D01*
X016994Y019791D01*
X017065Y019795D01*
X017135Y019795D01*
X017206Y019791D01*
X017277Y019783D01*
X017347Y019771D01*
X017416Y019756D01*
X017485Y019737D01*
X017552Y019714D01*
X017618Y019687D01*
X017682Y019657D01*
X017744Y019623D01*
X017805Y019586D01*
X017863Y019546D01*
X017920Y019503D01*
X017973Y019456D01*
X018024Y019407D01*
X018073Y019355D01*
X018118Y019300D01*
X018160Y019243D01*
X018199Y019184D01*
X018235Y019123D01*
X018268Y019060D01*
X018297Y018995D01*
X018322Y018929D01*
X018344Y018861D01*
X018362Y018792D01*
X018376Y018723D01*
X018386Y018653D01*
X018392Y018582D01*
X018395Y018511D01*
X018394Y018440D01*
X018388Y018369D01*
X018379Y018299D01*
X018366Y018229D01*
X018350Y018160D01*
X018329Y018092D01*
X018305Y018025D01*
X018277Y017960D01*
X018246Y017896D01*
X018211Y017835D01*
X018173Y017775D01*
X018131Y017717D01*
X018087Y017662D01*
X018040Y017609D01*
X017989Y017559D01*
X017936Y017511D01*
X017881Y017467D01*
X017876Y017474D01*
X017931Y017519D01*
X017984Y017566D01*
X018035Y017617D01*
X018082Y017670D01*
X018127Y017726D01*
X018168Y017784D01*
X018206Y017844D01*
X018241Y017906D01*
X018272Y017970D01*
X018299Y018036D01*
X018323Y018103D01*
X018343Y018172D01*
X018360Y018241D01*
X018372Y018311D01*
X018381Y018382D01*
X018385Y018453D01*
X018386Y018524D01*
X018382Y018595D01*
X018375Y018666D01*
X018364Y018737D01*
X018349Y018806D01*
X018330Y018875D01*
X018307Y018943D01*
X018281Y019009D01*
X018251Y019074D01*
X018217Y019136D01*
X018181Y019197D01*
X018140Y019256D01*
X018097Y019313D01*
X018050Y019367D01*
X018001Y019418D01*
X017948Y019466D01*
X017894Y019512D01*
X017836Y019554D01*
X017777Y019593D01*
X017715Y019629D01*
X017652Y019662D01*
X017587Y019690D01*
X017520Y019716D01*
X017452Y019737D01*
X017383Y019755D01*
X017313Y019768D01*
X017242Y019778D01*
X017171Y019784D01*
X017100Y019786D01*
X017029Y019784D01*
X016958Y019778D01*
X016887Y019768D01*
X016817Y019755D01*
X016748Y019737D01*
X016680Y019716D01*
X016613Y019690D01*
X016548Y019662D01*
X016485Y019629D01*
X016423Y019593D01*
X016364Y019554D01*
X016306Y019512D01*
X016252Y019466D01*
X016199Y019418D01*
X016150Y019367D01*
X016103Y019313D01*
X016060Y019256D01*
X016019Y019197D01*
X015983Y019136D01*
X015949Y019074D01*
X015919Y019009D01*
X015893Y018943D01*
X015870Y018875D01*
X015851Y018806D01*
X015836Y018737D01*
X015825Y018666D01*
X015818Y018595D01*
X015814Y018524D01*
X015815Y018453D01*
X015819Y018382D01*
X015828Y018311D01*
X015840Y018241D01*
X015857Y018172D01*
X015877Y018103D01*
X015901Y018036D01*
X015928Y017970D01*
X015959Y017906D01*
X015994Y017844D01*
X016032Y017784D01*
X016073Y017726D01*
X016118Y017670D01*
X016165Y017617D01*
X016216Y017566D01*
X016269Y017519D01*
X016324Y017474D01*
X016330Y017481D01*
X016275Y017526D01*
X016222Y017573D01*
X016172Y017623D01*
X016125Y017676D01*
X016081Y017731D01*
X016039Y017789D01*
X016002Y017848D01*
X015967Y017910D01*
X015936Y017974D01*
X015909Y018039D01*
X015885Y018106D01*
X015865Y018174D01*
X015849Y018243D01*
X015837Y018312D01*
X015828Y018383D01*
X015824Y018453D01*
X015823Y018524D01*
X015827Y018595D01*
X015834Y018665D01*
X015845Y018735D01*
X015860Y018804D01*
X015879Y018872D01*
X015901Y018940D01*
X015927Y019005D01*
X015957Y019070D01*
X015990Y019132D01*
X016027Y019192D01*
X016067Y019251D01*
X016110Y019307D01*
X016156Y019361D01*
X016206Y019411D01*
X016257Y019460D01*
X016312Y019505D01*
X016369Y019547D01*
X016428Y019586D01*
X016489Y019621D01*
X016552Y019654D01*
X016617Y019682D01*
X016683Y019707D01*
X016751Y019728D01*
X016819Y019746D01*
X016889Y019759D01*
X016959Y019769D01*
X017029Y019775D01*
X017100Y019777D01*
X017171Y019775D01*
X017241Y019769D01*
X017311Y019759D01*
X017381Y019746D01*
X017449Y019728D01*
X017517Y019707D01*
X017583Y019682D01*
X017648Y019654D01*
X017711Y019621D01*
X017772Y019586D01*
X017831Y019547D01*
X017888Y019505D01*
X017943Y019460D01*
X017994Y019411D01*
X018044Y019361D01*
X018090Y019307D01*
X018133Y019251D01*
X018173Y019192D01*
X018210Y019132D01*
X018243Y019070D01*
X018273Y019005D01*
X018299Y018940D01*
X018321Y018872D01*
X018340Y018804D01*
X018355Y018735D01*
X018366Y018665D01*
X018373Y018595D01*
X018377Y018524D01*
X018376Y018453D01*
X018372Y018383D01*
X018363Y018312D01*
X018351Y018243D01*
X018335Y018174D01*
X018315Y018106D01*
X018291Y018039D01*
X018264Y017974D01*
X018233Y017910D01*
X018198Y017848D01*
X018161Y017789D01*
X018119Y017731D01*
X018075Y017676D01*
X018028Y017623D01*
X017978Y017573D01*
X017925Y017526D01*
X017870Y017481D01*
X017865Y017489D01*
X017920Y017533D01*
X017973Y017581D01*
X018023Y017631D01*
X018071Y017684D01*
X018115Y017740D01*
X018156Y017798D01*
X018193Y017858D01*
X018228Y017920D01*
X018258Y017984D01*
X018285Y018050D01*
X018309Y018117D01*
X018328Y018185D01*
X018344Y018255D01*
X018356Y018325D01*
X018364Y018395D01*
X018368Y018466D01*
X018367Y018537D01*
X018363Y018608D01*
X018355Y018679D01*
X018343Y018749D01*
X018327Y018818D01*
X018308Y018886D01*
X018284Y018954D01*
X018257Y019019D01*
X018226Y019083D01*
X018192Y019145D01*
X018154Y019205D01*
X018112Y019263D01*
X018068Y019319D01*
X018021Y019372D01*
X017970Y019422D01*
X017917Y019469D01*
X017862Y019514D01*
X017804Y019555D01*
X017744Y019592D01*
X017681Y019627D01*
X017617Y019658D01*
X017552Y019685D01*
X017485Y019708D01*
X017416Y019728D01*
X017347Y019744D01*
X017277Y019756D01*
X017206Y019764D01*
X017136Y019768D01*
X017064Y019768D01*
X016994Y019764D01*
X016923Y019756D01*
X016853Y019744D01*
X016784Y019728D01*
X016715Y019708D01*
X016648Y019685D01*
X016583Y019658D01*
X016519Y019627D01*
X016456Y019592D01*
X016396Y019555D01*
X016338Y019514D01*
X016283Y019469D01*
X016230Y019422D01*
X016179Y019372D01*
X016132Y019319D01*
X016088Y019263D01*
X016046Y019205D01*
X016008Y019145D01*
X015974Y019083D01*
X015943Y019019D01*
X015916Y018954D01*
X015892Y018886D01*
X015873Y018818D01*
X015857Y018749D01*
X015845Y018679D01*
X015837Y018608D01*
X015833Y018537D01*
X015832Y018466D01*
X015836Y018395D01*
X015844Y018325D01*
X015856Y018255D01*
X015872Y018185D01*
X015891Y018117D01*
X015915Y018050D01*
X015942Y017984D01*
X015972Y017920D01*
X016007Y017858D01*
X016044Y017798D01*
X016085Y017740D01*
X016129Y017684D01*
X016177Y017631D01*
X016227Y017581D01*
X016280Y017533D01*
X016335Y017489D01*
X016341Y017496D01*
X016286Y017540D01*
X016233Y017587D01*
X016183Y017637D01*
X016136Y017690D01*
X016092Y017745D01*
X016052Y017803D01*
X016014Y017862D01*
X015980Y017924D01*
X015950Y017988D01*
X015923Y018053D01*
X015900Y018120D01*
X015880Y018188D01*
X015865Y018256D01*
X015853Y018326D01*
X015845Y018396D01*
X015841Y018467D01*
X015842Y018537D01*
X015846Y018608D01*
X015854Y018678D01*
X015866Y018747D01*
X015881Y018816D01*
X015901Y018884D01*
X015924Y018950D01*
X015951Y019015D01*
X015982Y019079D01*
X016016Y019141D01*
X016054Y019200D01*
X016095Y019258D01*
X016139Y019313D01*
X016186Y019366D01*
X016236Y019415D01*
X016288Y019462D01*
X016344Y019506D01*
X016401Y019547D01*
X016461Y019585D01*
X016523Y019619D01*
X016586Y019649D01*
X016651Y019676D01*
X016718Y019700D01*
X016786Y019719D01*
X016855Y019735D01*
X016924Y019747D01*
X016994Y019755D01*
X017065Y019759D01*
X017135Y019759D01*
X017206Y019755D01*
X017276Y019747D01*
X017345Y019735D01*
X017414Y019719D01*
X017482Y019700D01*
X017549Y019676D01*
X017614Y019649D01*
X017677Y019619D01*
X017739Y019585D01*
X017799Y019547D01*
X017856Y019506D01*
X017912Y019462D01*
X017964Y019415D01*
X018014Y019366D01*
X018061Y019313D01*
X018105Y019258D01*
X018146Y019200D01*
X018184Y019141D01*
X018218Y019079D01*
X018249Y019015D01*
X018276Y018950D01*
X018299Y018884D01*
X018319Y018816D01*
X018334Y018747D01*
X018346Y018678D01*
X018354Y018608D01*
X018358Y018537D01*
X018359Y018467D01*
X018355Y018396D01*
X018347Y018326D01*
X018335Y018256D01*
X018320Y018188D01*
X018300Y018120D01*
X018277Y018053D01*
X018250Y017988D01*
X018220Y017924D01*
X018186Y017862D01*
X018148Y017803D01*
X018108Y017745D01*
X018064Y017690D01*
X018017Y017637D01*
X017967Y017587D01*
X017914Y017540D01*
X017859Y017496D01*
X017854Y017503D01*
X017909Y017547D01*
X017961Y017594D01*
X018010Y017643D01*
X018057Y017696D01*
X018100Y017750D01*
X018141Y017808D01*
X018178Y017867D01*
X018212Y017928D01*
X018242Y017992D01*
X018269Y018056D01*
X018292Y018123D01*
X018311Y018190D01*
X018326Y018258D01*
X018338Y018327D01*
X018346Y018397D01*
X018350Y018467D01*
X018349Y018537D01*
X018345Y018607D01*
X018337Y018676D01*
X018326Y018745D01*
X018310Y018814D01*
X018291Y018881D01*
X018267Y018947D01*
X018240Y019012D01*
X018210Y019075D01*
X018176Y019136D01*
X018139Y019195D01*
X018098Y019253D01*
X018054Y019307D01*
X018008Y019359D01*
X017958Y019409D01*
X017906Y019456D01*
X017851Y019499D01*
X017794Y019540D01*
X017735Y019577D01*
X017673Y019611D01*
X017610Y019641D01*
X017545Y019668D01*
X017479Y019691D01*
X017412Y019710D01*
X017344Y019726D01*
X017275Y019738D01*
X017205Y019746D01*
X017135Y019750D01*
X017065Y019750D01*
X016995Y019746D01*
X016925Y019738D01*
X016856Y019726D01*
X016788Y019710D01*
X016721Y019691D01*
X016655Y019668D01*
X016590Y019641D01*
X016527Y019611D01*
X016465Y019577D01*
X016406Y019540D01*
X016349Y019499D01*
X016294Y019456D01*
X016242Y019409D01*
X016192Y019359D01*
X016146Y019307D01*
X016102Y019253D01*
X016061Y019195D01*
X016024Y019136D01*
X015990Y019075D01*
X015960Y019012D01*
X015933Y018947D01*
X015909Y018881D01*
X015890Y018814D01*
X015874Y018745D01*
X015863Y018676D01*
X015855Y018607D01*
X015851Y018537D01*
X015850Y018467D01*
X015854Y018397D01*
X015862Y018327D01*
X015874Y018258D01*
X015889Y018190D01*
X015908Y018123D01*
X015931Y018056D01*
X015958Y017992D01*
X015988Y017928D01*
X016022Y017867D01*
X016059Y017808D01*
X016100Y017750D01*
X016143Y017696D01*
X016190Y017643D01*
X016239Y017594D01*
X016291Y017547D01*
X016346Y017503D01*
X016351Y017510D01*
X016297Y017554D01*
X016245Y017600D01*
X016196Y017649D01*
X016150Y017701D01*
X016107Y017756D01*
X016067Y017813D01*
X016030Y017872D01*
X015996Y017933D01*
X015966Y017995D01*
X015940Y018060D01*
X015917Y018125D01*
X015898Y018192D01*
X015882Y018260D01*
X015871Y018329D01*
X015863Y018398D01*
X015859Y018467D01*
X015860Y018537D01*
X015864Y018606D01*
X015871Y018675D01*
X015883Y018744D01*
X015899Y018811D01*
X015918Y018878D01*
X015941Y018944D01*
X015968Y019008D01*
X015998Y019071D01*
X016032Y019132D01*
X016069Y019190D01*
X016109Y019247D01*
X016152Y019301D01*
X016199Y019353D01*
X016248Y019402D01*
X016300Y019449D01*
X016354Y019492D01*
X016411Y019532D01*
X016470Y019569D01*
X016531Y019603D01*
X016594Y019633D01*
X016658Y019660D01*
X016723Y019683D01*
X016790Y019702D01*
X016858Y019717D01*
X016927Y019729D01*
X016996Y019737D01*
X017065Y019741D01*
X017135Y019741D01*
X017204Y019737D01*
X017273Y019729D01*
X017342Y019717D01*
X017410Y019702D01*
X017477Y019683D01*
X017542Y019660D01*
X017606Y019633D01*
X017669Y019603D01*
X017730Y019569D01*
X017789Y019532D01*
X017846Y019492D01*
X017900Y019449D01*
X017952Y019402D01*
X018001Y019353D01*
X018048Y019301D01*
X018091Y019247D01*
X018131Y019190D01*
X018168Y019132D01*
X018202Y019071D01*
X018232Y019008D01*
X018259Y018944D01*
X018282Y018878D01*
X018301Y018811D01*
X018317Y018744D01*
X018329Y018675D01*
X018336Y018606D01*
X018340Y018537D01*
X018341Y018467D01*
X018337Y018398D01*
X018329Y018329D01*
X018318Y018260D01*
X018302Y018192D01*
X018283Y018125D01*
X018260Y018060D01*
X018234Y017995D01*
X018204Y017933D01*
X018170Y017872D01*
X018133Y017813D01*
X018093Y017756D01*
X018050Y017701D01*
X018004Y017649D01*
X017955Y017600D01*
X017903Y017554D01*
X017849Y017510D01*
X017843Y017517D01*
X017897Y017561D01*
X017948Y017607D01*
X017997Y017656D01*
X018043Y017707D01*
X018086Y017761D01*
X018126Y017818D01*
X018162Y017876D01*
X018196Y017937D01*
X018226Y017999D01*
X018252Y018063D01*
X018274Y018128D01*
X018293Y018194D01*
X018309Y018262D01*
X018320Y018330D01*
X018328Y018398D01*
X018332Y018467D01*
X018331Y018536D01*
X018327Y018605D01*
X018320Y018674D01*
X018308Y018742D01*
X018293Y018809D01*
X018273Y018876D01*
X018250Y018941D01*
X018224Y019004D01*
X018194Y019067D01*
X018161Y019127D01*
X018124Y019185D01*
X018084Y019242D01*
X018041Y019296D01*
X017995Y019347D01*
X017946Y019396D01*
X017894Y019442D01*
X017840Y019485D01*
X017784Y019525D01*
X017725Y019561D01*
X017665Y019595D01*
X017603Y019625D01*
X017539Y019651D01*
X017474Y019674D01*
X017407Y019693D01*
X017340Y019708D01*
X017272Y019720D01*
X017203Y019728D01*
X017135Y019732D01*
X017065Y019732D01*
X016997Y019728D01*
X016928Y019720D01*
X016860Y019708D01*
X016793Y019693D01*
X016726Y019674D01*
X016661Y019651D01*
X016597Y019625D01*
X016535Y019595D01*
X016475Y019561D01*
X016416Y019525D01*
X016360Y019485D01*
X016306Y019442D01*
X016254Y019396D01*
X016205Y019347D01*
X016159Y019296D01*
X016116Y019242D01*
X016076Y019185D01*
X016039Y019127D01*
X016006Y019067D01*
X015976Y019004D01*
X015950Y018941D01*
X015927Y018876D01*
X015907Y018809D01*
X015892Y018742D01*
X015880Y018674D01*
X015873Y018605D01*
X015869Y018536D01*
X015868Y018467D01*
X015872Y018398D01*
X015880Y018330D01*
X015891Y018262D01*
X015907Y018194D01*
X015926Y018128D01*
X015948Y018063D01*
X015974Y017999D01*
X016004Y017937D01*
X016038Y017876D01*
X016074Y017818D01*
X016114Y017761D01*
X016157Y017707D01*
X016203Y017656D01*
X016252Y017607D01*
X016303Y017561D01*
X016357Y017517D01*
X016362Y017525D01*
X016308Y017568D01*
X016257Y017614D01*
X016208Y017664D01*
X016162Y017715D01*
X016119Y017770D01*
X016079Y017827D01*
X016043Y017885D01*
X016009Y017946D01*
X015980Y018009D01*
X015954Y018073D01*
X015932Y018139D01*
X015913Y018206D01*
X015898Y018273D01*
X015887Y018342D01*
X015880Y018411D01*
X015877Y018480D01*
X015878Y018549D01*
X015883Y018619D01*
X015891Y018687D01*
X015904Y018755D01*
X015920Y018823D01*
X015941Y018889D01*
X015964Y018954D01*
X015992Y019018D01*
X016023Y019080D01*
X016058Y019140D01*
X016096Y019198D01*
X016137Y019254D01*
X016181Y019307D01*
X016228Y019358D01*
X016278Y019406D01*
X016331Y019451D01*
X016386Y019493D01*
X016443Y019532D01*
X016503Y019567D01*
X016564Y019599D01*
X016627Y019628D01*
X016692Y019653D01*
X016758Y019674D01*
X016825Y019692D01*
X016893Y019705D01*
X016962Y019715D01*
X017031Y019721D01*
X017100Y019723D01*
X017169Y019721D01*
X017238Y019715D01*
X017307Y019705D01*
X017375Y019692D01*
X017442Y019674D01*
X017508Y019653D01*
X017573Y019628D01*
X017636Y019599D01*
X017697Y019567D01*
X017757Y019532D01*
X017814Y019493D01*
X017869Y019451D01*
X017922Y019406D01*
X017972Y019358D01*
X018019Y019307D01*
X018063Y019254D01*
X018104Y019198D01*
X018142Y019140D01*
X018177Y019080D01*
X018208Y019018D01*
X018236Y018954D01*
X018259Y018889D01*
X018280Y018823D01*
X018296Y018755D01*
X018309Y018687D01*
X018317Y018619D01*
X018322Y018549D01*
X018323Y018480D01*
X018320Y018411D01*
X018313Y018342D01*
X018302Y018273D01*
X018287Y018206D01*
X018268Y018139D01*
X018246Y018073D01*
X018220Y018009D01*
X018191Y017946D01*
X018157Y017885D01*
X018121Y017827D01*
X018081Y017770D01*
X018038Y017715D01*
X017992Y017664D01*
X017943Y017614D01*
X017892Y017568D01*
X017838Y017525D01*
X017832Y017532D01*
X017886Y017575D01*
X017937Y017621D01*
X017986Y017670D01*
X018031Y017721D01*
X018074Y017775D01*
X018113Y017832D01*
X018150Y017890D01*
X018183Y017950D01*
X018212Y018013D01*
X018238Y018076D01*
X018260Y018142D01*
X018278Y018208D01*
X018293Y018275D01*
X018304Y018343D01*
X018311Y018412D01*
X018314Y018480D01*
X018313Y018549D01*
X018308Y018618D01*
X018300Y018686D01*
X018287Y018754D01*
X018271Y018820D01*
X018251Y018886D01*
X018227Y018951D01*
X018200Y019014D01*
X018169Y019075D01*
X018135Y019135D01*
X018097Y019193D01*
X018056Y019248D01*
X018012Y019301D01*
X017965Y019351D01*
X017916Y019399D01*
X017864Y019444D01*
X017809Y019486D01*
X017752Y019524D01*
X017693Y019559D01*
X017632Y019591D01*
X017569Y019620D01*
X017505Y019644D01*
X017439Y019666D01*
X017373Y019683D01*
X017305Y019696D01*
X017237Y019706D01*
X017169Y019712D01*
X017100Y019714D01*
X017031Y019712D01*
X016963Y019706D01*
X016895Y019696D01*
X016827Y019683D01*
X016761Y019666D01*
X016695Y019644D01*
X016631Y019620D01*
X016568Y019591D01*
X016507Y019559D01*
X016448Y019524D01*
X016391Y019486D01*
X016336Y019444D01*
X016284Y019399D01*
X016235Y019351D01*
X016188Y019301D01*
X016144Y019248D01*
X016103Y019193D01*
X016065Y019135D01*
X016031Y019075D01*
X016000Y019014D01*
X015973Y018951D01*
X015949Y018886D01*
X015929Y018820D01*
X015913Y018754D01*
X015900Y018686D01*
X015892Y018618D01*
X015887Y018549D01*
X015886Y018480D01*
X015889Y018412D01*
X015896Y018343D01*
X015907Y018275D01*
X015922Y018208D01*
X015940Y018142D01*
X015962Y018076D01*
X015988Y018013D01*
X016017Y017950D01*
X016050Y017890D01*
X016087Y017832D01*
X016126Y017775D01*
X016169Y017721D01*
X016214Y017670D01*
X016263Y017621D01*
X016314Y017575D01*
X016368Y017532D01*
X014880Y017468D02*
X014826Y017540D01*
X014827Y017539D02*
X014880Y017582D01*
X014931Y017627D01*
X014979Y017676D01*
X015024Y017727D01*
X015067Y017781D01*
X015106Y017837D01*
X015142Y017895D01*
X015175Y017955D01*
X015204Y018016D01*
X015229Y018080D01*
X015251Y018144D01*
X015270Y018210D01*
X015284Y018277D01*
X015295Y018344D01*
X015302Y018412D01*
X015305Y018480D01*
X015304Y018549D01*
X015299Y018617D01*
X015291Y018685D01*
X015278Y018752D01*
X015262Y018818D01*
X015242Y018883D01*
X015219Y018948D01*
X015192Y019010D01*
X015161Y019071D01*
X015127Y019130D01*
X015090Y019188D01*
X015049Y019243D01*
X015005Y019295D01*
X014959Y019345D01*
X014910Y019392D01*
X014858Y019437D01*
X014804Y019478D01*
X014747Y019517D01*
X014688Y019552D01*
X014628Y019583D01*
X014566Y019611D01*
X014502Y019636D01*
X014437Y019657D01*
X014371Y019674D01*
X014304Y019688D01*
X014236Y019697D01*
X014168Y019703D01*
X014100Y019705D01*
X014032Y019703D01*
X013964Y019697D01*
X013896Y019688D01*
X013829Y019674D01*
X013763Y019657D01*
X013698Y019636D01*
X013634Y019611D01*
X013572Y019583D01*
X013512Y019552D01*
X013453Y019517D01*
X013396Y019478D01*
X013342Y019437D01*
X013290Y019392D01*
X013241Y019345D01*
X013195Y019295D01*
X013151Y019243D01*
X013110Y019188D01*
X013073Y019130D01*
X013039Y019071D01*
X013008Y019010D01*
X012981Y018948D01*
X012958Y018883D01*
X012938Y018818D01*
X012922Y018752D01*
X012909Y018685D01*
X012901Y018617D01*
X012896Y018549D01*
X012895Y018480D01*
X012898Y018412D01*
X012905Y018344D01*
X012916Y018277D01*
X012930Y018210D01*
X012949Y018144D01*
X012971Y018080D01*
X012996Y018016D01*
X013025Y017955D01*
X013058Y017895D01*
X013094Y017837D01*
X013133Y017781D01*
X013176Y017727D01*
X013221Y017676D01*
X013269Y017627D01*
X013320Y017582D01*
X013373Y017539D01*
X013320Y017468D01*
X013319Y017467D01*
X013264Y017511D01*
X013211Y017559D01*
X013160Y017609D01*
X013113Y017662D01*
X013069Y017717D01*
X013027Y017775D01*
X012989Y017835D01*
X012954Y017896D01*
X012923Y017960D01*
X012895Y018025D01*
X012871Y018092D01*
X012850Y018160D01*
X012834Y018229D01*
X012821Y018299D01*
X012812Y018369D01*
X012806Y018440D01*
X012805Y018511D01*
X012808Y018582D01*
X012814Y018653D01*
X012824Y018723D01*
X012838Y018792D01*
X012856Y018861D01*
X012878Y018929D01*
X012903Y018995D01*
X012932Y019060D01*
X012965Y019123D01*
X013001Y019184D01*
X013040Y019243D01*
X013082Y019300D01*
X013127Y019355D01*
X013176Y019407D01*
X013227Y019456D01*
X013280Y019503D01*
X013337Y019546D01*
X013395Y019586D01*
X013456Y019623D01*
X013518Y019657D01*
X013582Y019687D01*
X013648Y019714D01*
X013715Y019737D01*
X013784Y019756D01*
X013853Y019771D01*
X013923Y019783D01*
X013994Y019791D01*
X014065Y019795D01*
X014135Y019795D01*
X014206Y019791D01*
X014277Y019783D01*
X014347Y019771D01*
X014416Y019756D01*
X014485Y019737D01*
X014552Y019714D01*
X014618Y019687D01*
X014682Y019657D01*
X014744Y019623D01*
X014805Y019586D01*
X014863Y019546D01*
X014920Y019503D01*
X014973Y019456D01*
X015024Y019407D01*
X015073Y019355D01*
X015118Y019300D01*
X015160Y019243D01*
X015199Y019184D01*
X015235Y019123D01*
X015268Y019060D01*
X015297Y018995D01*
X015322Y018929D01*
X015344Y018861D01*
X015362Y018792D01*
X015376Y018723D01*
X015386Y018653D01*
X015392Y018582D01*
X015395Y018511D01*
X015394Y018440D01*
X015388Y018369D01*
X015379Y018299D01*
X015366Y018229D01*
X015350Y018160D01*
X015329Y018092D01*
X015305Y018025D01*
X015277Y017960D01*
X015246Y017896D01*
X015211Y017835D01*
X015173Y017775D01*
X015131Y017717D01*
X015087Y017662D01*
X015040Y017609D01*
X014989Y017559D01*
X014936Y017511D01*
X014881Y017467D01*
X014876Y017474D01*
X014931Y017519D01*
X014984Y017566D01*
X015035Y017617D01*
X015082Y017670D01*
X015127Y017726D01*
X015168Y017784D01*
X015206Y017844D01*
X015241Y017906D01*
X015272Y017970D01*
X015299Y018036D01*
X015323Y018103D01*
X015343Y018172D01*
X015360Y018241D01*
X015372Y018311D01*
X015381Y018382D01*
X015385Y018453D01*
X015386Y018524D01*
X015382Y018595D01*
X015375Y018666D01*
X015364Y018737D01*
X015349Y018806D01*
X015330Y018875D01*
X015307Y018943D01*
X015281Y019009D01*
X015251Y019074D01*
X015217Y019136D01*
X015181Y019197D01*
X015140Y019256D01*
X015097Y019313D01*
X015050Y019367D01*
X015001Y019418D01*
X014948Y019466D01*
X014894Y019512D01*
X014836Y019554D01*
X014777Y019593D01*
X014715Y019629D01*
X014652Y019662D01*
X014587Y019690D01*
X014520Y019716D01*
X014452Y019737D01*
X014383Y019755D01*
X014313Y019768D01*
X014242Y019778D01*
X014171Y019784D01*
X014100Y019786D01*
X014029Y019784D01*
X013958Y019778D01*
X013887Y019768D01*
X013817Y019755D01*
X013748Y019737D01*
X013680Y019716D01*
X013613Y019690D01*
X013548Y019662D01*
X013485Y019629D01*
X013423Y019593D01*
X013364Y019554D01*
X013306Y019512D01*
X013252Y019466D01*
X013199Y019418D01*
X013150Y019367D01*
X013103Y019313D01*
X013060Y019256D01*
X013019Y019197D01*
X012983Y019136D01*
X012949Y019074D01*
X012919Y019009D01*
X012893Y018943D01*
X012870Y018875D01*
X012851Y018806D01*
X012836Y018737D01*
X012825Y018666D01*
X012818Y018595D01*
X012814Y018524D01*
X012815Y018453D01*
X012819Y018382D01*
X012828Y018311D01*
X012840Y018241D01*
X012857Y018172D01*
X012877Y018103D01*
X012901Y018036D01*
X012928Y017970D01*
X012959Y017906D01*
X012994Y017844D01*
X013032Y017784D01*
X013073Y017726D01*
X013118Y017670D01*
X013165Y017617D01*
X013216Y017566D01*
X013269Y017519D01*
X013324Y017474D01*
X013330Y017481D01*
X013275Y017526D01*
X013222Y017573D01*
X013172Y017623D01*
X013125Y017676D01*
X013081Y017731D01*
X013039Y017789D01*
X013002Y017848D01*
X012967Y017910D01*
X012936Y017974D01*
X012909Y018039D01*
X012885Y018106D01*
X012865Y018174D01*
X012849Y018243D01*
X012837Y018312D01*
X012828Y018383D01*
X012824Y018453D01*
X012823Y018524D01*
X012827Y018595D01*
X012834Y018665D01*
X012845Y018735D01*
X012860Y018804D01*
X012879Y018872D01*
X012901Y018940D01*
X012927Y019005D01*
X012957Y019070D01*
X012990Y019132D01*
X013027Y019192D01*
X013067Y019251D01*
X013110Y019307D01*
X013156Y019361D01*
X013206Y019411D01*
X013257Y019460D01*
X013312Y019505D01*
X013369Y019547D01*
X013428Y019586D01*
X013489Y019621D01*
X013552Y019654D01*
X013617Y019682D01*
X013683Y019707D01*
X013751Y019728D01*
X013819Y019746D01*
X013889Y019759D01*
X013959Y019769D01*
X014029Y019775D01*
X014100Y019777D01*
X014171Y019775D01*
X014241Y019769D01*
X014311Y019759D01*
X014381Y019746D01*
X014449Y019728D01*
X014517Y019707D01*
X014583Y019682D01*
X014648Y019654D01*
X014711Y019621D01*
X014772Y019586D01*
X014831Y019547D01*
X014888Y019505D01*
X014943Y019460D01*
X014994Y019411D01*
X015044Y019361D01*
X015090Y019307D01*
X015133Y019251D01*
X015173Y019192D01*
X015210Y019132D01*
X015243Y019070D01*
X015273Y019005D01*
X015299Y018940D01*
X015321Y018872D01*
X015340Y018804D01*
X015355Y018735D01*
X015366Y018665D01*
X015373Y018595D01*
X015377Y018524D01*
X015376Y018453D01*
X015372Y018383D01*
X015363Y018312D01*
X015351Y018243D01*
X015335Y018174D01*
X015315Y018106D01*
X015291Y018039D01*
X015264Y017974D01*
X015233Y017910D01*
X015198Y017848D01*
X015161Y017789D01*
X015119Y017731D01*
X015075Y017676D01*
X015028Y017623D01*
X014978Y017573D01*
X014925Y017526D01*
X014870Y017481D01*
X014865Y017489D01*
X014920Y017533D01*
X014973Y017581D01*
X015023Y017631D01*
X015071Y017684D01*
X015115Y017740D01*
X015156Y017798D01*
X015193Y017858D01*
X015228Y017920D01*
X015258Y017984D01*
X015285Y018050D01*
X015309Y018117D01*
X015328Y018185D01*
X015344Y018255D01*
X015356Y018325D01*
X015364Y018395D01*
X015368Y018466D01*
X015367Y018537D01*
X015363Y018608D01*
X015355Y018679D01*
X015343Y018749D01*
X015327Y018818D01*
X015308Y018886D01*
X015284Y018954D01*
X015257Y019019D01*
X015226Y019083D01*
X015192Y019145D01*
X015154Y019205D01*
X015112Y019263D01*
X015068Y019319D01*
X015021Y019372D01*
X014970Y019422D01*
X014917Y019469D01*
X014862Y019514D01*
X014804Y019555D01*
X014744Y019592D01*
X014681Y019627D01*
X014617Y019658D01*
X014552Y019685D01*
X014485Y019708D01*
X014416Y019728D01*
X014347Y019744D01*
X014277Y019756D01*
X014206Y019764D01*
X014136Y019768D01*
X014064Y019768D01*
X013994Y019764D01*
X013923Y019756D01*
X013853Y019744D01*
X013784Y019728D01*
X013715Y019708D01*
X013648Y019685D01*
X013583Y019658D01*
X013519Y019627D01*
X013456Y019592D01*
X013396Y019555D01*
X013338Y019514D01*
X013283Y019469D01*
X013230Y019422D01*
X013179Y019372D01*
X013132Y019319D01*
X013088Y019263D01*
X013046Y019205D01*
X013008Y019145D01*
X012974Y019083D01*
X012943Y019019D01*
X012916Y018954D01*
X012892Y018886D01*
X012873Y018818D01*
X012857Y018749D01*
X012845Y018679D01*
X012837Y018608D01*
X012833Y018537D01*
X012832Y018466D01*
X012836Y018395D01*
X012844Y018325D01*
X012856Y018255D01*
X012872Y018185D01*
X012891Y018117D01*
X012915Y018050D01*
X012942Y017984D01*
X012972Y017920D01*
X013007Y017858D01*
X013044Y017798D01*
X013085Y017740D01*
X013129Y017684D01*
X013177Y017631D01*
X013227Y017581D01*
X013280Y017533D01*
X013335Y017489D01*
X013341Y017496D01*
X013286Y017540D01*
X013233Y017587D01*
X013183Y017637D01*
X013136Y017690D01*
X013092Y017745D01*
X013052Y017803D01*
X013014Y017862D01*
X012980Y017924D01*
X012950Y017988D01*
X012923Y018053D01*
X012900Y018120D01*
X012880Y018188D01*
X012865Y018256D01*
X012853Y018326D01*
X012845Y018396D01*
X012841Y018467D01*
X012842Y018537D01*
X012846Y018608D01*
X012854Y018678D01*
X012866Y018747D01*
X012881Y018816D01*
X012901Y018884D01*
X012924Y018950D01*
X012951Y019015D01*
X012982Y019079D01*
X013016Y019141D01*
X013054Y019200D01*
X013095Y019258D01*
X013139Y019313D01*
X013186Y019366D01*
X013236Y019415D01*
X013288Y019462D01*
X013344Y019506D01*
X013401Y019547D01*
X013461Y019585D01*
X013523Y019619D01*
X013586Y019649D01*
X013651Y019676D01*
X013718Y019700D01*
X013786Y019719D01*
X013855Y019735D01*
X013924Y019747D01*
X013994Y019755D01*
X014065Y019759D01*
X014135Y019759D01*
X014206Y019755D01*
X014276Y019747D01*
X014345Y019735D01*
X014414Y019719D01*
X014482Y019700D01*
X014549Y019676D01*
X014614Y019649D01*
X014677Y019619D01*
X014739Y019585D01*
X014799Y019547D01*
X014856Y019506D01*
X014912Y019462D01*
X014964Y019415D01*
X015014Y019366D01*
X015061Y019313D01*
X015105Y019258D01*
X015146Y019200D01*
X015184Y019141D01*
X015218Y019079D01*
X015249Y019015D01*
X015276Y018950D01*
X015299Y018884D01*
X015319Y018816D01*
X015334Y018747D01*
X015346Y018678D01*
X015354Y018608D01*
X015358Y018537D01*
X015359Y018467D01*
X015355Y018396D01*
X015347Y018326D01*
X015335Y018256D01*
X015320Y018188D01*
X015300Y018120D01*
X015277Y018053D01*
X015250Y017988D01*
X015220Y017924D01*
X015186Y017862D01*
X015148Y017803D01*
X015108Y017745D01*
X015064Y017690D01*
X015017Y017637D01*
X014967Y017587D01*
X014914Y017540D01*
X014859Y017496D01*
X014854Y017503D01*
X014909Y017547D01*
X014961Y017594D01*
X015010Y017643D01*
X015057Y017696D01*
X015100Y017750D01*
X015141Y017808D01*
X015178Y017867D01*
X015212Y017928D01*
X015242Y017992D01*
X015269Y018056D01*
X015292Y018123D01*
X015311Y018190D01*
X015326Y018258D01*
X015338Y018327D01*
X015346Y018397D01*
X015350Y018467D01*
X015349Y018537D01*
X015345Y018607D01*
X015337Y018676D01*
X015326Y018745D01*
X015310Y018814D01*
X015291Y018881D01*
X015267Y018947D01*
X015240Y019012D01*
X015210Y019075D01*
X015176Y019136D01*
X015139Y019195D01*
X015098Y019253D01*
X015054Y019307D01*
X015008Y019359D01*
X014958Y019409D01*
X014906Y019456D01*
X014851Y019499D01*
X014794Y019540D01*
X014735Y019577D01*
X014673Y019611D01*
X014610Y019641D01*
X014545Y019668D01*
X014479Y019691D01*
X014412Y019710D01*
X014344Y019726D01*
X014275Y019738D01*
X014205Y019746D01*
X014135Y019750D01*
X014065Y019750D01*
X013995Y019746D01*
X013925Y019738D01*
X013856Y019726D01*
X013788Y019710D01*
X013721Y019691D01*
X013655Y019668D01*
X013590Y019641D01*
X013527Y019611D01*
X013465Y019577D01*
X013406Y019540D01*
X013349Y019499D01*
X013294Y019456D01*
X013242Y019409D01*
X013192Y019359D01*
X013146Y019307D01*
X013102Y019253D01*
X013061Y019195D01*
X013024Y019136D01*
X012990Y019075D01*
X012960Y019012D01*
X012933Y018947D01*
X012909Y018881D01*
X012890Y018814D01*
X012874Y018745D01*
X012863Y018676D01*
X012855Y018607D01*
X012851Y018537D01*
X012850Y018467D01*
X012854Y018397D01*
X012862Y018327D01*
X012874Y018258D01*
X012889Y018190D01*
X012908Y018123D01*
X012931Y018056D01*
X012958Y017992D01*
X012988Y017928D01*
X013022Y017867D01*
X013059Y017808D01*
X013100Y017750D01*
X013143Y017696D01*
X013190Y017643D01*
X013239Y017594D01*
X013291Y017547D01*
X013346Y017503D01*
X013351Y017510D01*
X013297Y017554D01*
X013245Y017600D01*
X013196Y017649D01*
X013150Y017701D01*
X013107Y017756D01*
X013067Y017813D01*
X013030Y017872D01*
X012996Y017933D01*
X012966Y017995D01*
X012940Y018060D01*
X012917Y018125D01*
X012898Y018192D01*
X012882Y018260D01*
X012871Y018329D01*
X012863Y018398D01*
X012859Y018467D01*
X012860Y018537D01*
X012864Y018606D01*
X012871Y018675D01*
X012883Y018744D01*
X012899Y018811D01*
X012918Y018878D01*
X012941Y018944D01*
X012968Y019008D01*
X012998Y019071D01*
X013032Y019132D01*
X013069Y019190D01*
X013109Y019247D01*
X013152Y019301D01*
X013199Y019353D01*
X013248Y019402D01*
X013300Y019449D01*
X013354Y019492D01*
X013411Y019532D01*
X013470Y019569D01*
X013531Y019603D01*
X013594Y019633D01*
X013658Y019660D01*
X013723Y019683D01*
X013790Y019702D01*
X013858Y019717D01*
X013927Y019729D01*
X013996Y019737D01*
X014065Y019741D01*
X014135Y019741D01*
X014204Y019737D01*
X014273Y019729D01*
X014342Y019717D01*
X014410Y019702D01*
X014477Y019683D01*
X014542Y019660D01*
X014606Y019633D01*
X014669Y019603D01*
X014730Y019569D01*
X014789Y019532D01*
X014846Y019492D01*
X014900Y019449D01*
X014952Y019402D01*
X015001Y019353D01*
X015048Y019301D01*
X015091Y019247D01*
X015131Y019190D01*
X015168Y019132D01*
X015202Y019071D01*
X015232Y019008D01*
X015259Y018944D01*
X015282Y018878D01*
X015301Y018811D01*
X015317Y018744D01*
X015329Y018675D01*
X015336Y018606D01*
X015340Y018537D01*
X015341Y018467D01*
X015337Y018398D01*
X015329Y018329D01*
X015318Y018260D01*
X015302Y018192D01*
X015283Y018125D01*
X015260Y018060D01*
X015234Y017995D01*
X015204Y017933D01*
X015170Y017872D01*
X015133Y017813D01*
X015093Y017756D01*
X015050Y017701D01*
X015004Y017649D01*
X014955Y017600D01*
X014903Y017554D01*
X014849Y017510D01*
X014843Y017517D01*
X014897Y017561D01*
X014948Y017607D01*
X014997Y017656D01*
X015043Y017707D01*
X015086Y017761D01*
X015126Y017818D01*
X015162Y017876D01*
X015196Y017937D01*
X015226Y017999D01*
X015252Y018063D01*
X015274Y018128D01*
X015293Y018194D01*
X015309Y018262D01*
X015320Y018330D01*
X015328Y018398D01*
X015332Y018467D01*
X015331Y018536D01*
X015327Y018605D01*
X015320Y018674D01*
X015308Y018742D01*
X015293Y018809D01*
X015273Y018876D01*
X015250Y018941D01*
X015224Y019004D01*
X015194Y019067D01*
X015161Y019127D01*
X015124Y019185D01*
X015084Y019242D01*
X015041Y019296D01*
X014995Y019347D01*
X014946Y019396D01*
X014894Y019442D01*
X014840Y019485D01*
X014784Y019525D01*
X014725Y019561D01*
X014665Y019595D01*
X014603Y019625D01*
X014539Y019651D01*
X014474Y019674D01*
X014407Y019693D01*
X014340Y019708D01*
X014272Y019720D01*
X014203Y019728D01*
X014135Y019732D01*
X014065Y019732D01*
X013997Y019728D01*
X013928Y019720D01*
X013860Y019708D01*
X013793Y019693D01*
X013726Y019674D01*
X013661Y019651D01*
X013597Y019625D01*
X013535Y019595D01*
X013475Y019561D01*
X013416Y019525D01*
X013360Y019485D01*
X013306Y019442D01*
X013254Y019396D01*
X013205Y019347D01*
X013159Y019296D01*
X013116Y019242D01*
X013076Y019185D01*
X013039Y019127D01*
X013006Y019067D01*
X012976Y019004D01*
X012950Y018941D01*
X012927Y018876D01*
X012907Y018809D01*
X012892Y018742D01*
X012880Y018674D01*
X012873Y018605D01*
X012869Y018536D01*
X012868Y018467D01*
X012872Y018398D01*
X012880Y018330D01*
X012891Y018262D01*
X012907Y018194D01*
X012926Y018128D01*
X012948Y018063D01*
X012974Y017999D01*
X013004Y017937D01*
X013038Y017876D01*
X013074Y017818D01*
X013114Y017761D01*
X013157Y017707D01*
X013203Y017656D01*
X013252Y017607D01*
X013303Y017561D01*
X013357Y017517D01*
X013362Y017525D01*
X013308Y017568D01*
X013257Y017614D01*
X013208Y017664D01*
X013162Y017715D01*
X013119Y017770D01*
X013079Y017827D01*
X013043Y017885D01*
X013009Y017946D01*
X012980Y018009D01*
X012954Y018073D01*
X012932Y018139D01*
X012913Y018206D01*
X012898Y018273D01*
X012887Y018342D01*
X012880Y018411D01*
X012877Y018480D01*
X012878Y018549D01*
X012883Y018619D01*
X012891Y018687D01*
X012904Y018755D01*
X012920Y018823D01*
X012941Y018889D01*
X012964Y018954D01*
X012992Y019018D01*
X013023Y019080D01*
X013058Y019140D01*
X013096Y019198D01*
X013137Y019254D01*
X013181Y019307D01*
X013228Y019358D01*
X013278Y019406D01*
X013331Y019451D01*
X013386Y019493D01*
X013443Y019532D01*
X013503Y019567D01*
X013564Y019599D01*
X013627Y019628D01*
X013692Y019653D01*
X013758Y019674D01*
X013825Y019692D01*
X013893Y019705D01*
X013962Y019715D01*
X014031Y019721D01*
X014100Y019723D01*
X014169Y019721D01*
X014238Y019715D01*
X014307Y019705D01*
X014375Y019692D01*
X014442Y019674D01*
X014508Y019653D01*
X014573Y019628D01*
X014636Y019599D01*
X014697Y019567D01*
X014757Y019532D01*
X014814Y019493D01*
X014869Y019451D01*
X014922Y019406D01*
X014972Y019358D01*
X015019Y019307D01*
X015063Y019254D01*
X015104Y019198D01*
X015142Y019140D01*
X015177Y019080D01*
X015208Y019018D01*
X015236Y018954D01*
X015259Y018889D01*
X015280Y018823D01*
X015296Y018755D01*
X015309Y018687D01*
X015317Y018619D01*
X015322Y018549D01*
X015323Y018480D01*
X015320Y018411D01*
X015313Y018342D01*
X015302Y018273D01*
X015287Y018206D01*
X015268Y018139D01*
X015246Y018073D01*
X015220Y018009D01*
X015191Y017946D01*
X015157Y017885D01*
X015121Y017827D01*
X015081Y017770D01*
X015038Y017715D01*
X014992Y017664D01*
X014943Y017614D01*
X014892Y017568D01*
X014838Y017525D01*
X014832Y017532D01*
X014886Y017575D01*
X014937Y017621D01*
X014986Y017670D01*
X015031Y017721D01*
X015074Y017775D01*
X015113Y017832D01*
X015150Y017890D01*
X015183Y017950D01*
X015212Y018013D01*
X015238Y018076D01*
X015260Y018142D01*
X015278Y018208D01*
X015293Y018275D01*
X015304Y018343D01*
X015311Y018412D01*
X015314Y018480D01*
X015313Y018549D01*
X015308Y018618D01*
X015300Y018686D01*
X015287Y018754D01*
X015271Y018820D01*
X015251Y018886D01*
X015227Y018951D01*
X015200Y019014D01*
X015169Y019075D01*
X015135Y019135D01*
X015097Y019193D01*
X015056Y019248D01*
X015012Y019301D01*
X014965Y019351D01*
X014916Y019399D01*
X014864Y019444D01*
X014809Y019486D01*
X014752Y019524D01*
X014693Y019559D01*
X014632Y019591D01*
X014569Y019620D01*
X014505Y019644D01*
X014439Y019666D01*
X014373Y019683D01*
X014305Y019696D01*
X014237Y019706D01*
X014169Y019712D01*
X014100Y019714D01*
X014031Y019712D01*
X013963Y019706D01*
X013895Y019696D01*
X013827Y019683D01*
X013761Y019666D01*
X013695Y019644D01*
X013631Y019620D01*
X013568Y019591D01*
X013507Y019559D01*
X013448Y019524D01*
X013391Y019486D01*
X013336Y019444D01*
X013284Y019399D01*
X013235Y019351D01*
X013188Y019301D01*
X013144Y019248D01*
X013103Y019193D01*
X013065Y019135D01*
X013031Y019075D01*
X013000Y019014D01*
X012973Y018951D01*
X012949Y018886D01*
X012929Y018820D01*
X012913Y018754D01*
X012900Y018686D01*
X012892Y018618D01*
X012887Y018549D01*
X012886Y018480D01*
X012889Y018412D01*
X012896Y018343D01*
X012907Y018275D01*
X012922Y018208D01*
X012940Y018142D01*
X012962Y018076D01*
X012988Y018013D01*
X013017Y017950D01*
X013050Y017890D01*
X013087Y017832D01*
X013126Y017775D01*
X013169Y017721D01*
X013214Y017670D01*
X013263Y017621D01*
X013314Y017575D01*
X013368Y017532D01*
D14*
X014000Y014984D02*
X014045Y014984D01*
X014135Y014894D01*
X014180Y014894D02*
X014225Y014894D01*
X014000Y014984D02*
X013955Y014939D01*
X013955Y014849D01*
X014000Y014804D01*
X014000Y014394D02*
X014180Y014214D01*
X014225Y014259D01*
X014225Y014349D01*
X014180Y014394D01*
X014000Y014394D01*
X013955Y014349D01*
X013955Y014259D01*
X014000Y014214D01*
X014180Y014214D01*
X014225Y014100D02*
X014225Y013920D01*
X014045Y014100D01*
X014000Y014100D01*
X013955Y014055D01*
X013955Y013965D01*
X014000Y013920D01*
X014000Y013805D02*
X013955Y013760D01*
X013955Y013670D01*
X014000Y013625D01*
X014000Y013805D02*
X014045Y013805D01*
X014225Y013625D01*
X014225Y013805D01*
X016955Y013760D02*
X016955Y013670D01*
X017000Y013625D01*
X016955Y013760D02*
X017000Y013805D01*
X017045Y013805D01*
X017225Y013625D01*
X017225Y013805D01*
X017225Y013920D02*
X017045Y014100D01*
X017000Y014100D01*
X016955Y014055D01*
X016955Y013965D01*
X017000Y013920D01*
X017225Y013920D02*
X017225Y014100D01*
X017180Y014214D02*
X017000Y014394D01*
X017180Y014394D01*
X017225Y014349D01*
X017225Y014259D01*
X017180Y014214D01*
X017000Y014214D01*
X016955Y014259D01*
X016955Y014349D01*
X017000Y014394D01*
X017000Y014804D02*
X016955Y014849D01*
X016955Y014939D01*
X017000Y014984D01*
X017045Y014984D01*
X017135Y014894D01*
X017180Y014894D02*
X017225Y014894D01*
M02*
