G75*
G70*
%OFA0B0*%
%FSLAX24Y24*%
%IPPOS*%
%LPD*%
%AMOC8*
5,1,8,0,0,1.08239X$1,22.5*
%
%ADD10C,0.0595*%
%ADD11C,0.0820*%
%ADD12R,0.0552X0.0395*%
%ADD13R,0.0820X0.0820*%
%ADD14C,0.1380*%
%ADD15R,0.0395X0.0552*%
D10*
X008003Y009957D03*
X008003Y010744D03*
X008003Y011531D03*
X008003Y012319D03*
X008003Y013106D03*
X008003Y013894D03*
X008003Y014681D03*
X008003Y015469D03*
X008003Y016256D03*
X008003Y017043D03*
X016664Y017043D03*
X016664Y016256D03*
X016664Y015469D03*
X016664Y014681D03*
X016664Y013894D03*
X016664Y013106D03*
X016664Y012319D03*
X016664Y011531D03*
X016664Y010744D03*
X016664Y009957D03*
D11*
X018783Y011000D03*
X018883Y012000D03*
X018783Y013000D03*
X021833Y013000D03*
X021833Y014000D03*
X018833Y018000D03*
X017833Y018000D03*
X020333Y019000D03*
X021333Y019000D03*
D12*
X015833Y016354D03*
X015833Y015646D03*
X014833Y016146D03*
X014833Y016854D03*
D13*
X018883Y014000D03*
X021833Y012000D03*
D14*
X007833Y008000D03*
X023333Y008000D03*
X023333Y019000D03*
X007833Y019000D03*
D15*
X018979Y015500D03*
X019688Y015500D03*
X019188Y010000D03*
X018479Y010000D03*
M02*
