%
M48
M72
T01C0.0315
T02C0.0320
T03C0.0394
T04C0.0400
T05C0.1300
%
T01
X8003Y9957
X8003Y10744
X8003Y11531
X8003Y12319
X8003Y13106
X8003Y13894
X8003Y14681
X8003Y15469
X8003Y16256
X8003Y17043
X16664Y17043
X16664Y16256
X16664Y15469
X16664Y14681
X16664Y13894
X16664Y13106
X16664Y12319
X16664Y11531
X16664Y10744
X16664Y9957
T02
X17833Y18000
X18833Y18000
X20333Y18000
X21333Y18000
T03
X21833Y14000
X21833Y13000
X21833Y12000
T04
X18883Y12000
X18783Y11000
X18783Y13000
X18883Y14000
T05
X7833Y8000
X22833Y8000
X22833Y19000
X7833Y19000
M30
