G75*
G70*
%OFA0B0*%
%FSLAX24Y24*%
%IPPOS*%
%LPD*%
%AMOC8*
5,1,8,0,0,1.08239X$1,22.5*
%
%ADD10C,0.0000*%
%ADD11C,0.0515*%
%ADD12C,0.0740*%
%ADD13R,0.0472X0.0315*%
%ADD14R,0.0740X0.0740*%
%ADD15R,0.0315X0.0472*%
%ADD16C,0.0160*%
D10*
X006833Y007000D02*
X006833Y019996D01*
X023703Y019996D01*
X023703Y007000D01*
X006833Y007000D01*
X007183Y008000D02*
X007185Y008050D01*
X007191Y008100D01*
X007201Y008150D01*
X007214Y008198D01*
X007231Y008246D01*
X007252Y008292D01*
X007276Y008336D01*
X007304Y008378D01*
X007335Y008418D01*
X007369Y008455D01*
X007406Y008490D01*
X007445Y008521D01*
X007486Y008550D01*
X007530Y008575D01*
X007576Y008597D01*
X007623Y008615D01*
X007671Y008629D01*
X007720Y008640D01*
X007770Y008647D01*
X007820Y008650D01*
X007871Y008649D01*
X007921Y008644D01*
X007971Y008635D01*
X008019Y008623D01*
X008067Y008606D01*
X008113Y008586D01*
X008158Y008563D01*
X008201Y008536D01*
X008241Y008506D01*
X008279Y008473D01*
X008314Y008437D01*
X008347Y008398D01*
X008376Y008357D01*
X008402Y008314D01*
X008425Y008269D01*
X008444Y008222D01*
X008459Y008174D01*
X008471Y008125D01*
X008479Y008075D01*
X008483Y008025D01*
X008483Y007975D01*
X008479Y007925D01*
X008471Y007875D01*
X008459Y007826D01*
X008444Y007778D01*
X008425Y007731D01*
X008402Y007686D01*
X008376Y007643D01*
X008347Y007602D01*
X008314Y007563D01*
X008279Y007527D01*
X008241Y007494D01*
X008201Y007464D01*
X008158Y007437D01*
X008113Y007414D01*
X008067Y007394D01*
X008019Y007377D01*
X007971Y007365D01*
X007921Y007356D01*
X007871Y007351D01*
X007820Y007350D01*
X007770Y007353D01*
X007720Y007360D01*
X007671Y007371D01*
X007623Y007385D01*
X007576Y007403D01*
X007530Y007425D01*
X007486Y007450D01*
X007445Y007479D01*
X007406Y007510D01*
X007369Y007545D01*
X007335Y007582D01*
X007304Y007622D01*
X007276Y007664D01*
X007252Y007708D01*
X007231Y007754D01*
X007214Y007802D01*
X007201Y007850D01*
X007191Y007900D01*
X007185Y007950D01*
X007183Y008000D01*
X022183Y008000D02*
X022185Y008050D01*
X022191Y008100D01*
X022201Y008150D01*
X022214Y008198D01*
X022231Y008246D01*
X022252Y008292D01*
X022276Y008336D01*
X022304Y008378D01*
X022335Y008418D01*
X022369Y008455D01*
X022406Y008490D01*
X022445Y008521D01*
X022486Y008550D01*
X022530Y008575D01*
X022576Y008597D01*
X022623Y008615D01*
X022671Y008629D01*
X022720Y008640D01*
X022770Y008647D01*
X022820Y008650D01*
X022871Y008649D01*
X022921Y008644D01*
X022971Y008635D01*
X023019Y008623D01*
X023067Y008606D01*
X023113Y008586D01*
X023158Y008563D01*
X023201Y008536D01*
X023241Y008506D01*
X023279Y008473D01*
X023314Y008437D01*
X023347Y008398D01*
X023376Y008357D01*
X023402Y008314D01*
X023425Y008269D01*
X023444Y008222D01*
X023459Y008174D01*
X023471Y008125D01*
X023479Y008075D01*
X023483Y008025D01*
X023483Y007975D01*
X023479Y007925D01*
X023471Y007875D01*
X023459Y007826D01*
X023444Y007778D01*
X023425Y007731D01*
X023402Y007686D01*
X023376Y007643D01*
X023347Y007602D01*
X023314Y007563D01*
X023279Y007527D01*
X023241Y007494D01*
X023201Y007464D01*
X023158Y007437D01*
X023113Y007414D01*
X023067Y007394D01*
X023019Y007377D01*
X022971Y007365D01*
X022921Y007356D01*
X022871Y007351D01*
X022820Y007350D01*
X022770Y007353D01*
X022720Y007360D01*
X022671Y007371D01*
X022623Y007385D01*
X022576Y007403D01*
X022530Y007425D01*
X022486Y007450D01*
X022445Y007479D01*
X022406Y007510D01*
X022369Y007545D01*
X022335Y007582D01*
X022304Y007622D01*
X022276Y007664D01*
X022252Y007708D01*
X022231Y007754D01*
X022214Y007802D01*
X022201Y007850D01*
X022191Y007900D01*
X022185Y007950D01*
X022183Y008000D01*
X022183Y019000D02*
X022185Y019050D01*
X022191Y019100D01*
X022201Y019150D01*
X022214Y019198D01*
X022231Y019246D01*
X022252Y019292D01*
X022276Y019336D01*
X022304Y019378D01*
X022335Y019418D01*
X022369Y019455D01*
X022406Y019490D01*
X022445Y019521D01*
X022486Y019550D01*
X022530Y019575D01*
X022576Y019597D01*
X022623Y019615D01*
X022671Y019629D01*
X022720Y019640D01*
X022770Y019647D01*
X022820Y019650D01*
X022871Y019649D01*
X022921Y019644D01*
X022971Y019635D01*
X023019Y019623D01*
X023067Y019606D01*
X023113Y019586D01*
X023158Y019563D01*
X023201Y019536D01*
X023241Y019506D01*
X023279Y019473D01*
X023314Y019437D01*
X023347Y019398D01*
X023376Y019357D01*
X023402Y019314D01*
X023425Y019269D01*
X023444Y019222D01*
X023459Y019174D01*
X023471Y019125D01*
X023479Y019075D01*
X023483Y019025D01*
X023483Y018975D01*
X023479Y018925D01*
X023471Y018875D01*
X023459Y018826D01*
X023444Y018778D01*
X023425Y018731D01*
X023402Y018686D01*
X023376Y018643D01*
X023347Y018602D01*
X023314Y018563D01*
X023279Y018527D01*
X023241Y018494D01*
X023201Y018464D01*
X023158Y018437D01*
X023113Y018414D01*
X023067Y018394D01*
X023019Y018377D01*
X022971Y018365D01*
X022921Y018356D01*
X022871Y018351D01*
X022820Y018350D01*
X022770Y018353D01*
X022720Y018360D01*
X022671Y018371D01*
X022623Y018385D01*
X022576Y018403D01*
X022530Y018425D01*
X022486Y018450D01*
X022445Y018479D01*
X022406Y018510D01*
X022369Y018545D01*
X022335Y018582D01*
X022304Y018622D01*
X022276Y018664D01*
X022252Y018708D01*
X022231Y018754D01*
X022214Y018802D01*
X022201Y018850D01*
X022191Y018900D01*
X022185Y018950D01*
X022183Y019000D01*
X007183Y019000D02*
X007185Y019050D01*
X007191Y019100D01*
X007201Y019150D01*
X007214Y019198D01*
X007231Y019246D01*
X007252Y019292D01*
X007276Y019336D01*
X007304Y019378D01*
X007335Y019418D01*
X007369Y019455D01*
X007406Y019490D01*
X007445Y019521D01*
X007486Y019550D01*
X007530Y019575D01*
X007576Y019597D01*
X007623Y019615D01*
X007671Y019629D01*
X007720Y019640D01*
X007770Y019647D01*
X007820Y019650D01*
X007871Y019649D01*
X007921Y019644D01*
X007971Y019635D01*
X008019Y019623D01*
X008067Y019606D01*
X008113Y019586D01*
X008158Y019563D01*
X008201Y019536D01*
X008241Y019506D01*
X008279Y019473D01*
X008314Y019437D01*
X008347Y019398D01*
X008376Y019357D01*
X008402Y019314D01*
X008425Y019269D01*
X008444Y019222D01*
X008459Y019174D01*
X008471Y019125D01*
X008479Y019075D01*
X008483Y019025D01*
X008483Y018975D01*
X008479Y018925D01*
X008471Y018875D01*
X008459Y018826D01*
X008444Y018778D01*
X008425Y018731D01*
X008402Y018686D01*
X008376Y018643D01*
X008347Y018602D01*
X008314Y018563D01*
X008279Y018527D01*
X008241Y018494D01*
X008201Y018464D01*
X008158Y018437D01*
X008113Y018414D01*
X008067Y018394D01*
X008019Y018377D01*
X007971Y018365D01*
X007921Y018356D01*
X007871Y018351D01*
X007820Y018350D01*
X007770Y018353D01*
X007720Y018360D01*
X007671Y018371D01*
X007623Y018385D01*
X007576Y018403D01*
X007530Y018425D01*
X007486Y018450D01*
X007445Y018479D01*
X007406Y018510D01*
X007369Y018545D01*
X007335Y018582D01*
X007304Y018622D01*
X007276Y018664D01*
X007252Y018708D01*
X007231Y018754D01*
X007214Y018802D01*
X007201Y018850D01*
X007191Y018900D01*
X007185Y018950D01*
X007183Y019000D01*
D11*
X008003Y017043D03*
X008003Y016256D03*
X008003Y015469D03*
X008003Y014681D03*
X008003Y013894D03*
X008003Y013106D03*
X008003Y012319D03*
X008003Y011531D03*
X008003Y010744D03*
X008003Y009957D03*
X016664Y009957D03*
X016664Y010744D03*
X016664Y011531D03*
X016664Y012319D03*
X016664Y013106D03*
X016664Y013894D03*
X016664Y014681D03*
X016664Y015469D03*
X016664Y016256D03*
X016664Y017043D03*
D12*
X017833Y018000D03*
X018833Y018000D03*
X020333Y018000D03*
X021333Y018000D03*
X021833Y014000D03*
X021833Y013000D03*
X018783Y013000D03*
X018883Y012000D03*
X018783Y011000D03*
D13*
X015833Y015646D03*
X015833Y016354D03*
X014833Y016146D03*
X014833Y016854D03*
D14*
X018883Y014000D03*
X021833Y012000D03*
D15*
X019188Y010000D03*
X018479Y010000D03*
X018979Y015500D03*
X019688Y015500D03*
D16*
X020333Y015500D01*
X021833Y014000D01*
X021833Y013000D02*
X020833Y013000D01*
X018979Y014854D01*
X018979Y015500D01*
X019688Y015500D02*
X019688Y016500D01*
X019144Y017043D01*
X016664Y017043D01*
X015833Y017500D02*
X016333Y018000D01*
X017833Y018000D01*
X018833Y018000D02*
X019688Y017146D01*
X020479Y017146D01*
X021333Y018000D01*
X020333Y018000D02*
X019333Y019000D01*
X016333Y019000D01*
X014833Y017500D01*
X014833Y016854D01*
X015833Y016354D02*
X015833Y017500D01*
X016589Y016256D02*
X016333Y016000D01*
X014979Y016000D01*
X014833Y016146D01*
X015833Y015646D02*
X016010Y015469D01*
X016664Y015469D01*
X017333Y014799D01*
X017333Y013500D01*
X018833Y012000D01*
X018883Y012000D01*
X018783Y011000D02*
X020833Y011000D01*
X021833Y012000D01*
X019833Y010000D01*
X019188Y010000D01*
X018479Y010000D02*
X018479Y009354D01*
X018833Y009000D01*
X020333Y009000D01*
X022833Y011500D01*
X022833Y012000D01*
X021833Y013000D01*
X021479Y013000D01*
X020833Y013000D02*
X019883Y013000D01*
X018883Y014000D01*
X018783Y013050D02*
X017833Y014000D01*
X017833Y015087D01*
X016664Y016256D01*
X016589Y016256D01*
X019688Y016500D02*
X019688Y017146D01*
X018783Y013050D02*
X018783Y013000D01*
X018479Y010000D02*
X016707Y010000D01*
X016664Y009957D01*
M02*
