%
M48
M72
T01C0.0315
T02C0.0320
T03C0.0354
T04C0.0394
T05C0.0400
T06C0.1300
%
T01
X19769Y8957
X19769Y9744
X19769Y10531
X19769Y11319
X19769Y12106
X19769Y12894
X19769Y13681
X19769Y14469
X19769Y15256
X19769Y16043
X28431Y16043
X28431Y15256
X28431Y14469
X28431Y13681
X28431Y12894
X28431Y12106
X28431Y11319
X28431Y10531
X28431Y9744
X28431Y8957
T02
X17100Y18000
X17100Y19000
X14100Y19000
X14100Y18000
T03
X14100Y16500
X17100Y16500
X17100Y12500
X14100Y12500
T04
X11100Y12500
X11100Y13500
X11100Y14500
T05
X14600Y9550
X15600Y9450
X16600Y9550
X17600Y9450
T06
X10100Y8000
X10100Y19000
X30600Y19000
X30600Y8000
M30
