G75*
G70*
%OFA0B0*%
%FSLAX24Y24*%
%IPPOS*%
%LPD*%
%AMOC8*
5,1,8,0,0,1.08239X$1,22.5*
%
%ADD10C,0.0515*%
%ADD11C,0.0740*%
%ADD12R,0.0740X0.0740*%
%ADD13C,0.0160*%
D10*
X019769Y008957D03*
X019769Y009744D03*
X019769Y010531D03*
X019769Y011319D03*
X019769Y012106D03*
X019769Y012894D03*
X019769Y013681D03*
X019769Y014469D03*
X019769Y015256D03*
X019769Y016043D03*
X028431Y016043D03*
X028431Y015256D03*
X028431Y014469D03*
X028431Y013681D03*
X028431Y012894D03*
X028431Y012106D03*
X028431Y011319D03*
X028431Y010531D03*
X028431Y009744D03*
X028431Y008957D03*
D11*
X017100Y012500D03*
X014100Y012500D03*
X011100Y013500D03*
X011100Y014500D03*
X014100Y016500D03*
X014100Y018000D03*
X014100Y019000D03*
X017100Y019000D03*
X017100Y018000D03*
X017100Y016500D03*
X016600Y009550D03*
X015600Y009450D03*
X014600Y009550D03*
D12*
X017600Y009450D03*
X011100Y012500D03*
D13*
X010100Y011000D02*
X013100Y008000D01*
X016150Y008000D01*
X017600Y009450D01*
X018093Y008957D01*
X019769Y008957D01*
X017100Y010050D02*
X016600Y009550D01*
X017100Y010050D02*
X017100Y012500D01*
X019069Y014469D01*
X019769Y014469D01*
X019769Y015256D02*
X016856Y015256D01*
X014100Y012500D01*
X014100Y010950D01*
X015600Y009450D01*
X014600Y009500D02*
X014600Y009550D01*
X014600Y009500D02*
X011600Y012500D01*
X011100Y012500D01*
X011100Y013500D02*
X010100Y012500D01*
X010100Y011000D01*
X011100Y014500D02*
X011100Y016000D01*
X014100Y019000D01*
X017100Y019000D01*
X019769Y016331D01*
X019769Y016043D01*
X017100Y016500D02*
X017100Y018000D01*
X014100Y018000D02*
X014100Y016500D01*
M02*
