G75*
G70*
%OFA0B0*%
%FSLAX24Y24*%
%IPPOS*%
%LPD*%
%AMOC8*
5,1,8,0,0,1.08239X$1,22.5*
%
%ADD10C,0.0000*%
%ADD11C,0.0515*%
%ADD12C,0.0740*%
%ADD13R,0.0472X0.0315*%
%ADD14R,0.0740X0.0740*%
%ADD15R,0.0315X0.0472*%
%ADD16C,0.0160*%
D10*
X006333Y006500D02*
X006333Y020996D01*
X024703Y020996D01*
X024703Y006500D01*
X006333Y006500D01*
X007183Y008000D02*
X007185Y008050D01*
X007191Y008100D01*
X007201Y008150D01*
X007214Y008198D01*
X007231Y008246D01*
X007252Y008292D01*
X007276Y008336D01*
X007304Y008378D01*
X007335Y008418D01*
X007369Y008455D01*
X007406Y008490D01*
X007445Y008521D01*
X007486Y008550D01*
X007530Y008575D01*
X007576Y008597D01*
X007623Y008615D01*
X007671Y008629D01*
X007720Y008640D01*
X007770Y008647D01*
X007820Y008650D01*
X007871Y008649D01*
X007921Y008644D01*
X007971Y008635D01*
X008019Y008623D01*
X008067Y008606D01*
X008113Y008586D01*
X008158Y008563D01*
X008201Y008536D01*
X008241Y008506D01*
X008279Y008473D01*
X008314Y008437D01*
X008347Y008398D01*
X008376Y008357D01*
X008402Y008314D01*
X008425Y008269D01*
X008444Y008222D01*
X008459Y008174D01*
X008471Y008125D01*
X008479Y008075D01*
X008483Y008025D01*
X008483Y007975D01*
X008479Y007925D01*
X008471Y007875D01*
X008459Y007826D01*
X008444Y007778D01*
X008425Y007731D01*
X008402Y007686D01*
X008376Y007643D01*
X008347Y007602D01*
X008314Y007563D01*
X008279Y007527D01*
X008241Y007494D01*
X008201Y007464D01*
X008158Y007437D01*
X008113Y007414D01*
X008067Y007394D01*
X008019Y007377D01*
X007971Y007365D01*
X007921Y007356D01*
X007871Y007351D01*
X007820Y007350D01*
X007770Y007353D01*
X007720Y007360D01*
X007671Y007371D01*
X007623Y007385D01*
X007576Y007403D01*
X007530Y007425D01*
X007486Y007450D01*
X007445Y007479D01*
X007406Y007510D01*
X007369Y007545D01*
X007335Y007582D01*
X007304Y007622D01*
X007276Y007664D01*
X007252Y007708D01*
X007231Y007754D01*
X007214Y007802D01*
X007201Y007850D01*
X007191Y007900D01*
X007185Y007950D01*
X007183Y008000D01*
X022683Y008000D02*
X022685Y008050D01*
X022691Y008100D01*
X022701Y008150D01*
X022714Y008198D01*
X022731Y008246D01*
X022752Y008292D01*
X022776Y008336D01*
X022804Y008378D01*
X022835Y008418D01*
X022869Y008455D01*
X022906Y008490D01*
X022945Y008521D01*
X022986Y008550D01*
X023030Y008575D01*
X023076Y008597D01*
X023123Y008615D01*
X023171Y008629D01*
X023220Y008640D01*
X023270Y008647D01*
X023320Y008650D01*
X023371Y008649D01*
X023421Y008644D01*
X023471Y008635D01*
X023519Y008623D01*
X023567Y008606D01*
X023613Y008586D01*
X023658Y008563D01*
X023701Y008536D01*
X023741Y008506D01*
X023779Y008473D01*
X023814Y008437D01*
X023847Y008398D01*
X023876Y008357D01*
X023902Y008314D01*
X023925Y008269D01*
X023944Y008222D01*
X023959Y008174D01*
X023971Y008125D01*
X023979Y008075D01*
X023983Y008025D01*
X023983Y007975D01*
X023979Y007925D01*
X023971Y007875D01*
X023959Y007826D01*
X023944Y007778D01*
X023925Y007731D01*
X023902Y007686D01*
X023876Y007643D01*
X023847Y007602D01*
X023814Y007563D01*
X023779Y007527D01*
X023741Y007494D01*
X023701Y007464D01*
X023658Y007437D01*
X023613Y007414D01*
X023567Y007394D01*
X023519Y007377D01*
X023471Y007365D01*
X023421Y007356D01*
X023371Y007351D01*
X023320Y007350D01*
X023270Y007353D01*
X023220Y007360D01*
X023171Y007371D01*
X023123Y007385D01*
X023076Y007403D01*
X023030Y007425D01*
X022986Y007450D01*
X022945Y007479D01*
X022906Y007510D01*
X022869Y007545D01*
X022835Y007582D01*
X022804Y007622D01*
X022776Y007664D01*
X022752Y007708D01*
X022731Y007754D01*
X022714Y007802D01*
X022701Y007850D01*
X022691Y007900D01*
X022685Y007950D01*
X022683Y008000D01*
X022683Y019000D02*
X022685Y019050D01*
X022691Y019100D01*
X022701Y019150D01*
X022714Y019198D01*
X022731Y019246D01*
X022752Y019292D01*
X022776Y019336D01*
X022804Y019378D01*
X022835Y019418D01*
X022869Y019455D01*
X022906Y019490D01*
X022945Y019521D01*
X022986Y019550D01*
X023030Y019575D01*
X023076Y019597D01*
X023123Y019615D01*
X023171Y019629D01*
X023220Y019640D01*
X023270Y019647D01*
X023320Y019650D01*
X023371Y019649D01*
X023421Y019644D01*
X023471Y019635D01*
X023519Y019623D01*
X023567Y019606D01*
X023613Y019586D01*
X023658Y019563D01*
X023701Y019536D01*
X023741Y019506D01*
X023779Y019473D01*
X023814Y019437D01*
X023847Y019398D01*
X023876Y019357D01*
X023902Y019314D01*
X023925Y019269D01*
X023944Y019222D01*
X023959Y019174D01*
X023971Y019125D01*
X023979Y019075D01*
X023983Y019025D01*
X023983Y018975D01*
X023979Y018925D01*
X023971Y018875D01*
X023959Y018826D01*
X023944Y018778D01*
X023925Y018731D01*
X023902Y018686D01*
X023876Y018643D01*
X023847Y018602D01*
X023814Y018563D01*
X023779Y018527D01*
X023741Y018494D01*
X023701Y018464D01*
X023658Y018437D01*
X023613Y018414D01*
X023567Y018394D01*
X023519Y018377D01*
X023471Y018365D01*
X023421Y018356D01*
X023371Y018351D01*
X023320Y018350D01*
X023270Y018353D01*
X023220Y018360D01*
X023171Y018371D01*
X023123Y018385D01*
X023076Y018403D01*
X023030Y018425D01*
X022986Y018450D01*
X022945Y018479D01*
X022906Y018510D01*
X022869Y018545D01*
X022835Y018582D01*
X022804Y018622D01*
X022776Y018664D01*
X022752Y018708D01*
X022731Y018754D01*
X022714Y018802D01*
X022701Y018850D01*
X022691Y018900D01*
X022685Y018950D01*
X022683Y019000D01*
X007183Y019000D02*
X007185Y019050D01*
X007191Y019100D01*
X007201Y019150D01*
X007214Y019198D01*
X007231Y019246D01*
X007252Y019292D01*
X007276Y019336D01*
X007304Y019378D01*
X007335Y019418D01*
X007369Y019455D01*
X007406Y019490D01*
X007445Y019521D01*
X007486Y019550D01*
X007530Y019575D01*
X007576Y019597D01*
X007623Y019615D01*
X007671Y019629D01*
X007720Y019640D01*
X007770Y019647D01*
X007820Y019650D01*
X007871Y019649D01*
X007921Y019644D01*
X007971Y019635D01*
X008019Y019623D01*
X008067Y019606D01*
X008113Y019586D01*
X008158Y019563D01*
X008201Y019536D01*
X008241Y019506D01*
X008279Y019473D01*
X008314Y019437D01*
X008347Y019398D01*
X008376Y019357D01*
X008402Y019314D01*
X008425Y019269D01*
X008444Y019222D01*
X008459Y019174D01*
X008471Y019125D01*
X008479Y019075D01*
X008483Y019025D01*
X008483Y018975D01*
X008479Y018925D01*
X008471Y018875D01*
X008459Y018826D01*
X008444Y018778D01*
X008425Y018731D01*
X008402Y018686D01*
X008376Y018643D01*
X008347Y018602D01*
X008314Y018563D01*
X008279Y018527D01*
X008241Y018494D01*
X008201Y018464D01*
X008158Y018437D01*
X008113Y018414D01*
X008067Y018394D01*
X008019Y018377D01*
X007971Y018365D01*
X007921Y018356D01*
X007871Y018351D01*
X007820Y018350D01*
X007770Y018353D01*
X007720Y018360D01*
X007671Y018371D01*
X007623Y018385D01*
X007576Y018403D01*
X007530Y018425D01*
X007486Y018450D01*
X007445Y018479D01*
X007406Y018510D01*
X007369Y018545D01*
X007335Y018582D01*
X007304Y018622D01*
X007276Y018664D01*
X007252Y018708D01*
X007231Y018754D01*
X007214Y018802D01*
X007201Y018850D01*
X007191Y018900D01*
X007185Y018950D01*
X007183Y019000D01*
D11*
X008003Y017043D03*
X008003Y016256D03*
X008003Y015469D03*
X008003Y014681D03*
X008003Y013894D03*
X008003Y013106D03*
X008003Y012319D03*
X008003Y011531D03*
X008003Y010744D03*
X008003Y009957D03*
X016664Y009957D03*
X016664Y010744D03*
X016664Y011531D03*
X016664Y012319D03*
X016664Y013106D03*
X016664Y013894D03*
X016664Y014681D03*
X016664Y015469D03*
X016664Y016256D03*
X016664Y017043D03*
D12*
X017833Y018000D03*
X018833Y018000D03*
X020333Y019000D03*
X021333Y019000D03*
X021833Y014000D03*
X021833Y013000D03*
X018783Y013000D03*
X018883Y012000D03*
X018783Y011000D03*
D13*
X015833Y015646D03*
X015833Y016354D03*
X014833Y016146D03*
X014833Y016854D03*
D14*
X018883Y014000D03*
X021833Y012000D03*
D15*
X019188Y010000D03*
X018479Y010000D03*
X018979Y015500D03*
X019688Y015500D03*
D16*
X020333Y015500D01*
X021833Y014000D01*
X021833Y013000D02*
X021479Y013000D01*
X018979Y015500D01*
X019688Y015500D02*
X019688Y017146D01*
X019979Y017146D01*
X021333Y018500D01*
X021333Y019000D01*
X020333Y019000D02*
X016333Y019000D01*
X014833Y017500D01*
X014833Y016854D01*
X014833Y016146D02*
X014979Y016000D01*
X016333Y016000D01*
X016589Y016256D01*
X016664Y016256D01*
X017833Y015087D01*
X017833Y014000D01*
X018783Y013050D01*
X018783Y013000D01*
X018883Y014000D02*
X019883Y013000D01*
X021833Y013000D01*
X022833Y012000D01*
X022833Y010500D01*
X021833Y009500D01*
X018979Y009500D01*
X018479Y010000D01*
X019188Y010000D02*
X019833Y010000D01*
X021833Y012000D01*
X020833Y011000D01*
X018783Y011000D01*
X018833Y012000D02*
X017333Y013500D01*
X017333Y014799D01*
X016664Y015469D01*
X016010Y015469D01*
X015833Y015646D01*
X015833Y016354D02*
X015833Y017500D01*
X016333Y018000D01*
X017833Y018000D01*
X018833Y018000D02*
X019688Y017146D01*
X018144Y017043D02*
X019688Y015500D01*
X018144Y017043D02*
X016664Y017043D01*
X018833Y012000D02*
X018883Y012000D01*
M02*
