G75*
G70*
%OFA0B0*%
%FSLAX24Y24*%
%IPPOS*%
%LPD*%
%AMOC8*
5,1,8,0,0,1.08239X$1,22.5*
%
%ADD10C,0.0080*%
%ADD11C,0.0010*%
%ADD12C,0.0060*%
D10*
X018333Y010750D02*
X018583Y010500D01*
X019083Y010500D01*
X019333Y010750D01*
X019333Y011250D01*
X019083Y011500D01*
X019333Y011750D01*
X019333Y012250D01*
X019083Y012500D01*
X019333Y012750D01*
X019333Y013250D01*
X019083Y013500D01*
X019333Y013750D01*
X019333Y014250D01*
X019083Y014500D01*
X018583Y014500D01*
X018333Y014250D01*
X018333Y013750D01*
X018583Y013500D01*
X018333Y013250D01*
X018333Y012750D01*
X018583Y012500D01*
X018333Y012250D01*
X018333Y011750D01*
X018583Y011500D01*
X018333Y011250D01*
X018333Y010750D01*
X020833Y011000D02*
X020833Y015000D01*
X021083Y015000D01*
X021083Y011000D01*
X020833Y011000D01*
X021083Y011000D02*
X022583Y011000D01*
X022583Y015000D01*
X021083Y015000D01*
X017333Y017250D02*
X017333Y018750D01*
X019833Y018250D02*
X019833Y019750D01*
D11*
X019801Y018220D02*
X019873Y018274D01*
X019872Y018273D02*
X019915Y018220D01*
X019960Y018169D01*
X020009Y018121D01*
X020060Y018076D01*
X020114Y018033D01*
X020170Y017994D01*
X020228Y017958D01*
X020288Y017925D01*
X020349Y017896D01*
X020413Y017871D01*
X020477Y017849D01*
X020543Y017830D01*
X020610Y017816D01*
X020677Y017805D01*
X020745Y017798D01*
X020813Y017795D01*
X020882Y017796D01*
X020950Y017801D01*
X021018Y017809D01*
X021085Y017822D01*
X021151Y017838D01*
X021216Y017858D01*
X021281Y017881D01*
X021343Y017908D01*
X021404Y017939D01*
X021463Y017973D01*
X021521Y018010D01*
X021576Y018051D01*
X021628Y018095D01*
X021678Y018141D01*
X021725Y018190D01*
X021770Y018242D01*
X021811Y018296D01*
X021850Y018353D01*
X021885Y018412D01*
X021916Y018472D01*
X021944Y018534D01*
X021969Y018598D01*
X021990Y018663D01*
X022007Y018729D01*
X022021Y018796D01*
X022030Y018864D01*
X022036Y018932D01*
X022038Y019000D01*
X022036Y019068D01*
X022030Y019136D01*
X022021Y019204D01*
X022007Y019271D01*
X021990Y019337D01*
X021969Y019402D01*
X021944Y019466D01*
X021916Y019528D01*
X021885Y019588D01*
X021850Y019647D01*
X021811Y019704D01*
X021770Y019758D01*
X021725Y019810D01*
X021678Y019859D01*
X021628Y019905D01*
X021576Y019949D01*
X021521Y019990D01*
X021463Y020027D01*
X021404Y020061D01*
X021343Y020092D01*
X021281Y020119D01*
X021216Y020142D01*
X021151Y020162D01*
X021085Y020178D01*
X021018Y020191D01*
X020950Y020199D01*
X020882Y020204D01*
X020813Y020205D01*
X020745Y020202D01*
X020677Y020195D01*
X020610Y020184D01*
X020543Y020170D01*
X020477Y020151D01*
X020413Y020129D01*
X020349Y020104D01*
X020288Y020075D01*
X020228Y020042D01*
X020170Y020006D01*
X020114Y019967D01*
X020060Y019924D01*
X020009Y019879D01*
X019960Y019831D01*
X019915Y019780D01*
X019872Y019727D01*
X019801Y019780D01*
X019800Y019781D01*
X019844Y019836D01*
X019892Y019889D01*
X019942Y019940D01*
X019995Y019987D01*
X020050Y020031D01*
X020108Y020073D01*
X020168Y020111D01*
X020229Y020146D01*
X020293Y020177D01*
X020358Y020205D01*
X020425Y020229D01*
X020493Y020250D01*
X020562Y020266D01*
X020632Y020279D01*
X020702Y020288D01*
X020773Y020294D01*
X020844Y020295D01*
X020915Y020292D01*
X020986Y020286D01*
X021056Y020276D01*
X021125Y020262D01*
X021194Y020244D01*
X021262Y020222D01*
X021328Y020197D01*
X021393Y020168D01*
X021456Y020135D01*
X021517Y020099D01*
X021576Y020060D01*
X021633Y020018D01*
X021688Y019973D01*
X021740Y019924D01*
X021789Y019873D01*
X021836Y019820D01*
X021879Y019763D01*
X021919Y019705D01*
X021956Y019644D01*
X021990Y019582D01*
X022020Y019518D01*
X022047Y019452D01*
X022070Y019385D01*
X022089Y019316D01*
X022104Y019247D01*
X022116Y019177D01*
X022124Y019106D01*
X022128Y019035D01*
X022128Y018965D01*
X022124Y018894D01*
X022116Y018823D01*
X022104Y018753D01*
X022089Y018684D01*
X022070Y018615D01*
X022047Y018548D01*
X022020Y018482D01*
X021990Y018418D01*
X021956Y018356D01*
X021919Y018295D01*
X021879Y018237D01*
X021836Y018180D01*
X021789Y018127D01*
X021740Y018076D01*
X021688Y018027D01*
X021633Y017982D01*
X021576Y017940D01*
X021517Y017901D01*
X021456Y017865D01*
X021393Y017832D01*
X021328Y017803D01*
X021262Y017778D01*
X021194Y017756D01*
X021125Y017738D01*
X021056Y017724D01*
X020986Y017714D01*
X020915Y017708D01*
X020844Y017705D01*
X020773Y017706D01*
X020702Y017712D01*
X020632Y017721D01*
X020562Y017734D01*
X020493Y017750D01*
X020425Y017771D01*
X020358Y017795D01*
X020293Y017823D01*
X020229Y017854D01*
X020168Y017889D01*
X020108Y017927D01*
X020050Y017969D01*
X019995Y018013D01*
X019942Y018060D01*
X019892Y018111D01*
X019844Y018164D01*
X019800Y018219D01*
X019807Y018224D01*
X019852Y018169D01*
X019899Y018116D01*
X019950Y018065D01*
X020003Y018018D01*
X020059Y017973D01*
X020117Y017932D01*
X020177Y017894D01*
X020239Y017859D01*
X020303Y017828D01*
X020369Y017801D01*
X020436Y017777D01*
X020505Y017757D01*
X020574Y017740D01*
X020644Y017728D01*
X020715Y017719D01*
X020786Y017715D01*
X020857Y017714D01*
X020928Y017718D01*
X020999Y017725D01*
X021070Y017736D01*
X021139Y017751D01*
X021208Y017770D01*
X021276Y017793D01*
X021342Y017819D01*
X021407Y017849D01*
X021469Y017883D01*
X021530Y017919D01*
X021589Y017960D01*
X021646Y018003D01*
X021700Y018050D01*
X021751Y018099D01*
X021799Y018152D01*
X021845Y018206D01*
X021887Y018264D01*
X021926Y018323D01*
X021962Y018385D01*
X021995Y018448D01*
X022023Y018513D01*
X022049Y018580D01*
X022070Y018648D01*
X022088Y018717D01*
X022101Y018787D01*
X022111Y018858D01*
X022117Y018929D01*
X022119Y019000D01*
X022117Y019071D01*
X022111Y019142D01*
X022101Y019213D01*
X022088Y019283D01*
X022070Y019352D01*
X022049Y019420D01*
X022023Y019487D01*
X021995Y019552D01*
X021962Y019615D01*
X021926Y019677D01*
X021887Y019736D01*
X021845Y019794D01*
X021799Y019848D01*
X021751Y019901D01*
X021700Y019950D01*
X021646Y019997D01*
X021589Y020040D01*
X021530Y020081D01*
X021469Y020117D01*
X021407Y020151D01*
X021342Y020181D01*
X021276Y020207D01*
X021208Y020230D01*
X021139Y020249D01*
X021070Y020264D01*
X020999Y020275D01*
X020928Y020282D01*
X020857Y020286D01*
X020786Y020285D01*
X020715Y020281D01*
X020644Y020272D01*
X020574Y020260D01*
X020505Y020243D01*
X020436Y020223D01*
X020369Y020199D01*
X020303Y020172D01*
X020239Y020141D01*
X020177Y020106D01*
X020117Y020068D01*
X020059Y020027D01*
X020003Y019982D01*
X019950Y019935D01*
X019899Y019884D01*
X019852Y019831D01*
X019807Y019776D01*
X019814Y019770D01*
X019859Y019825D01*
X019906Y019878D01*
X019956Y019928D01*
X020009Y019975D01*
X020064Y020019D01*
X020122Y020061D01*
X020181Y020098D01*
X020243Y020133D01*
X020307Y020164D01*
X020372Y020191D01*
X020439Y020215D01*
X020507Y020235D01*
X020576Y020251D01*
X020645Y020263D01*
X020716Y020272D01*
X020786Y020276D01*
X020857Y020277D01*
X020928Y020273D01*
X020998Y020266D01*
X021068Y020255D01*
X021137Y020240D01*
X021205Y020221D01*
X021273Y020199D01*
X021338Y020173D01*
X021403Y020143D01*
X021465Y020110D01*
X021525Y020073D01*
X021584Y020033D01*
X021640Y019990D01*
X021694Y019944D01*
X021744Y019894D01*
X021793Y019843D01*
X021838Y019788D01*
X021880Y019731D01*
X021919Y019672D01*
X021954Y019611D01*
X021987Y019548D01*
X022015Y019483D01*
X022040Y019417D01*
X022061Y019349D01*
X022079Y019281D01*
X022092Y019211D01*
X022102Y019141D01*
X022108Y019071D01*
X022110Y019000D01*
X022108Y018929D01*
X022102Y018859D01*
X022092Y018789D01*
X022079Y018719D01*
X022061Y018651D01*
X022040Y018583D01*
X022015Y018517D01*
X021987Y018452D01*
X021954Y018389D01*
X021919Y018328D01*
X021880Y018269D01*
X021838Y018212D01*
X021793Y018157D01*
X021744Y018106D01*
X021694Y018056D01*
X021640Y018010D01*
X021584Y017967D01*
X021525Y017927D01*
X021465Y017890D01*
X021403Y017857D01*
X021338Y017827D01*
X021273Y017801D01*
X021205Y017779D01*
X021137Y017760D01*
X021068Y017745D01*
X020998Y017734D01*
X020928Y017727D01*
X020857Y017723D01*
X020786Y017724D01*
X020716Y017728D01*
X020645Y017737D01*
X020576Y017749D01*
X020507Y017765D01*
X020439Y017785D01*
X020372Y017809D01*
X020307Y017836D01*
X020243Y017867D01*
X020181Y017902D01*
X020122Y017939D01*
X020064Y017981D01*
X020009Y018025D01*
X019956Y018072D01*
X019906Y018122D01*
X019859Y018175D01*
X019814Y018230D01*
X019822Y018235D01*
X019866Y018180D01*
X019914Y018127D01*
X019964Y018077D01*
X020017Y018029D01*
X020073Y017985D01*
X020131Y017944D01*
X020191Y017907D01*
X020253Y017872D01*
X020317Y017842D01*
X020383Y017815D01*
X020450Y017791D01*
X020518Y017772D01*
X020588Y017756D01*
X020658Y017744D01*
X020728Y017736D01*
X020799Y017732D01*
X020870Y017733D01*
X020941Y017737D01*
X021012Y017745D01*
X021082Y017757D01*
X021151Y017773D01*
X021219Y017792D01*
X021287Y017816D01*
X021352Y017843D01*
X021416Y017874D01*
X021478Y017908D01*
X021538Y017946D01*
X021596Y017988D01*
X021652Y018032D01*
X021705Y018079D01*
X021755Y018130D01*
X021802Y018183D01*
X021847Y018238D01*
X021888Y018296D01*
X021925Y018356D01*
X021960Y018419D01*
X021991Y018483D01*
X022018Y018548D01*
X022041Y018615D01*
X022061Y018684D01*
X022077Y018753D01*
X022089Y018823D01*
X022097Y018894D01*
X022101Y018964D01*
X022101Y019036D01*
X022097Y019106D01*
X022089Y019177D01*
X022077Y019247D01*
X022061Y019316D01*
X022041Y019385D01*
X022018Y019452D01*
X021991Y019517D01*
X021960Y019581D01*
X021925Y019644D01*
X021888Y019704D01*
X021847Y019762D01*
X021802Y019817D01*
X021755Y019870D01*
X021705Y019921D01*
X021652Y019968D01*
X021596Y020012D01*
X021538Y020054D01*
X021478Y020092D01*
X021416Y020126D01*
X021352Y020157D01*
X021287Y020184D01*
X021219Y020208D01*
X021151Y020227D01*
X021082Y020243D01*
X021012Y020255D01*
X020941Y020263D01*
X020870Y020267D01*
X020799Y020268D01*
X020728Y020264D01*
X020658Y020256D01*
X020588Y020244D01*
X020518Y020228D01*
X020450Y020209D01*
X020383Y020185D01*
X020317Y020158D01*
X020253Y020128D01*
X020191Y020093D01*
X020131Y020056D01*
X020073Y020015D01*
X020017Y019971D01*
X019964Y019923D01*
X019914Y019873D01*
X019866Y019820D01*
X019822Y019765D01*
X019829Y019759D01*
X019873Y019814D01*
X019920Y019867D01*
X019970Y019917D01*
X020023Y019964D01*
X020078Y020008D01*
X020136Y020048D01*
X020195Y020086D01*
X020257Y020120D01*
X020321Y020150D01*
X020386Y020177D01*
X020453Y020200D01*
X020521Y020220D01*
X020589Y020235D01*
X020659Y020247D01*
X020729Y020255D01*
X020800Y020259D01*
X020870Y020258D01*
X020941Y020254D01*
X021011Y020246D01*
X021080Y020234D01*
X021149Y020219D01*
X021217Y020199D01*
X021283Y020176D01*
X021348Y020149D01*
X021412Y020118D01*
X021474Y020084D01*
X021533Y020046D01*
X021591Y020005D01*
X021646Y019961D01*
X021699Y019914D01*
X021748Y019864D01*
X021795Y019812D01*
X021839Y019756D01*
X021880Y019699D01*
X021918Y019639D01*
X021952Y019577D01*
X021982Y019514D01*
X022009Y019449D01*
X022033Y019382D01*
X022052Y019314D01*
X022068Y019245D01*
X022080Y019176D01*
X022088Y019106D01*
X022092Y019035D01*
X022092Y018965D01*
X022088Y018894D01*
X022080Y018824D01*
X022068Y018755D01*
X022052Y018686D01*
X022033Y018618D01*
X022009Y018551D01*
X021982Y018486D01*
X021952Y018423D01*
X021918Y018361D01*
X021880Y018301D01*
X021839Y018244D01*
X021795Y018188D01*
X021748Y018136D01*
X021699Y018086D01*
X021646Y018039D01*
X021591Y017995D01*
X021533Y017954D01*
X021474Y017916D01*
X021412Y017882D01*
X021348Y017851D01*
X021283Y017824D01*
X021217Y017801D01*
X021149Y017781D01*
X021080Y017766D01*
X021011Y017754D01*
X020941Y017746D01*
X020870Y017742D01*
X020800Y017741D01*
X020729Y017745D01*
X020659Y017753D01*
X020589Y017765D01*
X020521Y017780D01*
X020453Y017800D01*
X020386Y017823D01*
X020321Y017850D01*
X020257Y017880D01*
X020195Y017914D01*
X020136Y017952D01*
X020078Y017992D01*
X020023Y018036D01*
X019970Y018083D01*
X019920Y018133D01*
X019873Y018186D01*
X019829Y018241D01*
X019836Y018246D01*
X019880Y018191D01*
X019927Y018139D01*
X019976Y018090D01*
X020029Y018043D01*
X020083Y018000D01*
X020141Y017959D01*
X020200Y017922D01*
X020261Y017888D01*
X020325Y017858D01*
X020389Y017831D01*
X020456Y017808D01*
X020523Y017789D01*
X020591Y017774D01*
X020660Y017762D01*
X020730Y017754D01*
X020800Y017750D01*
X020870Y017751D01*
X020940Y017755D01*
X021009Y017763D01*
X021078Y017774D01*
X021147Y017790D01*
X021214Y017809D01*
X021280Y017833D01*
X021345Y017860D01*
X021408Y017890D01*
X021469Y017924D01*
X021528Y017961D01*
X021586Y018002D01*
X021640Y018046D01*
X021692Y018092D01*
X021742Y018142D01*
X021789Y018194D01*
X021832Y018249D01*
X021873Y018306D01*
X021910Y018365D01*
X021944Y018427D01*
X021974Y018490D01*
X022001Y018555D01*
X022024Y018621D01*
X022043Y018688D01*
X022059Y018756D01*
X022071Y018825D01*
X022079Y018895D01*
X022083Y018965D01*
X022083Y019035D01*
X022079Y019105D01*
X022071Y019175D01*
X022059Y019244D01*
X022043Y019312D01*
X022024Y019379D01*
X022001Y019445D01*
X021974Y019510D01*
X021944Y019573D01*
X021910Y019635D01*
X021873Y019694D01*
X021832Y019751D01*
X021789Y019806D01*
X021742Y019858D01*
X021692Y019908D01*
X021640Y019954D01*
X021586Y019998D01*
X021528Y020039D01*
X021469Y020076D01*
X021408Y020110D01*
X021345Y020140D01*
X021280Y020167D01*
X021214Y020191D01*
X021147Y020210D01*
X021078Y020226D01*
X021009Y020237D01*
X020940Y020245D01*
X020870Y020249D01*
X020800Y020250D01*
X020730Y020246D01*
X020660Y020238D01*
X020591Y020226D01*
X020523Y020211D01*
X020456Y020192D01*
X020389Y020169D01*
X020325Y020142D01*
X020261Y020112D01*
X020200Y020078D01*
X020141Y020041D01*
X020083Y020000D01*
X020029Y019957D01*
X019976Y019910D01*
X019927Y019861D01*
X019880Y019809D01*
X019836Y019754D01*
X019843Y019749D01*
X019887Y019803D01*
X019933Y019855D01*
X019982Y019904D01*
X020034Y019950D01*
X020089Y019993D01*
X020146Y020033D01*
X020205Y020070D01*
X020266Y020104D01*
X020328Y020134D01*
X020393Y020160D01*
X020458Y020183D01*
X020525Y020202D01*
X020593Y020218D01*
X020662Y020229D01*
X020731Y020237D01*
X020800Y020241D01*
X020870Y020240D01*
X020939Y020236D01*
X021008Y020229D01*
X021077Y020217D01*
X021144Y020201D01*
X021211Y020182D01*
X021277Y020159D01*
X021341Y020132D01*
X021404Y020102D01*
X021465Y020068D01*
X021523Y020031D01*
X021580Y019991D01*
X021634Y019948D01*
X021686Y019901D01*
X021735Y019852D01*
X021782Y019800D01*
X021825Y019746D01*
X021865Y019689D01*
X021902Y019630D01*
X021936Y019569D01*
X021966Y019506D01*
X021993Y019442D01*
X022016Y019377D01*
X022035Y019310D01*
X022050Y019242D01*
X022062Y019173D01*
X022070Y019104D01*
X022074Y019035D01*
X022074Y018965D01*
X022070Y018896D01*
X022062Y018827D01*
X022050Y018758D01*
X022035Y018690D01*
X022016Y018623D01*
X021993Y018558D01*
X021966Y018494D01*
X021936Y018431D01*
X021902Y018370D01*
X021865Y018311D01*
X021825Y018254D01*
X021782Y018200D01*
X021735Y018148D01*
X021686Y018099D01*
X021634Y018052D01*
X021580Y018009D01*
X021523Y017969D01*
X021465Y017932D01*
X021404Y017898D01*
X021341Y017868D01*
X021277Y017841D01*
X021211Y017818D01*
X021144Y017799D01*
X021077Y017783D01*
X021008Y017771D01*
X020939Y017764D01*
X020870Y017760D01*
X020800Y017759D01*
X020731Y017763D01*
X020662Y017771D01*
X020593Y017782D01*
X020525Y017798D01*
X020458Y017817D01*
X020393Y017840D01*
X020328Y017866D01*
X020266Y017896D01*
X020205Y017930D01*
X020146Y017967D01*
X020089Y018007D01*
X020034Y018050D01*
X019982Y018096D01*
X019933Y018145D01*
X019887Y018197D01*
X019843Y018251D01*
X019850Y018257D01*
X019894Y018203D01*
X019940Y018152D01*
X019989Y018103D01*
X020040Y018057D01*
X020094Y018014D01*
X020151Y017974D01*
X020209Y017938D01*
X020270Y017904D01*
X020332Y017874D01*
X020396Y017848D01*
X020461Y017826D01*
X020527Y017807D01*
X020595Y017791D01*
X020663Y017780D01*
X020731Y017772D01*
X020800Y017768D01*
X020869Y017769D01*
X020938Y017773D01*
X021007Y017780D01*
X021075Y017792D01*
X021142Y017807D01*
X021209Y017827D01*
X021274Y017850D01*
X021337Y017876D01*
X021400Y017906D01*
X021460Y017939D01*
X021518Y017976D01*
X021575Y018016D01*
X021629Y018059D01*
X021680Y018105D01*
X021729Y018154D01*
X021775Y018206D01*
X021818Y018260D01*
X021858Y018316D01*
X021894Y018375D01*
X021928Y018435D01*
X021958Y018497D01*
X021984Y018561D01*
X022007Y018626D01*
X022026Y018693D01*
X022041Y018760D01*
X022053Y018828D01*
X022061Y018897D01*
X022065Y018965D01*
X022065Y019035D01*
X022061Y019103D01*
X022053Y019172D01*
X022041Y019240D01*
X022026Y019307D01*
X022007Y019374D01*
X021984Y019439D01*
X021958Y019503D01*
X021928Y019565D01*
X021894Y019625D01*
X021858Y019684D01*
X021818Y019740D01*
X021775Y019794D01*
X021729Y019846D01*
X021680Y019895D01*
X021629Y019941D01*
X021575Y019984D01*
X021518Y020024D01*
X021460Y020061D01*
X021400Y020094D01*
X021337Y020124D01*
X021274Y020150D01*
X021209Y020173D01*
X021142Y020193D01*
X021075Y020208D01*
X021007Y020220D01*
X020938Y020227D01*
X020869Y020231D01*
X020800Y020232D01*
X020731Y020228D01*
X020663Y020220D01*
X020595Y020209D01*
X020527Y020193D01*
X020461Y020174D01*
X020396Y020152D01*
X020332Y020126D01*
X020270Y020096D01*
X020209Y020062D01*
X020151Y020026D01*
X020094Y019986D01*
X020040Y019943D01*
X019989Y019897D01*
X019940Y019848D01*
X019894Y019797D01*
X019850Y019743D01*
X019858Y019738D01*
X019901Y019792D01*
X019947Y019843D01*
X019997Y019892D01*
X020048Y019938D01*
X020103Y019981D01*
X020160Y020021D01*
X020218Y020057D01*
X020279Y020091D01*
X020342Y020120D01*
X020406Y020146D01*
X020472Y020168D01*
X020539Y020187D01*
X020606Y020202D01*
X020675Y020213D01*
X020744Y020220D01*
X020813Y020223D01*
X020882Y020222D01*
X020952Y020217D01*
X021020Y020209D01*
X021088Y020196D01*
X021156Y020180D01*
X021222Y020159D01*
X021287Y020136D01*
X021351Y020108D01*
X021413Y020077D01*
X021473Y020042D01*
X021531Y020004D01*
X021587Y019963D01*
X021640Y019919D01*
X021691Y019872D01*
X021739Y019822D01*
X021784Y019769D01*
X021826Y019714D01*
X021865Y019657D01*
X021900Y019597D01*
X021932Y019536D01*
X021961Y019473D01*
X021986Y019408D01*
X022007Y019342D01*
X022025Y019275D01*
X022038Y019207D01*
X022048Y019138D01*
X022054Y019069D01*
X022056Y019000D01*
X022054Y018931D01*
X022048Y018862D01*
X022038Y018793D01*
X022025Y018725D01*
X022007Y018658D01*
X021986Y018592D01*
X021961Y018527D01*
X021932Y018464D01*
X021900Y018403D01*
X021865Y018343D01*
X021826Y018286D01*
X021784Y018231D01*
X021739Y018178D01*
X021691Y018128D01*
X021640Y018081D01*
X021587Y018037D01*
X021531Y017996D01*
X021473Y017958D01*
X021413Y017923D01*
X021351Y017892D01*
X021287Y017864D01*
X021222Y017841D01*
X021156Y017820D01*
X021088Y017804D01*
X021020Y017791D01*
X020952Y017783D01*
X020882Y017778D01*
X020813Y017777D01*
X020744Y017780D01*
X020675Y017787D01*
X020606Y017798D01*
X020539Y017813D01*
X020472Y017832D01*
X020406Y017854D01*
X020342Y017880D01*
X020279Y017909D01*
X020218Y017943D01*
X020160Y017979D01*
X020103Y018019D01*
X020048Y018062D01*
X019997Y018108D01*
X019947Y018157D01*
X019901Y018208D01*
X019858Y018262D01*
X019865Y018268D01*
X019908Y018214D01*
X019954Y018163D01*
X020003Y018114D01*
X020054Y018069D01*
X020108Y018026D01*
X020165Y017987D01*
X020223Y017950D01*
X020283Y017917D01*
X020346Y017888D01*
X020409Y017862D01*
X020475Y017840D01*
X020541Y017822D01*
X020608Y017807D01*
X020676Y017796D01*
X020745Y017789D01*
X020813Y017786D01*
X020882Y017787D01*
X020951Y017792D01*
X021019Y017800D01*
X021087Y017813D01*
X021153Y017829D01*
X021219Y017849D01*
X021284Y017873D01*
X021347Y017900D01*
X021408Y017931D01*
X021468Y017965D01*
X021526Y018003D01*
X021581Y018044D01*
X021634Y018088D01*
X021684Y018135D01*
X021732Y018184D01*
X021777Y018236D01*
X021819Y018291D01*
X021857Y018348D01*
X021892Y018407D01*
X021924Y018468D01*
X021953Y018531D01*
X021977Y018595D01*
X021999Y018661D01*
X022016Y018727D01*
X022029Y018795D01*
X022039Y018863D01*
X022045Y018931D01*
X022047Y019000D01*
X022045Y019069D01*
X022039Y019137D01*
X022029Y019205D01*
X022016Y019273D01*
X021999Y019339D01*
X021977Y019405D01*
X021953Y019469D01*
X021924Y019532D01*
X021892Y019593D01*
X021857Y019652D01*
X021819Y019709D01*
X021777Y019764D01*
X021732Y019816D01*
X021684Y019865D01*
X021634Y019912D01*
X021581Y019956D01*
X021526Y019997D01*
X021468Y020035D01*
X021408Y020069D01*
X021347Y020100D01*
X021284Y020127D01*
X021219Y020151D01*
X021153Y020171D01*
X021087Y020187D01*
X021019Y020200D01*
X020951Y020208D01*
X020882Y020213D01*
X020813Y020214D01*
X020745Y020211D01*
X020676Y020204D01*
X020608Y020193D01*
X020541Y020178D01*
X020475Y020160D01*
X020409Y020138D01*
X020346Y020112D01*
X020283Y020083D01*
X020223Y020050D01*
X020165Y020013D01*
X020108Y019974D01*
X020054Y019931D01*
X020003Y019886D01*
X019954Y019837D01*
X019908Y019786D01*
X019865Y019732D01*
X017301Y017220D02*
X017373Y017274D01*
X017372Y017273D02*
X017415Y017220D01*
X017460Y017169D01*
X017509Y017121D01*
X017560Y017076D01*
X017614Y017033D01*
X017670Y016994D01*
X017728Y016958D01*
X017788Y016925D01*
X017849Y016896D01*
X017913Y016871D01*
X017977Y016849D01*
X018043Y016830D01*
X018110Y016816D01*
X018177Y016805D01*
X018245Y016798D01*
X018313Y016795D01*
X018382Y016796D01*
X018450Y016801D01*
X018518Y016809D01*
X018585Y016822D01*
X018651Y016838D01*
X018716Y016858D01*
X018781Y016881D01*
X018843Y016908D01*
X018904Y016939D01*
X018963Y016973D01*
X019021Y017010D01*
X019076Y017051D01*
X019128Y017095D01*
X019178Y017141D01*
X019225Y017190D01*
X019270Y017242D01*
X019311Y017296D01*
X019350Y017353D01*
X019385Y017412D01*
X019416Y017472D01*
X019444Y017534D01*
X019469Y017598D01*
X019490Y017663D01*
X019507Y017729D01*
X019521Y017796D01*
X019530Y017864D01*
X019536Y017932D01*
X019538Y018000D01*
X019536Y018068D01*
X019530Y018136D01*
X019521Y018204D01*
X019507Y018271D01*
X019490Y018337D01*
X019469Y018402D01*
X019444Y018466D01*
X019416Y018528D01*
X019385Y018588D01*
X019350Y018647D01*
X019311Y018704D01*
X019270Y018758D01*
X019225Y018810D01*
X019178Y018859D01*
X019128Y018905D01*
X019076Y018949D01*
X019021Y018990D01*
X018963Y019027D01*
X018904Y019061D01*
X018843Y019092D01*
X018781Y019119D01*
X018716Y019142D01*
X018651Y019162D01*
X018585Y019178D01*
X018518Y019191D01*
X018450Y019199D01*
X018382Y019204D01*
X018313Y019205D01*
X018245Y019202D01*
X018177Y019195D01*
X018110Y019184D01*
X018043Y019170D01*
X017977Y019151D01*
X017913Y019129D01*
X017849Y019104D01*
X017788Y019075D01*
X017728Y019042D01*
X017670Y019006D01*
X017614Y018967D01*
X017560Y018924D01*
X017509Y018879D01*
X017460Y018831D01*
X017415Y018780D01*
X017372Y018727D01*
X017301Y018780D01*
X017300Y018781D01*
X017344Y018836D01*
X017392Y018889D01*
X017442Y018940D01*
X017495Y018987D01*
X017550Y019031D01*
X017608Y019073D01*
X017668Y019111D01*
X017729Y019146D01*
X017793Y019177D01*
X017858Y019205D01*
X017925Y019229D01*
X017993Y019250D01*
X018062Y019266D01*
X018132Y019279D01*
X018202Y019288D01*
X018273Y019294D01*
X018344Y019295D01*
X018415Y019292D01*
X018486Y019286D01*
X018556Y019276D01*
X018625Y019262D01*
X018694Y019244D01*
X018762Y019222D01*
X018828Y019197D01*
X018893Y019168D01*
X018956Y019135D01*
X019017Y019099D01*
X019076Y019060D01*
X019133Y019018D01*
X019188Y018973D01*
X019240Y018924D01*
X019289Y018873D01*
X019336Y018820D01*
X019379Y018763D01*
X019419Y018705D01*
X019456Y018644D01*
X019490Y018582D01*
X019520Y018518D01*
X019547Y018452D01*
X019570Y018385D01*
X019589Y018316D01*
X019604Y018247D01*
X019616Y018177D01*
X019624Y018106D01*
X019628Y018035D01*
X019628Y017965D01*
X019624Y017894D01*
X019616Y017823D01*
X019604Y017753D01*
X019589Y017684D01*
X019570Y017615D01*
X019547Y017548D01*
X019520Y017482D01*
X019490Y017418D01*
X019456Y017356D01*
X019419Y017295D01*
X019379Y017237D01*
X019336Y017180D01*
X019289Y017127D01*
X019240Y017076D01*
X019188Y017027D01*
X019133Y016982D01*
X019076Y016940D01*
X019017Y016901D01*
X018956Y016865D01*
X018893Y016832D01*
X018828Y016803D01*
X018762Y016778D01*
X018694Y016756D01*
X018625Y016738D01*
X018556Y016724D01*
X018486Y016714D01*
X018415Y016708D01*
X018344Y016705D01*
X018273Y016706D01*
X018202Y016712D01*
X018132Y016721D01*
X018062Y016734D01*
X017993Y016750D01*
X017925Y016771D01*
X017858Y016795D01*
X017793Y016823D01*
X017729Y016854D01*
X017668Y016889D01*
X017608Y016927D01*
X017550Y016969D01*
X017495Y017013D01*
X017442Y017060D01*
X017392Y017111D01*
X017344Y017164D01*
X017300Y017219D01*
X017307Y017224D01*
X017352Y017169D01*
X017399Y017116D01*
X017450Y017065D01*
X017503Y017018D01*
X017559Y016973D01*
X017617Y016932D01*
X017677Y016894D01*
X017739Y016859D01*
X017803Y016828D01*
X017869Y016801D01*
X017936Y016777D01*
X018005Y016757D01*
X018074Y016740D01*
X018144Y016728D01*
X018215Y016719D01*
X018286Y016715D01*
X018357Y016714D01*
X018428Y016718D01*
X018499Y016725D01*
X018570Y016736D01*
X018639Y016751D01*
X018708Y016770D01*
X018776Y016793D01*
X018842Y016819D01*
X018907Y016849D01*
X018969Y016883D01*
X019030Y016919D01*
X019089Y016960D01*
X019146Y017003D01*
X019200Y017050D01*
X019251Y017099D01*
X019299Y017152D01*
X019345Y017206D01*
X019387Y017264D01*
X019426Y017323D01*
X019462Y017385D01*
X019495Y017448D01*
X019523Y017513D01*
X019549Y017580D01*
X019570Y017648D01*
X019588Y017717D01*
X019601Y017787D01*
X019611Y017858D01*
X019617Y017929D01*
X019619Y018000D01*
X019617Y018071D01*
X019611Y018142D01*
X019601Y018213D01*
X019588Y018283D01*
X019570Y018352D01*
X019549Y018420D01*
X019523Y018487D01*
X019495Y018552D01*
X019462Y018615D01*
X019426Y018677D01*
X019387Y018736D01*
X019345Y018794D01*
X019299Y018848D01*
X019251Y018901D01*
X019200Y018950D01*
X019146Y018997D01*
X019089Y019040D01*
X019030Y019081D01*
X018969Y019117D01*
X018907Y019151D01*
X018842Y019181D01*
X018776Y019207D01*
X018708Y019230D01*
X018639Y019249D01*
X018570Y019264D01*
X018499Y019275D01*
X018428Y019282D01*
X018357Y019286D01*
X018286Y019285D01*
X018215Y019281D01*
X018144Y019272D01*
X018074Y019260D01*
X018005Y019243D01*
X017936Y019223D01*
X017869Y019199D01*
X017803Y019172D01*
X017739Y019141D01*
X017677Y019106D01*
X017617Y019068D01*
X017559Y019027D01*
X017503Y018982D01*
X017450Y018935D01*
X017399Y018884D01*
X017352Y018831D01*
X017307Y018776D01*
X017314Y018770D01*
X017359Y018825D01*
X017406Y018878D01*
X017456Y018928D01*
X017509Y018975D01*
X017564Y019019D01*
X017622Y019061D01*
X017681Y019098D01*
X017743Y019133D01*
X017807Y019164D01*
X017872Y019191D01*
X017939Y019215D01*
X018007Y019235D01*
X018076Y019251D01*
X018145Y019263D01*
X018216Y019272D01*
X018286Y019276D01*
X018357Y019277D01*
X018428Y019273D01*
X018498Y019266D01*
X018568Y019255D01*
X018637Y019240D01*
X018705Y019221D01*
X018773Y019199D01*
X018838Y019173D01*
X018903Y019143D01*
X018965Y019110D01*
X019025Y019073D01*
X019084Y019033D01*
X019140Y018990D01*
X019194Y018944D01*
X019244Y018894D01*
X019293Y018843D01*
X019338Y018788D01*
X019380Y018731D01*
X019419Y018672D01*
X019454Y018611D01*
X019487Y018548D01*
X019515Y018483D01*
X019540Y018417D01*
X019561Y018349D01*
X019579Y018281D01*
X019592Y018211D01*
X019602Y018141D01*
X019608Y018071D01*
X019610Y018000D01*
X019608Y017929D01*
X019602Y017859D01*
X019592Y017789D01*
X019579Y017719D01*
X019561Y017651D01*
X019540Y017583D01*
X019515Y017517D01*
X019487Y017452D01*
X019454Y017389D01*
X019419Y017328D01*
X019380Y017269D01*
X019338Y017212D01*
X019293Y017157D01*
X019244Y017106D01*
X019194Y017056D01*
X019140Y017010D01*
X019084Y016967D01*
X019025Y016927D01*
X018965Y016890D01*
X018903Y016857D01*
X018838Y016827D01*
X018773Y016801D01*
X018705Y016779D01*
X018637Y016760D01*
X018568Y016745D01*
X018498Y016734D01*
X018428Y016727D01*
X018357Y016723D01*
X018286Y016724D01*
X018216Y016728D01*
X018145Y016737D01*
X018076Y016749D01*
X018007Y016765D01*
X017939Y016785D01*
X017872Y016809D01*
X017807Y016836D01*
X017743Y016867D01*
X017681Y016902D01*
X017622Y016939D01*
X017564Y016981D01*
X017509Y017025D01*
X017456Y017072D01*
X017406Y017122D01*
X017359Y017175D01*
X017314Y017230D01*
X017322Y017235D01*
X017366Y017180D01*
X017414Y017127D01*
X017464Y017077D01*
X017517Y017029D01*
X017573Y016985D01*
X017631Y016944D01*
X017691Y016907D01*
X017753Y016872D01*
X017817Y016842D01*
X017883Y016815D01*
X017950Y016791D01*
X018018Y016772D01*
X018088Y016756D01*
X018158Y016744D01*
X018228Y016736D01*
X018299Y016732D01*
X018370Y016733D01*
X018441Y016737D01*
X018512Y016745D01*
X018582Y016757D01*
X018651Y016773D01*
X018719Y016792D01*
X018787Y016816D01*
X018852Y016843D01*
X018916Y016874D01*
X018978Y016908D01*
X019038Y016946D01*
X019096Y016988D01*
X019152Y017032D01*
X019205Y017079D01*
X019255Y017130D01*
X019302Y017183D01*
X019347Y017238D01*
X019388Y017296D01*
X019425Y017356D01*
X019460Y017419D01*
X019491Y017483D01*
X019518Y017548D01*
X019541Y017615D01*
X019561Y017684D01*
X019577Y017753D01*
X019589Y017823D01*
X019597Y017894D01*
X019601Y017964D01*
X019601Y018036D01*
X019597Y018106D01*
X019589Y018177D01*
X019577Y018247D01*
X019561Y018316D01*
X019541Y018385D01*
X019518Y018452D01*
X019491Y018517D01*
X019460Y018581D01*
X019425Y018644D01*
X019388Y018704D01*
X019347Y018762D01*
X019302Y018817D01*
X019255Y018870D01*
X019205Y018921D01*
X019152Y018968D01*
X019096Y019012D01*
X019038Y019054D01*
X018978Y019092D01*
X018916Y019126D01*
X018852Y019157D01*
X018787Y019184D01*
X018719Y019208D01*
X018651Y019227D01*
X018582Y019243D01*
X018512Y019255D01*
X018441Y019263D01*
X018370Y019267D01*
X018299Y019268D01*
X018228Y019264D01*
X018158Y019256D01*
X018088Y019244D01*
X018018Y019228D01*
X017950Y019209D01*
X017883Y019185D01*
X017817Y019158D01*
X017753Y019128D01*
X017691Y019093D01*
X017631Y019056D01*
X017573Y019015D01*
X017517Y018971D01*
X017464Y018923D01*
X017414Y018873D01*
X017366Y018820D01*
X017322Y018765D01*
X017329Y018759D01*
X017373Y018814D01*
X017420Y018867D01*
X017470Y018917D01*
X017523Y018964D01*
X017578Y019008D01*
X017636Y019048D01*
X017695Y019086D01*
X017757Y019120D01*
X017821Y019150D01*
X017886Y019177D01*
X017953Y019200D01*
X018021Y019220D01*
X018089Y019235D01*
X018159Y019247D01*
X018229Y019255D01*
X018300Y019259D01*
X018370Y019258D01*
X018441Y019254D01*
X018511Y019246D01*
X018580Y019234D01*
X018649Y019219D01*
X018717Y019199D01*
X018783Y019176D01*
X018848Y019149D01*
X018912Y019118D01*
X018974Y019084D01*
X019033Y019046D01*
X019091Y019005D01*
X019146Y018961D01*
X019199Y018914D01*
X019248Y018864D01*
X019295Y018812D01*
X019339Y018756D01*
X019380Y018699D01*
X019418Y018639D01*
X019452Y018577D01*
X019482Y018514D01*
X019509Y018449D01*
X019533Y018382D01*
X019552Y018314D01*
X019568Y018245D01*
X019580Y018176D01*
X019588Y018106D01*
X019592Y018035D01*
X019592Y017965D01*
X019588Y017894D01*
X019580Y017824D01*
X019568Y017755D01*
X019552Y017686D01*
X019533Y017618D01*
X019509Y017551D01*
X019482Y017486D01*
X019452Y017423D01*
X019418Y017361D01*
X019380Y017301D01*
X019339Y017244D01*
X019295Y017188D01*
X019248Y017136D01*
X019199Y017086D01*
X019146Y017039D01*
X019091Y016995D01*
X019033Y016954D01*
X018974Y016916D01*
X018912Y016882D01*
X018848Y016851D01*
X018783Y016824D01*
X018717Y016801D01*
X018649Y016781D01*
X018580Y016766D01*
X018511Y016754D01*
X018441Y016746D01*
X018370Y016742D01*
X018300Y016741D01*
X018229Y016745D01*
X018159Y016753D01*
X018089Y016765D01*
X018021Y016780D01*
X017953Y016800D01*
X017886Y016823D01*
X017821Y016850D01*
X017757Y016880D01*
X017695Y016914D01*
X017636Y016952D01*
X017578Y016992D01*
X017523Y017036D01*
X017470Y017083D01*
X017420Y017133D01*
X017373Y017186D01*
X017329Y017241D01*
X017336Y017246D01*
X017380Y017191D01*
X017427Y017139D01*
X017476Y017090D01*
X017529Y017043D01*
X017583Y017000D01*
X017641Y016959D01*
X017700Y016922D01*
X017761Y016888D01*
X017825Y016858D01*
X017889Y016831D01*
X017956Y016808D01*
X018023Y016789D01*
X018091Y016774D01*
X018160Y016762D01*
X018230Y016754D01*
X018300Y016750D01*
X018370Y016751D01*
X018440Y016755D01*
X018509Y016763D01*
X018578Y016774D01*
X018647Y016790D01*
X018714Y016809D01*
X018780Y016833D01*
X018845Y016860D01*
X018908Y016890D01*
X018969Y016924D01*
X019028Y016961D01*
X019086Y017002D01*
X019140Y017046D01*
X019192Y017092D01*
X019242Y017142D01*
X019289Y017194D01*
X019332Y017249D01*
X019373Y017306D01*
X019410Y017365D01*
X019444Y017427D01*
X019474Y017490D01*
X019501Y017555D01*
X019524Y017621D01*
X019543Y017688D01*
X019559Y017756D01*
X019571Y017825D01*
X019579Y017895D01*
X019583Y017965D01*
X019583Y018035D01*
X019579Y018105D01*
X019571Y018175D01*
X019559Y018244D01*
X019543Y018312D01*
X019524Y018379D01*
X019501Y018445D01*
X019474Y018510D01*
X019444Y018573D01*
X019410Y018635D01*
X019373Y018694D01*
X019332Y018751D01*
X019289Y018806D01*
X019242Y018858D01*
X019192Y018908D01*
X019140Y018954D01*
X019086Y018998D01*
X019028Y019039D01*
X018969Y019076D01*
X018908Y019110D01*
X018845Y019140D01*
X018780Y019167D01*
X018714Y019191D01*
X018647Y019210D01*
X018578Y019226D01*
X018509Y019237D01*
X018440Y019245D01*
X018370Y019249D01*
X018300Y019250D01*
X018230Y019246D01*
X018160Y019238D01*
X018091Y019226D01*
X018023Y019211D01*
X017956Y019192D01*
X017889Y019169D01*
X017825Y019142D01*
X017761Y019112D01*
X017700Y019078D01*
X017641Y019041D01*
X017583Y019000D01*
X017529Y018957D01*
X017476Y018910D01*
X017427Y018861D01*
X017380Y018809D01*
X017336Y018754D01*
X017343Y018749D01*
X017387Y018803D01*
X017433Y018855D01*
X017482Y018904D01*
X017534Y018950D01*
X017589Y018993D01*
X017646Y019033D01*
X017705Y019070D01*
X017766Y019104D01*
X017828Y019134D01*
X017893Y019160D01*
X017958Y019183D01*
X018025Y019202D01*
X018093Y019218D01*
X018162Y019229D01*
X018231Y019237D01*
X018300Y019241D01*
X018370Y019240D01*
X018439Y019236D01*
X018508Y019229D01*
X018577Y019217D01*
X018644Y019201D01*
X018711Y019182D01*
X018777Y019159D01*
X018841Y019132D01*
X018904Y019102D01*
X018965Y019068D01*
X019023Y019031D01*
X019080Y018991D01*
X019134Y018948D01*
X019186Y018901D01*
X019235Y018852D01*
X019282Y018800D01*
X019325Y018746D01*
X019365Y018689D01*
X019402Y018630D01*
X019436Y018569D01*
X019466Y018506D01*
X019493Y018442D01*
X019516Y018377D01*
X019535Y018310D01*
X019550Y018242D01*
X019562Y018173D01*
X019570Y018104D01*
X019574Y018035D01*
X019574Y017965D01*
X019570Y017896D01*
X019562Y017827D01*
X019550Y017758D01*
X019535Y017690D01*
X019516Y017623D01*
X019493Y017558D01*
X019466Y017494D01*
X019436Y017431D01*
X019402Y017370D01*
X019365Y017311D01*
X019325Y017254D01*
X019282Y017200D01*
X019235Y017148D01*
X019186Y017099D01*
X019134Y017052D01*
X019080Y017009D01*
X019023Y016969D01*
X018965Y016932D01*
X018904Y016898D01*
X018841Y016868D01*
X018777Y016841D01*
X018711Y016818D01*
X018644Y016799D01*
X018577Y016783D01*
X018508Y016771D01*
X018439Y016764D01*
X018370Y016760D01*
X018300Y016759D01*
X018231Y016763D01*
X018162Y016771D01*
X018093Y016782D01*
X018025Y016798D01*
X017958Y016817D01*
X017893Y016840D01*
X017828Y016866D01*
X017766Y016896D01*
X017705Y016930D01*
X017646Y016967D01*
X017589Y017007D01*
X017534Y017050D01*
X017482Y017096D01*
X017433Y017145D01*
X017387Y017197D01*
X017343Y017251D01*
X017350Y017257D01*
X017394Y017203D01*
X017440Y017152D01*
X017489Y017103D01*
X017540Y017057D01*
X017594Y017014D01*
X017651Y016974D01*
X017709Y016938D01*
X017770Y016904D01*
X017832Y016874D01*
X017896Y016848D01*
X017961Y016826D01*
X018027Y016807D01*
X018095Y016791D01*
X018163Y016780D01*
X018231Y016772D01*
X018300Y016768D01*
X018369Y016769D01*
X018438Y016773D01*
X018507Y016780D01*
X018575Y016792D01*
X018642Y016807D01*
X018709Y016827D01*
X018774Y016850D01*
X018837Y016876D01*
X018900Y016906D01*
X018960Y016939D01*
X019018Y016976D01*
X019075Y017016D01*
X019129Y017059D01*
X019180Y017105D01*
X019229Y017154D01*
X019275Y017206D01*
X019318Y017260D01*
X019358Y017316D01*
X019394Y017375D01*
X019428Y017435D01*
X019458Y017497D01*
X019484Y017561D01*
X019507Y017626D01*
X019526Y017693D01*
X019541Y017760D01*
X019553Y017828D01*
X019561Y017897D01*
X019565Y017965D01*
X019565Y018035D01*
X019561Y018103D01*
X019553Y018172D01*
X019541Y018240D01*
X019526Y018307D01*
X019507Y018374D01*
X019484Y018439D01*
X019458Y018503D01*
X019428Y018565D01*
X019394Y018625D01*
X019358Y018684D01*
X019318Y018740D01*
X019275Y018794D01*
X019229Y018846D01*
X019180Y018895D01*
X019129Y018941D01*
X019075Y018984D01*
X019018Y019024D01*
X018960Y019061D01*
X018900Y019094D01*
X018837Y019124D01*
X018774Y019150D01*
X018709Y019173D01*
X018642Y019193D01*
X018575Y019208D01*
X018507Y019220D01*
X018438Y019227D01*
X018369Y019231D01*
X018300Y019232D01*
X018231Y019228D01*
X018163Y019220D01*
X018095Y019209D01*
X018027Y019193D01*
X017961Y019174D01*
X017896Y019152D01*
X017832Y019126D01*
X017770Y019096D01*
X017709Y019062D01*
X017651Y019026D01*
X017594Y018986D01*
X017540Y018943D01*
X017489Y018897D01*
X017440Y018848D01*
X017394Y018797D01*
X017350Y018743D01*
X017358Y018738D01*
X017401Y018792D01*
X017447Y018843D01*
X017497Y018892D01*
X017548Y018938D01*
X017603Y018981D01*
X017660Y019021D01*
X017718Y019057D01*
X017779Y019091D01*
X017842Y019120D01*
X017906Y019146D01*
X017972Y019168D01*
X018039Y019187D01*
X018106Y019202D01*
X018175Y019213D01*
X018244Y019220D01*
X018313Y019223D01*
X018382Y019222D01*
X018452Y019217D01*
X018520Y019209D01*
X018588Y019196D01*
X018656Y019180D01*
X018722Y019159D01*
X018787Y019136D01*
X018851Y019108D01*
X018913Y019077D01*
X018973Y019042D01*
X019031Y019004D01*
X019087Y018963D01*
X019140Y018919D01*
X019191Y018872D01*
X019239Y018822D01*
X019284Y018769D01*
X019326Y018714D01*
X019365Y018657D01*
X019400Y018597D01*
X019432Y018536D01*
X019461Y018473D01*
X019486Y018408D01*
X019507Y018342D01*
X019525Y018275D01*
X019538Y018207D01*
X019548Y018138D01*
X019554Y018069D01*
X019556Y018000D01*
X019554Y017931D01*
X019548Y017862D01*
X019538Y017793D01*
X019525Y017725D01*
X019507Y017658D01*
X019486Y017592D01*
X019461Y017527D01*
X019432Y017464D01*
X019400Y017403D01*
X019365Y017343D01*
X019326Y017286D01*
X019284Y017231D01*
X019239Y017178D01*
X019191Y017128D01*
X019140Y017081D01*
X019087Y017037D01*
X019031Y016996D01*
X018973Y016958D01*
X018913Y016923D01*
X018851Y016892D01*
X018787Y016864D01*
X018722Y016841D01*
X018656Y016820D01*
X018588Y016804D01*
X018520Y016791D01*
X018452Y016783D01*
X018382Y016778D01*
X018313Y016777D01*
X018244Y016780D01*
X018175Y016787D01*
X018106Y016798D01*
X018039Y016813D01*
X017972Y016832D01*
X017906Y016854D01*
X017842Y016880D01*
X017779Y016909D01*
X017718Y016943D01*
X017660Y016979D01*
X017603Y017019D01*
X017548Y017062D01*
X017497Y017108D01*
X017447Y017157D01*
X017401Y017208D01*
X017358Y017262D01*
X017365Y017268D01*
X017408Y017214D01*
X017454Y017163D01*
X017503Y017114D01*
X017554Y017069D01*
X017608Y017026D01*
X017665Y016987D01*
X017723Y016950D01*
X017783Y016917D01*
X017846Y016888D01*
X017909Y016862D01*
X017975Y016840D01*
X018041Y016822D01*
X018108Y016807D01*
X018176Y016796D01*
X018245Y016789D01*
X018313Y016786D01*
X018382Y016787D01*
X018451Y016792D01*
X018519Y016800D01*
X018587Y016813D01*
X018653Y016829D01*
X018719Y016849D01*
X018784Y016873D01*
X018847Y016900D01*
X018908Y016931D01*
X018968Y016965D01*
X019026Y017003D01*
X019081Y017044D01*
X019134Y017088D01*
X019184Y017135D01*
X019232Y017184D01*
X019277Y017236D01*
X019319Y017291D01*
X019357Y017348D01*
X019392Y017407D01*
X019424Y017468D01*
X019453Y017531D01*
X019477Y017595D01*
X019499Y017661D01*
X019516Y017727D01*
X019529Y017795D01*
X019539Y017863D01*
X019545Y017931D01*
X019547Y018000D01*
X019545Y018069D01*
X019539Y018137D01*
X019529Y018205D01*
X019516Y018273D01*
X019499Y018339D01*
X019477Y018405D01*
X019453Y018469D01*
X019424Y018532D01*
X019392Y018593D01*
X019357Y018652D01*
X019319Y018709D01*
X019277Y018764D01*
X019232Y018816D01*
X019184Y018865D01*
X019134Y018912D01*
X019081Y018956D01*
X019026Y018997D01*
X018968Y019035D01*
X018908Y019069D01*
X018847Y019100D01*
X018784Y019127D01*
X018719Y019151D01*
X018653Y019171D01*
X018587Y019187D01*
X018519Y019200D01*
X018451Y019208D01*
X018382Y019213D01*
X018313Y019214D01*
X018245Y019211D01*
X018176Y019204D01*
X018108Y019193D01*
X018041Y019178D01*
X017975Y019160D01*
X017909Y019138D01*
X017846Y019112D01*
X017783Y019083D01*
X017723Y019050D01*
X017665Y019013D01*
X017608Y018974D01*
X017554Y018931D01*
X017503Y018886D01*
X017454Y018837D01*
X017408Y018786D01*
X017365Y018732D01*
D12*
X017333Y018000D02*
X017335Y018063D01*
X017341Y018125D01*
X017351Y018187D01*
X017364Y018249D01*
X017382Y018309D01*
X017403Y018368D01*
X017428Y018426D01*
X017457Y018482D01*
X017489Y018536D01*
X017524Y018588D01*
X017562Y018637D01*
X017604Y018685D01*
X017648Y018729D01*
X017696Y018771D01*
X017745Y018809D01*
X017797Y018844D01*
X017851Y018876D01*
X017907Y018905D01*
X017965Y018930D01*
X018024Y018951D01*
X018084Y018969D01*
X018146Y018982D01*
X018208Y018992D01*
X018270Y018998D01*
X018333Y019000D01*
X018396Y018998D01*
X018458Y018992D01*
X018520Y018982D01*
X018582Y018969D01*
X018642Y018951D01*
X018701Y018930D01*
X018759Y018905D01*
X018815Y018876D01*
X018869Y018844D01*
X018921Y018809D01*
X018970Y018771D01*
X019018Y018729D01*
X019062Y018685D01*
X019104Y018637D01*
X019142Y018588D01*
X019177Y018536D01*
X019209Y018482D01*
X019238Y018426D01*
X019263Y018368D01*
X019284Y018309D01*
X019302Y018249D01*
X019315Y018187D01*
X019325Y018125D01*
X019331Y018063D01*
X019333Y018000D01*
X019331Y017937D01*
X019325Y017875D01*
X019315Y017813D01*
X019302Y017751D01*
X019284Y017691D01*
X019263Y017632D01*
X019238Y017574D01*
X019209Y017518D01*
X019177Y017464D01*
X019142Y017412D01*
X019104Y017363D01*
X019062Y017315D01*
X019018Y017271D01*
X018970Y017229D01*
X018921Y017191D01*
X018869Y017156D01*
X018815Y017124D01*
X018759Y017095D01*
X018701Y017070D01*
X018642Y017049D01*
X018582Y017031D01*
X018520Y017018D01*
X018458Y017008D01*
X018396Y017002D01*
X018333Y017000D01*
X018270Y017002D01*
X018208Y017008D01*
X018146Y017018D01*
X018084Y017031D01*
X018024Y017049D01*
X017965Y017070D01*
X017907Y017095D01*
X017851Y017124D01*
X017797Y017156D01*
X017745Y017191D01*
X017696Y017229D01*
X017648Y017271D01*
X017604Y017315D01*
X017562Y017363D01*
X017524Y017412D01*
X017489Y017464D01*
X017457Y017518D01*
X017428Y017574D01*
X017403Y017632D01*
X017382Y017691D01*
X017364Y017751D01*
X017351Y017813D01*
X017341Y017875D01*
X017335Y017937D01*
X017333Y018000D01*
X015070Y016618D02*
X015070Y016382D01*
X014597Y016382D02*
X014597Y016618D01*
X015597Y016118D02*
X015597Y015882D01*
X016070Y015882D02*
X016070Y016118D01*
X019215Y015736D02*
X019451Y015736D01*
X019451Y015264D02*
X019215Y015264D01*
X019833Y019000D02*
X019835Y019063D01*
X019841Y019125D01*
X019851Y019187D01*
X019864Y019249D01*
X019882Y019309D01*
X019903Y019368D01*
X019928Y019426D01*
X019957Y019482D01*
X019989Y019536D01*
X020024Y019588D01*
X020062Y019637D01*
X020104Y019685D01*
X020148Y019729D01*
X020196Y019771D01*
X020245Y019809D01*
X020297Y019844D01*
X020351Y019876D01*
X020407Y019905D01*
X020465Y019930D01*
X020524Y019951D01*
X020584Y019969D01*
X020646Y019982D01*
X020708Y019992D01*
X020770Y019998D01*
X020833Y020000D01*
X020896Y019998D01*
X020958Y019992D01*
X021020Y019982D01*
X021082Y019969D01*
X021142Y019951D01*
X021201Y019930D01*
X021259Y019905D01*
X021315Y019876D01*
X021369Y019844D01*
X021421Y019809D01*
X021470Y019771D01*
X021518Y019729D01*
X021562Y019685D01*
X021604Y019637D01*
X021642Y019588D01*
X021677Y019536D01*
X021709Y019482D01*
X021738Y019426D01*
X021763Y019368D01*
X021784Y019309D01*
X021802Y019249D01*
X021815Y019187D01*
X021825Y019125D01*
X021831Y019063D01*
X021833Y019000D01*
X021831Y018937D01*
X021825Y018875D01*
X021815Y018813D01*
X021802Y018751D01*
X021784Y018691D01*
X021763Y018632D01*
X021738Y018574D01*
X021709Y018518D01*
X021677Y018464D01*
X021642Y018412D01*
X021604Y018363D01*
X021562Y018315D01*
X021518Y018271D01*
X021470Y018229D01*
X021421Y018191D01*
X021369Y018156D01*
X021315Y018124D01*
X021259Y018095D01*
X021201Y018070D01*
X021142Y018049D01*
X021082Y018031D01*
X021020Y018018D01*
X020958Y018008D01*
X020896Y018002D01*
X020833Y018000D01*
X020770Y018002D01*
X020708Y018008D01*
X020646Y018018D01*
X020584Y018031D01*
X020524Y018049D01*
X020465Y018070D01*
X020407Y018095D01*
X020351Y018124D01*
X020297Y018156D01*
X020245Y018191D01*
X020196Y018229D01*
X020148Y018271D01*
X020104Y018315D01*
X020062Y018363D01*
X020024Y018412D01*
X019989Y018464D01*
X019957Y018518D01*
X019928Y018574D01*
X019903Y018632D01*
X019882Y018691D01*
X019864Y018751D01*
X019851Y018813D01*
X019841Y018875D01*
X019835Y018937D01*
X019833Y019000D01*
X018951Y010236D02*
X018715Y010236D01*
X018715Y009764D02*
X018951Y009764D01*
M02*
