G75*
G70*
%OFA0B0*%
%FSLAX24Y24*%
%IPPOS*%
%LPD*%
%AMOC8*
5,1,8,0,0,1.08239X$1,22.5*
%
%ADD10C,0.0080*%
%ADD11C,0.0050*%
%ADD12C,0.0010*%
%ADD13C,0.0060*%
D10*
X006100Y002000D02*
X006100Y003500D01*
X020100Y005000D02*
X020100Y005500D01*
X020350Y005750D01*
X020100Y006000D01*
X020100Y006500D01*
X020350Y006750D01*
X020100Y007000D01*
X020100Y007500D01*
X020350Y007750D01*
X020850Y007750D01*
X021100Y007500D01*
X021100Y007000D01*
X020850Y006750D01*
X021100Y006500D01*
X021100Y006000D01*
X020850Y005750D01*
X021100Y005500D01*
X021100Y005000D01*
X020850Y004750D01*
X020350Y004750D01*
X020100Y005000D01*
X020530Y007830D02*
X020390Y007970D01*
X020810Y007970D01*
X020810Y007830D02*
X020810Y008110D01*
D11*
X007175Y010900D02*
X007175Y004601D01*
X004025Y004601D01*
X004025Y010900D01*
X007175Y010900D01*
D12*
X006132Y003530D02*
X006060Y003476D01*
X006061Y003477D02*
X006018Y003530D01*
X005973Y003581D01*
X005924Y003629D01*
X005873Y003674D01*
X005819Y003717D01*
X005763Y003756D01*
X005705Y003792D01*
X005645Y003825D01*
X005584Y003854D01*
X005520Y003879D01*
X005456Y003901D01*
X005390Y003920D01*
X005323Y003934D01*
X005256Y003945D01*
X005188Y003952D01*
X005120Y003955D01*
X005051Y003954D01*
X004983Y003949D01*
X004915Y003941D01*
X004848Y003928D01*
X004782Y003912D01*
X004717Y003892D01*
X004652Y003869D01*
X004590Y003842D01*
X004529Y003811D01*
X004470Y003777D01*
X004412Y003740D01*
X004357Y003699D01*
X004305Y003655D01*
X004255Y003609D01*
X004208Y003560D01*
X004163Y003508D01*
X004122Y003454D01*
X004083Y003397D01*
X004048Y003338D01*
X004017Y003278D01*
X003989Y003216D01*
X003964Y003152D01*
X003943Y003087D01*
X003926Y003021D01*
X003912Y002954D01*
X003903Y002886D01*
X003897Y002818D01*
X003895Y002750D01*
X003897Y002682D01*
X003903Y002614D01*
X003912Y002546D01*
X003926Y002479D01*
X003943Y002413D01*
X003964Y002348D01*
X003989Y002284D01*
X004017Y002222D01*
X004048Y002162D01*
X004083Y002103D01*
X004122Y002046D01*
X004163Y001992D01*
X004208Y001940D01*
X004255Y001891D01*
X004305Y001845D01*
X004357Y001801D01*
X004412Y001760D01*
X004470Y001723D01*
X004529Y001689D01*
X004590Y001658D01*
X004652Y001631D01*
X004717Y001608D01*
X004782Y001588D01*
X004848Y001572D01*
X004915Y001559D01*
X004983Y001551D01*
X005051Y001546D01*
X005120Y001545D01*
X005188Y001548D01*
X005256Y001555D01*
X005323Y001566D01*
X005390Y001580D01*
X005456Y001599D01*
X005520Y001621D01*
X005584Y001646D01*
X005645Y001675D01*
X005705Y001708D01*
X005763Y001744D01*
X005819Y001783D01*
X005873Y001826D01*
X005924Y001871D01*
X005973Y001919D01*
X006018Y001970D01*
X006061Y002023D01*
X006132Y001970D01*
X006133Y001969D01*
X006089Y001914D01*
X006041Y001861D01*
X005991Y001810D01*
X005938Y001763D01*
X005883Y001719D01*
X005825Y001677D01*
X005765Y001639D01*
X005704Y001604D01*
X005640Y001573D01*
X005575Y001545D01*
X005508Y001521D01*
X005440Y001500D01*
X005371Y001484D01*
X005301Y001471D01*
X005231Y001462D01*
X005160Y001456D01*
X005089Y001455D01*
X005018Y001458D01*
X004947Y001464D01*
X004877Y001474D01*
X004808Y001488D01*
X004739Y001506D01*
X004671Y001528D01*
X004605Y001553D01*
X004540Y001582D01*
X004477Y001615D01*
X004416Y001651D01*
X004357Y001690D01*
X004300Y001732D01*
X004245Y001777D01*
X004193Y001826D01*
X004144Y001877D01*
X004097Y001930D01*
X004054Y001987D01*
X004014Y002045D01*
X003977Y002106D01*
X003943Y002168D01*
X003913Y002232D01*
X003886Y002298D01*
X003863Y002365D01*
X003844Y002434D01*
X003829Y002503D01*
X003817Y002573D01*
X003809Y002644D01*
X003805Y002715D01*
X003805Y002785D01*
X003809Y002856D01*
X003817Y002927D01*
X003829Y002997D01*
X003844Y003066D01*
X003863Y003135D01*
X003886Y003202D01*
X003913Y003268D01*
X003943Y003332D01*
X003977Y003394D01*
X004014Y003455D01*
X004054Y003513D01*
X004097Y003570D01*
X004144Y003623D01*
X004193Y003674D01*
X004245Y003723D01*
X004300Y003768D01*
X004357Y003810D01*
X004416Y003849D01*
X004477Y003885D01*
X004540Y003918D01*
X004605Y003947D01*
X004671Y003972D01*
X004739Y003994D01*
X004808Y004012D01*
X004877Y004026D01*
X004947Y004036D01*
X005018Y004042D01*
X005089Y004045D01*
X005160Y004044D01*
X005231Y004038D01*
X005301Y004029D01*
X005371Y004016D01*
X005440Y004000D01*
X005508Y003979D01*
X005575Y003955D01*
X005640Y003927D01*
X005704Y003896D01*
X005765Y003861D01*
X005825Y003823D01*
X005883Y003781D01*
X005938Y003737D01*
X005991Y003690D01*
X006041Y003639D01*
X006089Y003586D01*
X006133Y003531D01*
X006126Y003526D01*
X006081Y003581D01*
X006034Y003634D01*
X005983Y003685D01*
X005930Y003732D01*
X005874Y003777D01*
X005816Y003818D01*
X005756Y003856D01*
X005694Y003891D01*
X005630Y003922D01*
X005564Y003949D01*
X005497Y003973D01*
X005428Y003993D01*
X005359Y004010D01*
X005289Y004022D01*
X005218Y004031D01*
X005147Y004035D01*
X005076Y004036D01*
X005005Y004032D01*
X004934Y004025D01*
X004863Y004014D01*
X004794Y003999D01*
X004725Y003980D01*
X004657Y003957D01*
X004591Y003931D01*
X004526Y003901D01*
X004464Y003867D01*
X004403Y003831D01*
X004344Y003790D01*
X004287Y003747D01*
X004233Y003700D01*
X004182Y003651D01*
X004134Y003598D01*
X004088Y003544D01*
X004046Y003486D01*
X004007Y003427D01*
X003971Y003365D01*
X003938Y003302D01*
X003910Y003237D01*
X003884Y003170D01*
X003863Y003102D01*
X003845Y003033D01*
X003832Y002963D01*
X003822Y002892D01*
X003816Y002821D01*
X003814Y002750D01*
X003816Y002679D01*
X003822Y002608D01*
X003832Y002537D01*
X003845Y002467D01*
X003863Y002398D01*
X003884Y002330D01*
X003910Y002263D01*
X003938Y002198D01*
X003971Y002135D01*
X004007Y002073D01*
X004046Y002014D01*
X004088Y001956D01*
X004134Y001902D01*
X004182Y001849D01*
X004233Y001800D01*
X004287Y001753D01*
X004344Y001710D01*
X004403Y001669D01*
X004464Y001633D01*
X004526Y001599D01*
X004591Y001569D01*
X004657Y001543D01*
X004725Y001520D01*
X004794Y001501D01*
X004863Y001486D01*
X004934Y001475D01*
X005005Y001468D01*
X005076Y001464D01*
X005147Y001465D01*
X005218Y001469D01*
X005289Y001478D01*
X005359Y001490D01*
X005428Y001507D01*
X005497Y001527D01*
X005564Y001551D01*
X005630Y001578D01*
X005694Y001609D01*
X005756Y001644D01*
X005816Y001682D01*
X005874Y001723D01*
X005930Y001768D01*
X005983Y001815D01*
X006034Y001866D01*
X006081Y001919D01*
X006126Y001974D01*
X006119Y001980D01*
X006074Y001925D01*
X006027Y001872D01*
X005977Y001822D01*
X005924Y001775D01*
X005869Y001731D01*
X005811Y001689D01*
X005752Y001652D01*
X005690Y001617D01*
X005626Y001586D01*
X005561Y001559D01*
X005494Y001535D01*
X005426Y001515D01*
X005357Y001499D01*
X005288Y001487D01*
X005217Y001478D01*
X005147Y001474D01*
X005076Y001473D01*
X005005Y001477D01*
X004935Y001484D01*
X004865Y001495D01*
X004796Y001510D01*
X004728Y001529D01*
X004660Y001551D01*
X004595Y001577D01*
X004530Y001607D01*
X004468Y001640D01*
X004408Y001677D01*
X004349Y001717D01*
X004293Y001760D01*
X004239Y001806D01*
X004189Y001856D01*
X004140Y001907D01*
X004095Y001962D01*
X004053Y002019D01*
X004014Y002078D01*
X003979Y002139D01*
X003946Y002202D01*
X003918Y002267D01*
X003893Y002333D01*
X003872Y002401D01*
X003854Y002469D01*
X003841Y002539D01*
X003831Y002609D01*
X003825Y002679D01*
X003823Y002750D01*
X003825Y002821D01*
X003831Y002891D01*
X003841Y002961D01*
X003854Y003031D01*
X003872Y003099D01*
X003893Y003167D01*
X003918Y003233D01*
X003946Y003298D01*
X003979Y003361D01*
X004014Y003422D01*
X004053Y003481D01*
X004095Y003538D01*
X004140Y003593D01*
X004189Y003644D01*
X004239Y003694D01*
X004293Y003740D01*
X004349Y003783D01*
X004408Y003823D01*
X004468Y003860D01*
X004530Y003893D01*
X004595Y003923D01*
X004660Y003949D01*
X004728Y003971D01*
X004796Y003990D01*
X004865Y004005D01*
X004935Y004016D01*
X005005Y004023D01*
X005076Y004027D01*
X005147Y004026D01*
X005217Y004022D01*
X005288Y004013D01*
X005357Y004001D01*
X005426Y003985D01*
X005494Y003965D01*
X005561Y003941D01*
X005626Y003914D01*
X005690Y003883D01*
X005752Y003848D01*
X005811Y003811D01*
X005869Y003769D01*
X005924Y003725D01*
X005977Y003678D01*
X006027Y003628D01*
X006074Y003575D01*
X006119Y003520D01*
X006111Y003515D01*
X006067Y003570D01*
X006019Y003623D01*
X005969Y003673D01*
X005916Y003721D01*
X005860Y003765D01*
X005802Y003806D01*
X005742Y003843D01*
X005680Y003878D01*
X005616Y003908D01*
X005550Y003935D01*
X005483Y003959D01*
X005415Y003978D01*
X005345Y003994D01*
X005275Y004006D01*
X005205Y004014D01*
X005134Y004018D01*
X005063Y004017D01*
X004992Y004013D01*
X004921Y004005D01*
X004851Y003993D01*
X004782Y003977D01*
X004714Y003958D01*
X004646Y003934D01*
X004581Y003907D01*
X004517Y003876D01*
X004455Y003842D01*
X004395Y003804D01*
X004337Y003762D01*
X004281Y003718D01*
X004228Y003671D01*
X004178Y003620D01*
X004131Y003567D01*
X004086Y003512D01*
X004045Y003454D01*
X004008Y003394D01*
X003973Y003331D01*
X003942Y003267D01*
X003915Y003202D01*
X003892Y003135D01*
X003872Y003066D01*
X003856Y002997D01*
X003844Y002927D01*
X003836Y002856D01*
X003832Y002786D01*
X003832Y002714D01*
X003836Y002644D01*
X003844Y002573D01*
X003856Y002503D01*
X003872Y002434D01*
X003892Y002365D01*
X003915Y002298D01*
X003942Y002233D01*
X003973Y002169D01*
X004008Y002106D01*
X004045Y002046D01*
X004086Y001988D01*
X004131Y001933D01*
X004178Y001880D01*
X004228Y001829D01*
X004281Y001782D01*
X004337Y001738D01*
X004395Y001696D01*
X004455Y001658D01*
X004517Y001624D01*
X004581Y001593D01*
X004646Y001566D01*
X004714Y001542D01*
X004782Y001523D01*
X004851Y001507D01*
X004921Y001495D01*
X004992Y001487D01*
X005063Y001483D01*
X005134Y001482D01*
X005205Y001486D01*
X005275Y001494D01*
X005345Y001506D01*
X005415Y001522D01*
X005483Y001541D01*
X005550Y001565D01*
X005616Y001592D01*
X005680Y001622D01*
X005742Y001657D01*
X005802Y001694D01*
X005860Y001735D01*
X005916Y001779D01*
X005969Y001827D01*
X006019Y001877D01*
X006067Y001930D01*
X006111Y001985D01*
X006104Y001991D01*
X006060Y001936D01*
X006013Y001883D01*
X005963Y001833D01*
X005910Y001786D01*
X005855Y001742D01*
X005797Y001702D01*
X005738Y001664D01*
X005676Y001630D01*
X005612Y001600D01*
X005547Y001573D01*
X005480Y001550D01*
X005412Y001530D01*
X005344Y001515D01*
X005274Y001503D01*
X005204Y001495D01*
X005133Y001491D01*
X005063Y001492D01*
X004992Y001496D01*
X004922Y001504D01*
X004853Y001516D01*
X004784Y001531D01*
X004716Y001551D01*
X004650Y001574D01*
X004585Y001601D01*
X004521Y001632D01*
X004459Y001666D01*
X004400Y001704D01*
X004342Y001745D01*
X004287Y001789D01*
X004234Y001836D01*
X004185Y001886D01*
X004138Y001938D01*
X004094Y001994D01*
X004053Y002051D01*
X004015Y002111D01*
X003981Y002173D01*
X003951Y002236D01*
X003924Y002301D01*
X003900Y002368D01*
X003881Y002436D01*
X003865Y002505D01*
X003853Y002574D01*
X003845Y002644D01*
X003841Y002715D01*
X003841Y002785D01*
X003845Y002856D01*
X003853Y002926D01*
X003865Y002995D01*
X003881Y003064D01*
X003900Y003132D01*
X003924Y003199D01*
X003951Y003264D01*
X003981Y003327D01*
X004015Y003389D01*
X004053Y003449D01*
X004094Y003506D01*
X004138Y003562D01*
X004185Y003614D01*
X004234Y003664D01*
X004287Y003711D01*
X004342Y003755D01*
X004400Y003796D01*
X004459Y003834D01*
X004521Y003868D01*
X004585Y003899D01*
X004650Y003926D01*
X004716Y003949D01*
X004784Y003969D01*
X004853Y003984D01*
X004922Y003996D01*
X004992Y004004D01*
X005063Y004008D01*
X005133Y004009D01*
X005204Y004005D01*
X005274Y003997D01*
X005344Y003985D01*
X005412Y003970D01*
X005480Y003950D01*
X005547Y003927D01*
X005612Y003900D01*
X005676Y003870D01*
X005738Y003836D01*
X005797Y003798D01*
X005855Y003758D01*
X005910Y003714D01*
X005963Y003667D01*
X006013Y003617D01*
X006060Y003564D01*
X006104Y003509D01*
X006097Y003504D01*
X006053Y003559D01*
X006006Y003611D01*
X005957Y003660D01*
X005904Y003707D01*
X005850Y003750D01*
X005792Y003791D01*
X005733Y003828D01*
X005672Y003862D01*
X005608Y003892D01*
X005544Y003919D01*
X005477Y003942D01*
X005410Y003961D01*
X005342Y003976D01*
X005273Y003988D01*
X005203Y003996D01*
X005133Y004000D01*
X005063Y003999D01*
X004993Y003995D01*
X004924Y003987D01*
X004855Y003976D01*
X004786Y003960D01*
X004719Y003941D01*
X004653Y003917D01*
X004588Y003890D01*
X004525Y003860D01*
X004464Y003826D01*
X004405Y003789D01*
X004347Y003748D01*
X004293Y003704D01*
X004241Y003658D01*
X004191Y003608D01*
X004144Y003556D01*
X004101Y003501D01*
X004060Y003444D01*
X004023Y003385D01*
X003989Y003323D01*
X003959Y003260D01*
X003932Y003195D01*
X003909Y003129D01*
X003890Y003062D01*
X003874Y002994D01*
X003862Y002925D01*
X003854Y002855D01*
X003850Y002785D01*
X003850Y002715D01*
X003854Y002645D01*
X003862Y002575D01*
X003874Y002506D01*
X003890Y002438D01*
X003909Y002371D01*
X003932Y002305D01*
X003959Y002240D01*
X003989Y002177D01*
X004023Y002115D01*
X004060Y002056D01*
X004101Y001999D01*
X004144Y001944D01*
X004191Y001892D01*
X004241Y001842D01*
X004293Y001796D01*
X004347Y001752D01*
X004405Y001711D01*
X004464Y001674D01*
X004525Y001640D01*
X004588Y001610D01*
X004653Y001583D01*
X004719Y001559D01*
X004786Y001540D01*
X004855Y001524D01*
X004924Y001513D01*
X004993Y001505D01*
X005063Y001501D01*
X005133Y001500D01*
X005203Y001504D01*
X005273Y001512D01*
X005342Y001524D01*
X005410Y001539D01*
X005477Y001558D01*
X005544Y001581D01*
X005608Y001608D01*
X005672Y001638D01*
X005733Y001672D01*
X005792Y001709D01*
X005850Y001750D01*
X005904Y001793D01*
X005957Y001840D01*
X006006Y001889D01*
X006053Y001941D01*
X006097Y001996D01*
X006090Y002001D01*
X006046Y001947D01*
X006000Y001895D01*
X005951Y001846D01*
X005899Y001800D01*
X005844Y001757D01*
X005787Y001717D01*
X005728Y001680D01*
X005667Y001646D01*
X005605Y001616D01*
X005540Y001590D01*
X005475Y001567D01*
X005408Y001548D01*
X005340Y001532D01*
X005271Y001521D01*
X005202Y001513D01*
X005133Y001509D01*
X005063Y001510D01*
X004994Y001514D01*
X004925Y001521D01*
X004856Y001533D01*
X004789Y001549D01*
X004722Y001568D01*
X004656Y001591D01*
X004592Y001618D01*
X004529Y001648D01*
X004468Y001682D01*
X004410Y001719D01*
X004353Y001759D01*
X004299Y001802D01*
X004247Y001849D01*
X004198Y001898D01*
X004151Y001950D01*
X004108Y002004D01*
X004068Y002061D01*
X004031Y002120D01*
X003997Y002181D01*
X003967Y002244D01*
X003940Y002308D01*
X003917Y002373D01*
X003898Y002440D01*
X003883Y002508D01*
X003871Y002577D01*
X003863Y002646D01*
X003859Y002715D01*
X003859Y002785D01*
X003863Y002854D01*
X003871Y002923D01*
X003883Y002992D01*
X003898Y003060D01*
X003917Y003127D01*
X003940Y003192D01*
X003967Y003256D01*
X003997Y003319D01*
X004031Y003380D01*
X004068Y003439D01*
X004108Y003496D01*
X004151Y003550D01*
X004198Y003602D01*
X004247Y003651D01*
X004299Y003698D01*
X004353Y003741D01*
X004410Y003781D01*
X004468Y003818D01*
X004529Y003852D01*
X004592Y003882D01*
X004656Y003909D01*
X004722Y003932D01*
X004789Y003951D01*
X004856Y003967D01*
X004925Y003979D01*
X004994Y003986D01*
X005063Y003990D01*
X005133Y003991D01*
X005202Y003987D01*
X005271Y003979D01*
X005340Y003968D01*
X005408Y003952D01*
X005475Y003933D01*
X005540Y003910D01*
X005605Y003884D01*
X005667Y003854D01*
X005728Y003820D01*
X005787Y003783D01*
X005844Y003743D01*
X005899Y003700D01*
X005951Y003654D01*
X006000Y003605D01*
X006046Y003553D01*
X006090Y003499D01*
X006083Y003493D01*
X006039Y003547D01*
X005993Y003598D01*
X005944Y003647D01*
X005893Y003693D01*
X005839Y003736D01*
X005782Y003776D01*
X005724Y003812D01*
X005663Y003846D01*
X005601Y003876D01*
X005537Y003902D01*
X005472Y003924D01*
X005406Y003943D01*
X005338Y003959D01*
X005270Y003970D01*
X005202Y003978D01*
X005133Y003982D01*
X005064Y003981D01*
X004995Y003977D01*
X004926Y003970D01*
X004858Y003958D01*
X004791Y003943D01*
X004724Y003923D01*
X004659Y003900D01*
X004596Y003874D01*
X004533Y003844D01*
X004473Y003811D01*
X004415Y003774D01*
X004358Y003734D01*
X004304Y003691D01*
X004253Y003645D01*
X004204Y003596D01*
X004158Y003544D01*
X004115Y003490D01*
X004075Y003434D01*
X004039Y003375D01*
X004005Y003315D01*
X003975Y003253D01*
X003949Y003189D01*
X003926Y003124D01*
X003907Y003057D01*
X003892Y002990D01*
X003880Y002922D01*
X003872Y002853D01*
X003868Y002785D01*
X003868Y002715D01*
X003872Y002647D01*
X003880Y002578D01*
X003892Y002510D01*
X003907Y002443D01*
X003926Y002376D01*
X003949Y002311D01*
X003975Y002247D01*
X004005Y002185D01*
X004039Y002125D01*
X004075Y002066D01*
X004115Y002010D01*
X004158Y001956D01*
X004204Y001904D01*
X004253Y001855D01*
X004304Y001809D01*
X004358Y001766D01*
X004415Y001726D01*
X004473Y001689D01*
X004533Y001656D01*
X004596Y001626D01*
X004659Y001600D01*
X004724Y001577D01*
X004791Y001557D01*
X004858Y001542D01*
X004926Y001530D01*
X004995Y001523D01*
X005064Y001519D01*
X005133Y001518D01*
X005202Y001522D01*
X005270Y001530D01*
X005338Y001541D01*
X005406Y001557D01*
X005472Y001576D01*
X005537Y001598D01*
X005601Y001624D01*
X005663Y001654D01*
X005724Y001688D01*
X005782Y001724D01*
X005839Y001764D01*
X005893Y001807D01*
X005944Y001853D01*
X005993Y001902D01*
X006039Y001953D01*
X006083Y002007D01*
X006075Y002012D01*
X006032Y001958D01*
X005986Y001907D01*
X005936Y001858D01*
X005885Y001812D01*
X005830Y001769D01*
X005773Y001729D01*
X005715Y001693D01*
X005654Y001659D01*
X005591Y001630D01*
X005527Y001604D01*
X005461Y001582D01*
X005394Y001563D01*
X005327Y001548D01*
X005258Y001537D01*
X005189Y001530D01*
X005120Y001527D01*
X005051Y001528D01*
X004981Y001533D01*
X004913Y001541D01*
X004845Y001554D01*
X004777Y001570D01*
X004711Y001591D01*
X004646Y001614D01*
X004582Y001642D01*
X004520Y001673D01*
X004460Y001708D01*
X004402Y001746D01*
X004346Y001787D01*
X004293Y001831D01*
X004242Y001878D01*
X004194Y001928D01*
X004149Y001981D01*
X004107Y002036D01*
X004068Y002093D01*
X004033Y002153D01*
X004001Y002214D01*
X003972Y002277D01*
X003947Y002342D01*
X003926Y002408D01*
X003908Y002475D01*
X003895Y002543D01*
X003885Y002612D01*
X003879Y002681D01*
X003877Y002750D01*
X003879Y002819D01*
X003885Y002888D01*
X003895Y002957D01*
X003908Y003025D01*
X003926Y003092D01*
X003947Y003158D01*
X003972Y003223D01*
X004001Y003286D01*
X004033Y003347D01*
X004068Y003407D01*
X004107Y003464D01*
X004149Y003519D01*
X004194Y003572D01*
X004242Y003622D01*
X004293Y003669D01*
X004346Y003713D01*
X004402Y003754D01*
X004460Y003792D01*
X004520Y003827D01*
X004582Y003858D01*
X004646Y003886D01*
X004711Y003909D01*
X004777Y003930D01*
X004845Y003946D01*
X004913Y003959D01*
X004981Y003967D01*
X005051Y003972D01*
X005120Y003973D01*
X005189Y003970D01*
X005258Y003963D01*
X005327Y003952D01*
X005394Y003937D01*
X005461Y003918D01*
X005527Y003896D01*
X005591Y003870D01*
X005654Y003841D01*
X005715Y003807D01*
X005773Y003771D01*
X005830Y003731D01*
X005885Y003688D01*
X005936Y003642D01*
X005986Y003593D01*
X006032Y003542D01*
X006075Y003488D01*
X006068Y003482D01*
X006025Y003536D01*
X005979Y003587D01*
X005930Y003636D01*
X005879Y003681D01*
X005825Y003724D01*
X005768Y003763D01*
X005710Y003800D01*
X005650Y003833D01*
X005587Y003862D01*
X005524Y003888D01*
X005458Y003910D01*
X005392Y003928D01*
X005325Y003943D01*
X005257Y003954D01*
X005188Y003961D01*
X005120Y003964D01*
X005051Y003963D01*
X004982Y003958D01*
X004914Y003950D01*
X004846Y003937D01*
X004780Y003921D01*
X004714Y003901D01*
X004649Y003877D01*
X004586Y003850D01*
X004525Y003819D01*
X004465Y003785D01*
X004407Y003747D01*
X004352Y003706D01*
X004299Y003662D01*
X004249Y003615D01*
X004201Y003566D01*
X004156Y003514D01*
X004114Y003459D01*
X004076Y003402D01*
X004041Y003343D01*
X004009Y003282D01*
X003980Y003219D01*
X003956Y003155D01*
X003934Y003089D01*
X003917Y003023D01*
X003904Y002955D01*
X003894Y002887D01*
X003888Y002819D01*
X003886Y002750D01*
X003888Y002681D01*
X003894Y002613D01*
X003904Y002545D01*
X003917Y002477D01*
X003934Y002411D01*
X003956Y002345D01*
X003980Y002281D01*
X004009Y002218D01*
X004041Y002157D01*
X004076Y002098D01*
X004114Y002041D01*
X004156Y001986D01*
X004201Y001934D01*
X004249Y001885D01*
X004299Y001838D01*
X004352Y001794D01*
X004407Y001753D01*
X004465Y001715D01*
X004525Y001681D01*
X004586Y001650D01*
X004649Y001623D01*
X004714Y001599D01*
X004780Y001579D01*
X004846Y001563D01*
X004914Y001550D01*
X004982Y001542D01*
X005051Y001537D01*
X005120Y001536D01*
X005188Y001539D01*
X005257Y001546D01*
X005325Y001557D01*
X005392Y001572D01*
X005458Y001590D01*
X005524Y001612D01*
X005587Y001638D01*
X005650Y001667D01*
X005710Y001700D01*
X005768Y001737D01*
X005825Y001776D01*
X005879Y001819D01*
X005930Y001864D01*
X005979Y001913D01*
X006025Y001964D01*
X006068Y002018D01*
D13*
X004100Y002750D02*
X004102Y002813D01*
X004108Y002875D01*
X004118Y002937D01*
X004131Y002999D01*
X004149Y003059D01*
X004170Y003118D01*
X004195Y003176D01*
X004224Y003232D01*
X004256Y003286D01*
X004291Y003338D01*
X004329Y003387D01*
X004371Y003435D01*
X004415Y003479D01*
X004463Y003521D01*
X004512Y003559D01*
X004564Y003594D01*
X004618Y003626D01*
X004674Y003655D01*
X004732Y003680D01*
X004791Y003701D01*
X004851Y003719D01*
X004913Y003732D01*
X004975Y003742D01*
X005037Y003748D01*
X005100Y003750D01*
X005163Y003748D01*
X005225Y003742D01*
X005287Y003732D01*
X005349Y003719D01*
X005409Y003701D01*
X005468Y003680D01*
X005526Y003655D01*
X005582Y003626D01*
X005636Y003594D01*
X005688Y003559D01*
X005737Y003521D01*
X005785Y003479D01*
X005829Y003435D01*
X005871Y003387D01*
X005909Y003338D01*
X005944Y003286D01*
X005976Y003232D01*
X006005Y003176D01*
X006030Y003118D01*
X006051Y003059D01*
X006069Y002999D01*
X006082Y002937D01*
X006092Y002875D01*
X006098Y002813D01*
X006100Y002750D01*
X006098Y002687D01*
X006092Y002625D01*
X006082Y002563D01*
X006069Y002501D01*
X006051Y002441D01*
X006030Y002382D01*
X006005Y002324D01*
X005976Y002268D01*
X005944Y002214D01*
X005909Y002162D01*
X005871Y002113D01*
X005829Y002065D01*
X005785Y002021D01*
X005737Y001979D01*
X005688Y001941D01*
X005636Y001906D01*
X005582Y001874D01*
X005526Y001845D01*
X005468Y001820D01*
X005409Y001799D01*
X005349Y001781D01*
X005287Y001768D01*
X005225Y001758D01*
X005163Y001752D01*
X005100Y001750D01*
X005037Y001752D01*
X004975Y001758D01*
X004913Y001768D01*
X004851Y001781D01*
X004791Y001799D01*
X004732Y001820D01*
X004674Y001845D01*
X004618Y001874D01*
X004564Y001906D01*
X004512Y001941D01*
X004463Y001979D01*
X004415Y002021D01*
X004371Y002065D01*
X004329Y002113D01*
X004291Y002162D01*
X004256Y002214D01*
X004224Y002268D01*
X004195Y002324D01*
X004170Y002382D01*
X004149Y002441D01*
X004131Y002501D01*
X004118Y002563D01*
X004108Y002625D01*
X004102Y002687D01*
X004100Y002750D01*
M02*
