G75*
G70*
%OFA0B0*%
%FSLAX24Y24*%
%IPPOS*%
%LPD*%
%AMOC8*
5,1,8,0,0,1.08239X$1,22.5*
%
%ADD10C,0.0080*%
%ADD11C,0.0050*%
%ADD12C,0.0010*%
%ADD13C,0.0060*%
D10*
X004100Y002000D02*
X004100Y003500D01*
X018100Y005000D02*
X018100Y005500D01*
X018350Y005750D01*
X018100Y006000D01*
X018100Y006500D01*
X018350Y006750D01*
X018100Y007000D01*
X018100Y007500D01*
X018350Y007750D01*
X018850Y007750D01*
X019100Y007500D01*
X019100Y007000D01*
X018850Y006750D01*
X019100Y006500D01*
X019100Y006000D01*
X018850Y005750D01*
X019100Y005500D01*
X019100Y005000D01*
X018850Y004750D01*
X018350Y004750D01*
X018100Y005000D01*
X018530Y007830D02*
X018390Y007970D01*
X018810Y007970D01*
X018810Y007830D02*
X018810Y008110D01*
D11*
X005175Y010900D02*
X005175Y004601D01*
X002025Y004601D01*
X002025Y010900D01*
X005175Y010900D01*
D12*
X004132Y003530D02*
X004060Y003476D01*
X004061Y003477D02*
X004018Y003530D01*
X003973Y003581D01*
X003924Y003629D01*
X003873Y003674D01*
X003819Y003717D01*
X003763Y003756D01*
X003705Y003792D01*
X003645Y003825D01*
X003584Y003854D01*
X003520Y003879D01*
X003456Y003901D01*
X003390Y003920D01*
X003323Y003934D01*
X003256Y003945D01*
X003188Y003952D01*
X003120Y003955D01*
X003051Y003954D01*
X002983Y003949D01*
X002915Y003941D01*
X002848Y003928D01*
X002782Y003912D01*
X002717Y003892D01*
X002652Y003869D01*
X002590Y003842D01*
X002529Y003811D01*
X002470Y003777D01*
X002412Y003740D01*
X002357Y003699D01*
X002305Y003655D01*
X002255Y003609D01*
X002208Y003560D01*
X002163Y003508D01*
X002122Y003454D01*
X002083Y003397D01*
X002048Y003338D01*
X002017Y003278D01*
X001989Y003216D01*
X001964Y003152D01*
X001943Y003087D01*
X001926Y003021D01*
X001912Y002954D01*
X001903Y002886D01*
X001897Y002818D01*
X001895Y002750D01*
X001897Y002682D01*
X001903Y002614D01*
X001912Y002546D01*
X001926Y002479D01*
X001943Y002413D01*
X001964Y002348D01*
X001989Y002284D01*
X002017Y002222D01*
X002048Y002162D01*
X002083Y002103D01*
X002122Y002046D01*
X002163Y001992D01*
X002208Y001940D01*
X002255Y001891D01*
X002305Y001845D01*
X002357Y001801D01*
X002412Y001760D01*
X002470Y001723D01*
X002529Y001689D01*
X002590Y001658D01*
X002652Y001631D01*
X002717Y001608D01*
X002782Y001588D01*
X002848Y001572D01*
X002915Y001559D01*
X002983Y001551D01*
X003051Y001546D01*
X003120Y001545D01*
X003188Y001548D01*
X003256Y001555D01*
X003323Y001566D01*
X003390Y001580D01*
X003456Y001599D01*
X003520Y001621D01*
X003584Y001646D01*
X003645Y001675D01*
X003705Y001708D01*
X003763Y001744D01*
X003819Y001783D01*
X003873Y001826D01*
X003924Y001871D01*
X003973Y001919D01*
X004018Y001970D01*
X004061Y002023D01*
X004132Y001970D01*
X004133Y001969D01*
X004089Y001914D01*
X004041Y001861D01*
X003991Y001810D01*
X003938Y001763D01*
X003883Y001719D01*
X003825Y001677D01*
X003765Y001639D01*
X003704Y001604D01*
X003640Y001573D01*
X003575Y001545D01*
X003508Y001521D01*
X003440Y001500D01*
X003371Y001484D01*
X003301Y001471D01*
X003231Y001462D01*
X003160Y001456D01*
X003089Y001455D01*
X003018Y001458D01*
X002947Y001464D01*
X002877Y001474D01*
X002808Y001488D01*
X002739Y001506D01*
X002671Y001528D01*
X002605Y001553D01*
X002540Y001582D01*
X002477Y001615D01*
X002416Y001651D01*
X002357Y001690D01*
X002300Y001732D01*
X002245Y001777D01*
X002193Y001826D01*
X002144Y001877D01*
X002097Y001930D01*
X002054Y001987D01*
X002014Y002045D01*
X001977Y002106D01*
X001943Y002168D01*
X001913Y002232D01*
X001886Y002298D01*
X001863Y002365D01*
X001844Y002434D01*
X001829Y002503D01*
X001817Y002573D01*
X001809Y002644D01*
X001805Y002715D01*
X001805Y002785D01*
X001809Y002856D01*
X001817Y002927D01*
X001829Y002997D01*
X001844Y003066D01*
X001863Y003135D01*
X001886Y003202D01*
X001913Y003268D01*
X001943Y003332D01*
X001977Y003394D01*
X002014Y003455D01*
X002054Y003513D01*
X002097Y003570D01*
X002144Y003623D01*
X002193Y003674D01*
X002245Y003723D01*
X002300Y003768D01*
X002357Y003810D01*
X002416Y003849D01*
X002477Y003885D01*
X002540Y003918D01*
X002605Y003947D01*
X002671Y003972D01*
X002739Y003994D01*
X002808Y004012D01*
X002877Y004026D01*
X002947Y004036D01*
X003018Y004042D01*
X003089Y004045D01*
X003160Y004044D01*
X003231Y004038D01*
X003301Y004029D01*
X003371Y004016D01*
X003440Y004000D01*
X003508Y003979D01*
X003575Y003955D01*
X003640Y003927D01*
X003704Y003896D01*
X003765Y003861D01*
X003825Y003823D01*
X003883Y003781D01*
X003938Y003737D01*
X003991Y003690D01*
X004041Y003639D01*
X004089Y003586D01*
X004133Y003531D01*
X004126Y003526D01*
X004081Y003581D01*
X004034Y003634D01*
X003983Y003685D01*
X003930Y003732D01*
X003874Y003777D01*
X003816Y003818D01*
X003756Y003856D01*
X003694Y003891D01*
X003630Y003922D01*
X003564Y003949D01*
X003497Y003973D01*
X003428Y003993D01*
X003359Y004010D01*
X003289Y004022D01*
X003218Y004031D01*
X003147Y004035D01*
X003076Y004036D01*
X003005Y004032D01*
X002934Y004025D01*
X002863Y004014D01*
X002794Y003999D01*
X002725Y003980D01*
X002657Y003957D01*
X002591Y003931D01*
X002526Y003901D01*
X002464Y003867D01*
X002403Y003831D01*
X002344Y003790D01*
X002287Y003747D01*
X002233Y003700D01*
X002182Y003651D01*
X002134Y003598D01*
X002088Y003544D01*
X002046Y003486D01*
X002007Y003427D01*
X001971Y003365D01*
X001938Y003302D01*
X001910Y003237D01*
X001884Y003170D01*
X001863Y003102D01*
X001845Y003033D01*
X001832Y002963D01*
X001822Y002892D01*
X001816Y002821D01*
X001814Y002750D01*
X001816Y002679D01*
X001822Y002608D01*
X001832Y002537D01*
X001845Y002467D01*
X001863Y002398D01*
X001884Y002330D01*
X001910Y002263D01*
X001938Y002198D01*
X001971Y002135D01*
X002007Y002073D01*
X002046Y002014D01*
X002088Y001956D01*
X002134Y001902D01*
X002182Y001849D01*
X002233Y001800D01*
X002287Y001753D01*
X002344Y001710D01*
X002403Y001669D01*
X002464Y001633D01*
X002526Y001599D01*
X002591Y001569D01*
X002657Y001543D01*
X002725Y001520D01*
X002794Y001501D01*
X002863Y001486D01*
X002934Y001475D01*
X003005Y001468D01*
X003076Y001464D01*
X003147Y001465D01*
X003218Y001469D01*
X003289Y001478D01*
X003359Y001490D01*
X003428Y001507D01*
X003497Y001527D01*
X003564Y001551D01*
X003630Y001578D01*
X003694Y001609D01*
X003756Y001644D01*
X003816Y001682D01*
X003874Y001723D01*
X003930Y001768D01*
X003983Y001815D01*
X004034Y001866D01*
X004081Y001919D01*
X004126Y001974D01*
X004119Y001980D01*
X004074Y001925D01*
X004027Y001872D01*
X003977Y001822D01*
X003924Y001775D01*
X003869Y001731D01*
X003811Y001689D01*
X003752Y001652D01*
X003690Y001617D01*
X003626Y001586D01*
X003561Y001559D01*
X003494Y001535D01*
X003426Y001515D01*
X003357Y001499D01*
X003288Y001487D01*
X003217Y001478D01*
X003147Y001474D01*
X003076Y001473D01*
X003005Y001477D01*
X002935Y001484D01*
X002865Y001495D01*
X002796Y001510D01*
X002728Y001529D01*
X002660Y001551D01*
X002595Y001577D01*
X002530Y001607D01*
X002468Y001640D01*
X002408Y001677D01*
X002349Y001717D01*
X002293Y001760D01*
X002239Y001806D01*
X002189Y001856D01*
X002140Y001907D01*
X002095Y001962D01*
X002053Y002019D01*
X002014Y002078D01*
X001979Y002139D01*
X001946Y002202D01*
X001918Y002267D01*
X001893Y002333D01*
X001872Y002401D01*
X001854Y002469D01*
X001841Y002539D01*
X001831Y002609D01*
X001825Y002679D01*
X001823Y002750D01*
X001825Y002821D01*
X001831Y002891D01*
X001841Y002961D01*
X001854Y003031D01*
X001872Y003099D01*
X001893Y003167D01*
X001918Y003233D01*
X001946Y003298D01*
X001979Y003361D01*
X002014Y003422D01*
X002053Y003481D01*
X002095Y003538D01*
X002140Y003593D01*
X002189Y003644D01*
X002239Y003694D01*
X002293Y003740D01*
X002349Y003783D01*
X002408Y003823D01*
X002468Y003860D01*
X002530Y003893D01*
X002595Y003923D01*
X002660Y003949D01*
X002728Y003971D01*
X002796Y003990D01*
X002865Y004005D01*
X002935Y004016D01*
X003005Y004023D01*
X003076Y004027D01*
X003147Y004026D01*
X003217Y004022D01*
X003288Y004013D01*
X003357Y004001D01*
X003426Y003985D01*
X003494Y003965D01*
X003561Y003941D01*
X003626Y003914D01*
X003690Y003883D01*
X003752Y003848D01*
X003811Y003811D01*
X003869Y003769D01*
X003924Y003725D01*
X003977Y003678D01*
X004027Y003628D01*
X004074Y003575D01*
X004119Y003520D01*
X004111Y003515D01*
X004067Y003570D01*
X004019Y003623D01*
X003969Y003673D01*
X003916Y003721D01*
X003860Y003765D01*
X003802Y003806D01*
X003742Y003843D01*
X003680Y003878D01*
X003616Y003908D01*
X003550Y003935D01*
X003483Y003959D01*
X003415Y003978D01*
X003345Y003994D01*
X003275Y004006D01*
X003205Y004014D01*
X003134Y004018D01*
X003063Y004017D01*
X002992Y004013D01*
X002921Y004005D01*
X002851Y003993D01*
X002782Y003977D01*
X002714Y003958D01*
X002646Y003934D01*
X002581Y003907D01*
X002517Y003876D01*
X002455Y003842D01*
X002395Y003804D01*
X002337Y003762D01*
X002281Y003718D01*
X002228Y003671D01*
X002178Y003620D01*
X002131Y003567D01*
X002086Y003512D01*
X002045Y003454D01*
X002008Y003394D01*
X001973Y003331D01*
X001942Y003267D01*
X001915Y003202D01*
X001892Y003135D01*
X001872Y003066D01*
X001856Y002997D01*
X001844Y002927D01*
X001836Y002856D01*
X001832Y002786D01*
X001832Y002714D01*
X001836Y002644D01*
X001844Y002573D01*
X001856Y002503D01*
X001872Y002434D01*
X001892Y002365D01*
X001915Y002298D01*
X001942Y002233D01*
X001973Y002169D01*
X002008Y002106D01*
X002045Y002046D01*
X002086Y001988D01*
X002131Y001933D01*
X002178Y001880D01*
X002228Y001829D01*
X002281Y001782D01*
X002337Y001738D01*
X002395Y001696D01*
X002455Y001658D01*
X002517Y001624D01*
X002581Y001593D01*
X002646Y001566D01*
X002714Y001542D01*
X002782Y001523D01*
X002851Y001507D01*
X002921Y001495D01*
X002992Y001487D01*
X003063Y001483D01*
X003134Y001482D01*
X003205Y001486D01*
X003275Y001494D01*
X003345Y001506D01*
X003415Y001522D01*
X003483Y001541D01*
X003550Y001565D01*
X003616Y001592D01*
X003680Y001622D01*
X003742Y001657D01*
X003802Y001694D01*
X003860Y001735D01*
X003916Y001779D01*
X003969Y001827D01*
X004019Y001877D01*
X004067Y001930D01*
X004111Y001985D01*
X004104Y001991D01*
X004060Y001936D01*
X004013Y001883D01*
X003963Y001833D01*
X003910Y001786D01*
X003855Y001742D01*
X003797Y001702D01*
X003738Y001664D01*
X003676Y001630D01*
X003612Y001600D01*
X003547Y001573D01*
X003480Y001550D01*
X003412Y001530D01*
X003344Y001515D01*
X003274Y001503D01*
X003204Y001495D01*
X003133Y001491D01*
X003063Y001492D01*
X002992Y001496D01*
X002922Y001504D01*
X002853Y001516D01*
X002784Y001531D01*
X002716Y001551D01*
X002650Y001574D01*
X002585Y001601D01*
X002521Y001632D01*
X002459Y001666D01*
X002400Y001704D01*
X002342Y001745D01*
X002287Y001789D01*
X002234Y001836D01*
X002185Y001886D01*
X002138Y001938D01*
X002094Y001994D01*
X002053Y002051D01*
X002015Y002111D01*
X001981Y002173D01*
X001951Y002236D01*
X001924Y002301D01*
X001900Y002368D01*
X001881Y002436D01*
X001865Y002505D01*
X001853Y002574D01*
X001845Y002644D01*
X001841Y002715D01*
X001841Y002785D01*
X001845Y002856D01*
X001853Y002926D01*
X001865Y002995D01*
X001881Y003064D01*
X001900Y003132D01*
X001924Y003199D01*
X001951Y003264D01*
X001981Y003327D01*
X002015Y003389D01*
X002053Y003449D01*
X002094Y003506D01*
X002138Y003562D01*
X002185Y003614D01*
X002234Y003664D01*
X002287Y003711D01*
X002342Y003755D01*
X002400Y003796D01*
X002459Y003834D01*
X002521Y003868D01*
X002585Y003899D01*
X002650Y003926D01*
X002716Y003949D01*
X002784Y003969D01*
X002853Y003984D01*
X002922Y003996D01*
X002992Y004004D01*
X003063Y004008D01*
X003133Y004009D01*
X003204Y004005D01*
X003274Y003997D01*
X003344Y003985D01*
X003412Y003970D01*
X003480Y003950D01*
X003547Y003927D01*
X003612Y003900D01*
X003676Y003870D01*
X003738Y003836D01*
X003797Y003798D01*
X003855Y003758D01*
X003910Y003714D01*
X003963Y003667D01*
X004013Y003617D01*
X004060Y003564D01*
X004104Y003509D01*
X004097Y003504D01*
X004053Y003559D01*
X004006Y003611D01*
X003957Y003660D01*
X003904Y003707D01*
X003850Y003750D01*
X003792Y003791D01*
X003733Y003828D01*
X003672Y003862D01*
X003608Y003892D01*
X003544Y003919D01*
X003477Y003942D01*
X003410Y003961D01*
X003342Y003976D01*
X003273Y003988D01*
X003203Y003996D01*
X003133Y004000D01*
X003063Y003999D01*
X002993Y003995D01*
X002924Y003987D01*
X002855Y003976D01*
X002786Y003960D01*
X002719Y003941D01*
X002653Y003917D01*
X002588Y003890D01*
X002525Y003860D01*
X002464Y003826D01*
X002405Y003789D01*
X002347Y003748D01*
X002293Y003704D01*
X002241Y003658D01*
X002191Y003608D01*
X002144Y003556D01*
X002101Y003501D01*
X002060Y003444D01*
X002023Y003385D01*
X001989Y003323D01*
X001959Y003260D01*
X001932Y003195D01*
X001909Y003129D01*
X001890Y003062D01*
X001874Y002994D01*
X001862Y002925D01*
X001854Y002855D01*
X001850Y002785D01*
X001850Y002715D01*
X001854Y002645D01*
X001862Y002575D01*
X001874Y002506D01*
X001890Y002438D01*
X001909Y002371D01*
X001932Y002305D01*
X001959Y002240D01*
X001989Y002177D01*
X002023Y002115D01*
X002060Y002056D01*
X002101Y001999D01*
X002144Y001944D01*
X002191Y001892D01*
X002241Y001842D01*
X002293Y001796D01*
X002347Y001752D01*
X002405Y001711D01*
X002464Y001674D01*
X002525Y001640D01*
X002588Y001610D01*
X002653Y001583D01*
X002719Y001559D01*
X002786Y001540D01*
X002855Y001524D01*
X002924Y001513D01*
X002993Y001505D01*
X003063Y001501D01*
X003133Y001500D01*
X003203Y001504D01*
X003273Y001512D01*
X003342Y001524D01*
X003410Y001539D01*
X003477Y001558D01*
X003544Y001581D01*
X003608Y001608D01*
X003672Y001638D01*
X003733Y001672D01*
X003792Y001709D01*
X003850Y001750D01*
X003904Y001793D01*
X003957Y001840D01*
X004006Y001889D01*
X004053Y001941D01*
X004097Y001996D01*
X004090Y002001D01*
X004046Y001947D01*
X004000Y001895D01*
X003951Y001846D01*
X003899Y001800D01*
X003844Y001757D01*
X003787Y001717D01*
X003728Y001680D01*
X003667Y001646D01*
X003605Y001616D01*
X003540Y001590D01*
X003475Y001567D01*
X003408Y001548D01*
X003340Y001532D01*
X003271Y001521D01*
X003202Y001513D01*
X003133Y001509D01*
X003063Y001510D01*
X002994Y001514D01*
X002925Y001521D01*
X002856Y001533D01*
X002789Y001549D01*
X002722Y001568D01*
X002656Y001591D01*
X002592Y001618D01*
X002529Y001648D01*
X002468Y001682D01*
X002410Y001719D01*
X002353Y001759D01*
X002299Y001802D01*
X002247Y001849D01*
X002198Y001898D01*
X002151Y001950D01*
X002108Y002004D01*
X002068Y002061D01*
X002031Y002120D01*
X001997Y002181D01*
X001967Y002244D01*
X001940Y002308D01*
X001917Y002373D01*
X001898Y002440D01*
X001883Y002508D01*
X001871Y002577D01*
X001863Y002646D01*
X001859Y002715D01*
X001859Y002785D01*
X001863Y002854D01*
X001871Y002923D01*
X001883Y002992D01*
X001898Y003060D01*
X001917Y003127D01*
X001940Y003192D01*
X001967Y003256D01*
X001997Y003319D01*
X002031Y003380D01*
X002068Y003439D01*
X002108Y003496D01*
X002151Y003550D01*
X002198Y003602D01*
X002247Y003651D01*
X002299Y003698D01*
X002353Y003741D01*
X002410Y003781D01*
X002468Y003818D01*
X002529Y003852D01*
X002592Y003882D01*
X002656Y003909D01*
X002722Y003932D01*
X002789Y003951D01*
X002856Y003967D01*
X002925Y003979D01*
X002994Y003986D01*
X003063Y003990D01*
X003133Y003991D01*
X003202Y003987D01*
X003271Y003979D01*
X003340Y003968D01*
X003408Y003952D01*
X003475Y003933D01*
X003540Y003910D01*
X003605Y003884D01*
X003667Y003854D01*
X003728Y003820D01*
X003787Y003783D01*
X003844Y003743D01*
X003899Y003700D01*
X003951Y003654D01*
X004000Y003605D01*
X004046Y003553D01*
X004090Y003499D01*
X004083Y003493D01*
X004039Y003547D01*
X003993Y003598D01*
X003944Y003647D01*
X003893Y003693D01*
X003839Y003736D01*
X003782Y003776D01*
X003724Y003812D01*
X003663Y003846D01*
X003601Y003876D01*
X003537Y003902D01*
X003472Y003924D01*
X003406Y003943D01*
X003338Y003959D01*
X003270Y003970D01*
X003202Y003978D01*
X003133Y003982D01*
X003064Y003981D01*
X002995Y003977D01*
X002926Y003970D01*
X002858Y003958D01*
X002791Y003943D01*
X002724Y003923D01*
X002659Y003900D01*
X002596Y003874D01*
X002533Y003844D01*
X002473Y003811D01*
X002415Y003774D01*
X002358Y003734D01*
X002304Y003691D01*
X002253Y003645D01*
X002204Y003596D01*
X002158Y003544D01*
X002115Y003490D01*
X002075Y003434D01*
X002039Y003375D01*
X002005Y003315D01*
X001975Y003253D01*
X001949Y003189D01*
X001926Y003124D01*
X001907Y003057D01*
X001892Y002990D01*
X001880Y002922D01*
X001872Y002853D01*
X001868Y002785D01*
X001868Y002715D01*
X001872Y002647D01*
X001880Y002578D01*
X001892Y002510D01*
X001907Y002443D01*
X001926Y002376D01*
X001949Y002311D01*
X001975Y002247D01*
X002005Y002185D01*
X002039Y002125D01*
X002075Y002066D01*
X002115Y002010D01*
X002158Y001956D01*
X002204Y001904D01*
X002253Y001855D01*
X002304Y001809D01*
X002358Y001766D01*
X002415Y001726D01*
X002473Y001689D01*
X002533Y001656D01*
X002596Y001626D01*
X002659Y001600D01*
X002724Y001577D01*
X002791Y001557D01*
X002858Y001542D01*
X002926Y001530D01*
X002995Y001523D01*
X003064Y001519D01*
X003133Y001518D01*
X003202Y001522D01*
X003270Y001530D01*
X003338Y001541D01*
X003406Y001557D01*
X003472Y001576D01*
X003537Y001598D01*
X003601Y001624D01*
X003663Y001654D01*
X003724Y001688D01*
X003782Y001724D01*
X003839Y001764D01*
X003893Y001807D01*
X003944Y001853D01*
X003993Y001902D01*
X004039Y001953D01*
X004083Y002007D01*
X004075Y002012D01*
X004032Y001958D01*
X003986Y001907D01*
X003936Y001858D01*
X003885Y001812D01*
X003830Y001769D01*
X003773Y001729D01*
X003715Y001693D01*
X003654Y001659D01*
X003591Y001630D01*
X003527Y001604D01*
X003461Y001582D01*
X003394Y001563D01*
X003327Y001548D01*
X003258Y001537D01*
X003189Y001530D01*
X003120Y001527D01*
X003051Y001528D01*
X002981Y001533D01*
X002913Y001541D01*
X002845Y001554D01*
X002777Y001570D01*
X002711Y001591D01*
X002646Y001614D01*
X002582Y001642D01*
X002520Y001673D01*
X002460Y001708D01*
X002402Y001746D01*
X002346Y001787D01*
X002293Y001831D01*
X002242Y001878D01*
X002194Y001928D01*
X002149Y001981D01*
X002107Y002036D01*
X002068Y002093D01*
X002033Y002153D01*
X002001Y002214D01*
X001972Y002277D01*
X001947Y002342D01*
X001926Y002408D01*
X001908Y002475D01*
X001895Y002543D01*
X001885Y002612D01*
X001879Y002681D01*
X001877Y002750D01*
X001879Y002819D01*
X001885Y002888D01*
X001895Y002957D01*
X001908Y003025D01*
X001926Y003092D01*
X001947Y003158D01*
X001972Y003223D01*
X002001Y003286D01*
X002033Y003347D01*
X002068Y003407D01*
X002107Y003464D01*
X002149Y003519D01*
X002194Y003572D01*
X002242Y003622D01*
X002293Y003669D01*
X002346Y003713D01*
X002402Y003754D01*
X002460Y003792D01*
X002520Y003827D01*
X002582Y003858D01*
X002646Y003886D01*
X002711Y003909D01*
X002777Y003930D01*
X002845Y003946D01*
X002913Y003959D01*
X002981Y003967D01*
X003051Y003972D01*
X003120Y003973D01*
X003189Y003970D01*
X003258Y003963D01*
X003327Y003952D01*
X003394Y003937D01*
X003461Y003918D01*
X003527Y003896D01*
X003591Y003870D01*
X003654Y003841D01*
X003715Y003807D01*
X003773Y003771D01*
X003830Y003731D01*
X003885Y003688D01*
X003936Y003642D01*
X003986Y003593D01*
X004032Y003542D01*
X004075Y003488D01*
X004068Y003482D01*
X004025Y003536D01*
X003979Y003587D01*
X003930Y003636D01*
X003879Y003681D01*
X003825Y003724D01*
X003768Y003763D01*
X003710Y003800D01*
X003650Y003833D01*
X003587Y003862D01*
X003524Y003888D01*
X003458Y003910D01*
X003392Y003928D01*
X003325Y003943D01*
X003257Y003954D01*
X003188Y003961D01*
X003120Y003964D01*
X003051Y003963D01*
X002982Y003958D01*
X002914Y003950D01*
X002846Y003937D01*
X002780Y003921D01*
X002714Y003901D01*
X002649Y003877D01*
X002586Y003850D01*
X002525Y003819D01*
X002465Y003785D01*
X002407Y003747D01*
X002352Y003706D01*
X002299Y003662D01*
X002249Y003615D01*
X002201Y003566D01*
X002156Y003514D01*
X002114Y003459D01*
X002076Y003402D01*
X002041Y003343D01*
X002009Y003282D01*
X001980Y003219D01*
X001956Y003155D01*
X001934Y003089D01*
X001917Y003023D01*
X001904Y002955D01*
X001894Y002887D01*
X001888Y002819D01*
X001886Y002750D01*
X001888Y002681D01*
X001894Y002613D01*
X001904Y002545D01*
X001917Y002477D01*
X001934Y002411D01*
X001956Y002345D01*
X001980Y002281D01*
X002009Y002218D01*
X002041Y002157D01*
X002076Y002098D01*
X002114Y002041D01*
X002156Y001986D01*
X002201Y001934D01*
X002249Y001885D01*
X002299Y001838D01*
X002352Y001794D01*
X002407Y001753D01*
X002465Y001715D01*
X002525Y001681D01*
X002586Y001650D01*
X002649Y001623D01*
X002714Y001599D01*
X002780Y001579D01*
X002846Y001563D01*
X002914Y001550D01*
X002982Y001542D01*
X003051Y001537D01*
X003120Y001536D01*
X003188Y001539D01*
X003257Y001546D01*
X003325Y001557D01*
X003392Y001572D01*
X003458Y001590D01*
X003524Y001612D01*
X003587Y001638D01*
X003650Y001667D01*
X003710Y001700D01*
X003768Y001737D01*
X003825Y001776D01*
X003879Y001819D01*
X003930Y001864D01*
X003979Y001913D01*
X004025Y001964D01*
X004068Y002018D01*
D13*
X002100Y002750D02*
X002102Y002813D01*
X002108Y002875D01*
X002118Y002937D01*
X002131Y002999D01*
X002149Y003059D01*
X002170Y003118D01*
X002195Y003176D01*
X002224Y003232D01*
X002256Y003286D01*
X002291Y003338D01*
X002329Y003387D01*
X002371Y003435D01*
X002415Y003479D01*
X002463Y003521D01*
X002512Y003559D01*
X002564Y003594D01*
X002618Y003626D01*
X002674Y003655D01*
X002732Y003680D01*
X002791Y003701D01*
X002851Y003719D01*
X002913Y003732D01*
X002975Y003742D01*
X003037Y003748D01*
X003100Y003750D01*
X003163Y003748D01*
X003225Y003742D01*
X003287Y003732D01*
X003349Y003719D01*
X003409Y003701D01*
X003468Y003680D01*
X003526Y003655D01*
X003582Y003626D01*
X003636Y003594D01*
X003688Y003559D01*
X003737Y003521D01*
X003785Y003479D01*
X003829Y003435D01*
X003871Y003387D01*
X003909Y003338D01*
X003944Y003286D01*
X003976Y003232D01*
X004005Y003176D01*
X004030Y003118D01*
X004051Y003059D01*
X004069Y002999D01*
X004082Y002937D01*
X004092Y002875D01*
X004098Y002813D01*
X004100Y002750D01*
X004098Y002687D01*
X004092Y002625D01*
X004082Y002563D01*
X004069Y002501D01*
X004051Y002441D01*
X004030Y002382D01*
X004005Y002324D01*
X003976Y002268D01*
X003944Y002214D01*
X003909Y002162D01*
X003871Y002113D01*
X003829Y002065D01*
X003785Y002021D01*
X003737Y001979D01*
X003688Y001941D01*
X003636Y001906D01*
X003582Y001874D01*
X003526Y001845D01*
X003468Y001820D01*
X003409Y001799D01*
X003349Y001781D01*
X003287Y001768D01*
X003225Y001758D01*
X003163Y001752D01*
X003100Y001750D01*
X003037Y001752D01*
X002975Y001758D01*
X002913Y001768D01*
X002851Y001781D01*
X002791Y001799D01*
X002732Y001820D01*
X002674Y001845D01*
X002618Y001874D01*
X002564Y001906D01*
X002512Y001941D01*
X002463Y001979D01*
X002415Y002021D01*
X002371Y002065D01*
X002329Y002113D01*
X002291Y002162D01*
X002256Y002214D01*
X002224Y002268D01*
X002195Y002324D01*
X002170Y002382D01*
X002149Y002441D01*
X002131Y002501D01*
X002118Y002563D01*
X002108Y002625D01*
X002102Y002687D01*
X002100Y002750D01*
M02*
