%
M48
M72
T01C0.0236
T02C0.0320
T03C0.0400
T04C0.0461
T05C0.0550
T06C0.0591
T07C0.1300
%
T01
X9100Y7700
T02
X5600Y2750
X4600Y2750
T03
X20600Y5250
X20600Y6250
X20600Y7250
T04
X6584Y5250
X4616Y5250
X4616Y10250
X6584Y10250
T05
X10850Y9750
X10850Y6000
X17100Y6000
X17100Y7250
X17100Y9750
T06
X17600Y12750
X19159Y12750
X14159Y12750
X12600Y12750
X9659Y12750
X8100Y12750
X8041Y3250
X9600Y3250
X12541Y3250
X14100Y3250
X17541Y3250
X19100Y3250
T07
X1600Y2250
X1600Y13750
X23100Y13750
X23100Y2250
M30
