G75*
G70*
%OFA0B0*%
%FSLAX24Y24*%
%IPPOS*%
%LPD*%
%AMOC8*
5,1,8,0,0,1.08239X$1,22.5*
%
%ADD10C,0.0050*%
%ADD11C,0.0040*%
%ADD12C,0.0080*%
%ADD13C,0.0100*%
D10*
X008250Y005400D02*
X015700Y005400D01*
X015700Y010350D01*
X008250Y010350D01*
X008250Y005400D01*
D11*
X014466Y010694D02*
X014466Y011307D01*
X014543Y011231D02*
X014389Y011231D01*
X014313Y011154D01*
X014389Y011000D02*
X014543Y011000D01*
X014620Y011077D01*
X014620Y011154D01*
X014543Y011231D01*
X014773Y011231D02*
X014773Y010847D01*
X014850Y010770D01*
X015003Y010770D01*
X015080Y010847D01*
X015080Y011231D01*
X014620Y010847D02*
X014543Y010770D01*
X014389Y010770D01*
X014313Y010847D01*
X014313Y010924D01*
X014389Y011000D01*
X014159Y011077D02*
X014006Y011231D01*
X014006Y010770D01*
X014159Y010770D02*
X013852Y010770D01*
D12*
X012919Y011963D02*
X012919Y015360D01*
X014840Y015360D02*
X014840Y011963D01*
X017919Y011963D01*
X017919Y015360D01*
X016551Y011461D02*
X016411Y011461D01*
X016481Y011461D02*
X016481Y011110D01*
X016551Y011040D01*
X016621Y011040D01*
X016691Y011110D01*
X016231Y011040D02*
X015951Y011040D01*
X016091Y011040D02*
X016091Y011461D01*
X016231Y011320D01*
X015770Y011250D02*
X015490Y011250D01*
X015560Y011040D02*
X015560Y011461D01*
X015770Y011250D01*
X012919Y011963D02*
X009840Y011963D01*
X009840Y015360D01*
X008419Y015360D02*
X008419Y011963D01*
X005340Y011963D01*
X005340Y015360D01*
X005990Y011461D02*
X006130Y011391D01*
X006270Y011250D01*
X006060Y011250D01*
X005990Y011180D01*
X005990Y011110D01*
X006060Y011040D01*
X006200Y011040D01*
X006270Y011110D01*
X006270Y011250D01*
X006451Y011040D02*
X006731Y011040D01*
X006591Y011040D02*
X006591Y011461D01*
X006731Y011320D01*
X006911Y011461D02*
X007051Y011461D01*
X006981Y011461D02*
X006981Y011110D01*
X007051Y011040D01*
X007121Y011040D01*
X007191Y011110D01*
X010490Y011110D02*
X010560Y011040D01*
X010700Y011040D01*
X010770Y011110D01*
X010951Y011040D02*
X011231Y011040D01*
X011091Y011040D02*
X011091Y011461D01*
X011231Y011320D01*
X011411Y011461D02*
X011551Y011461D01*
X011481Y011461D02*
X011481Y011110D01*
X011551Y011040D01*
X011621Y011040D01*
X011691Y011110D01*
X010770Y011391D02*
X010700Y011461D01*
X010560Y011461D01*
X010490Y011391D01*
X010490Y011320D01*
X010560Y011250D01*
X010490Y011180D01*
X010490Y011110D01*
X010560Y011250D02*
X010630Y011250D01*
X011639Y004961D02*
X011780Y004961D01*
X011850Y004891D01*
X011850Y004820D01*
X011780Y004750D01*
X011569Y004750D01*
X011569Y004610D02*
X011569Y004891D01*
X011639Y004961D01*
X012030Y004961D02*
X012170Y004961D01*
X012100Y004961D02*
X012100Y004610D01*
X012170Y004540D01*
X012240Y004540D01*
X012310Y004610D01*
X011850Y004610D02*
X011780Y004540D01*
X011639Y004540D01*
X011569Y004610D01*
X012860Y004038D02*
X012860Y000640D01*
X014781Y000640D02*
X014781Y004038D01*
X017860Y004038D01*
X017860Y000640D01*
X012860Y004038D02*
X009781Y004038D01*
X009781Y000640D01*
X008360Y000640D02*
X008360Y004038D01*
X005281Y004038D01*
X005281Y000640D01*
X006679Y004540D02*
X006819Y004540D01*
X006889Y004610D01*
X006889Y004750D02*
X006749Y004820D01*
X006679Y004820D01*
X006609Y004750D01*
X006609Y004610D01*
X006679Y004540D01*
X006889Y004750D02*
X006889Y004961D01*
X006609Y004961D01*
X007209Y004961D02*
X007209Y004540D01*
X007069Y004540D02*
X007350Y004540D01*
X007600Y004610D02*
X007600Y004961D01*
X007670Y004961D02*
X007530Y004961D01*
X007350Y004820D02*
X007209Y004961D01*
X007600Y004610D02*
X007670Y004540D01*
X007740Y004540D01*
X007810Y004610D01*
X016109Y004540D02*
X016389Y004540D01*
X016249Y004540D02*
X016249Y004961D01*
X016389Y004820D01*
X016569Y004540D02*
X016850Y004540D01*
X016709Y004540D02*
X016709Y004961D01*
X016850Y004820D01*
X017030Y004961D02*
X017170Y004961D01*
X017100Y004961D02*
X017100Y004610D01*
X017170Y004540D01*
X017240Y004540D01*
X017310Y004610D01*
D13*
X004883Y000723D02*
X004096Y000723D01*
X008596Y000723D02*
X009383Y000723D01*
X009569Y000683D02*
X008781Y000683D01*
X009175Y000290D02*
X009175Y001077D01*
X013281Y000683D02*
X014069Y000683D01*
X014383Y000723D02*
X013596Y000723D01*
X013675Y001077D02*
X013675Y000290D01*
X018281Y000683D02*
X019069Y000683D01*
X018675Y000290D02*
X018675Y001077D01*
X014025Y014923D02*
X014025Y015711D01*
X014104Y015278D02*
X013317Y015278D01*
X013631Y015317D02*
X014419Y015317D01*
X018317Y015278D02*
X019104Y015278D01*
X009604Y015278D02*
X008817Y015278D01*
X008631Y015317D02*
X009419Y015317D01*
X009025Y014923D02*
X009025Y015711D01*
X004919Y015317D02*
X004131Y015317D01*
X004525Y014923D02*
X004525Y015711D01*
M02*
