G75*
G70*
%OFA0B0*%
%FSLAX24Y24*%
%IPPOS*%
%LPD*%
%AMOC8*
5,1,8,0,0,1.08239X$1,22.5*
%
%ADD10C,0.1000*%
%ADD11R,0.1000X0.1000*%
%ADD12C,0.0740*%
%ADD13R,0.0886X0.0886*%
%ADD14C,0.0886*%
%ADD15C,0.0691*%
%ADD16C,0.0396*%
%ADD17C,0.0560*%
D10*
X008850Y006000D03*
X008850Y009750D03*
X015100Y007250D03*
X015100Y006000D03*
D11*
X015100Y009750D03*
D12*
X018600Y007250D03*
X018600Y006250D03*
X018600Y005250D03*
X003600Y002750D03*
X002600Y002750D03*
D13*
X007600Y003250D03*
X012100Y003250D03*
X017100Y003250D03*
X015600Y012750D03*
X010600Y012750D03*
X006100Y012750D03*
D14*
X007659Y012750D03*
X012159Y012750D03*
X017159Y012750D03*
X015541Y003250D03*
X010541Y003250D03*
X006041Y003250D03*
D15*
X004584Y005250D03*
X002616Y005250D03*
X002616Y010250D03*
X004584Y010250D03*
D16*
X007100Y007700D03*
D17*
X001100Y001750D02*
X019600Y001750D01*
X019600Y014250D01*
X001100Y014250D01*
X001100Y001750D01*
X001100Y002303D02*
X001908Y002303D01*
X001913Y002291D02*
X002141Y002064D01*
X002439Y001940D01*
X002761Y001940D01*
X003059Y002064D01*
X003147Y002152D01*
X003182Y002125D01*
X003268Y002076D01*
X003358Y002039D01*
X003453Y002013D01*
X003551Y002000D01*
X003600Y002000D01*
X003600Y002750D01*
X003600Y002000D01*
X003649Y002000D01*
X003747Y002013D01*
X003842Y002039D01*
X003932Y002076D01*
X004018Y002125D01*
X004096Y002185D01*
X004165Y002255D01*
X004225Y002333D01*
X004274Y002418D01*
X004312Y002509D01*
X004337Y002604D01*
X004350Y002701D01*
X004350Y002750D01*
X003600Y002750D01*
X003600Y002750D01*
X003600Y002750D01*
X004100Y003250D01*
X006041Y003250D01*
X006100Y003250D01*
X007100Y004250D01*
X009541Y004250D01*
X010541Y003250D01*
X011541Y004250D01*
X014600Y004250D01*
X015541Y003309D01*
X015541Y003250D01*
X016217Y003420D02*
X012983Y003420D01*
X012983Y003781D02*
X012916Y003942D01*
X012792Y004066D01*
X012630Y004133D01*
X011570Y004133D01*
X011408Y004066D01*
X011284Y003942D01*
X011217Y003781D01*
X011217Y002720D01*
X011284Y002558D01*
X011408Y002434D01*
X011570Y002367D01*
X012630Y002367D01*
X012792Y002434D01*
X012916Y002558D01*
X012983Y002720D01*
X012983Y003781D01*
X012880Y003979D02*
X016320Y003979D01*
X016284Y003942D02*
X016217Y003781D01*
X016217Y002720D01*
X016284Y002558D01*
X016408Y002434D01*
X016570Y002367D01*
X017630Y002367D01*
X017792Y002434D01*
X017916Y002558D01*
X017983Y002720D01*
X017983Y003781D01*
X017916Y003942D01*
X017792Y004066D01*
X017630Y004133D01*
X016570Y004133D01*
X016408Y004066D01*
X016284Y003942D01*
X016217Y002862D02*
X012983Y002862D01*
X011320Y003979D02*
X008380Y003979D01*
X008416Y003942D02*
X008292Y004066D01*
X008130Y004133D01*
X007070Y004133D01*
X006908Y004066D01*
X006784Y003942D01*
X006717Y003781D01*
X006717Y002720D01*
X006784Y002558D01*
X006908Y002434D01*
X007070Y002367D01*
X008130Y002367D01*
X008292Y002434D01*
X008416Y002558D01*
X008483Y002720D01*
X008483Y003781D01*
X008416Y003942D01*
X008483Y003420D02*
X011217Y003420D01*
X011217Y002862D02*
X008483Y002862D01*
X006820Y003979D02*
X001100Y003979D01*
X001100Y003420D02*
X002124Y003420D01*
X002141Y003437D02*
X001913Y003209D01*
X001790Y002911D01*
X001790Y002589D01*
X001913Y002291D01*
X001790Y002862D02*
X001100Y002862D01*
X002141Y003437D02*
X002439Y003560D01*
X002761Y003560D01*
X003059Y003437D01*
X003147Y003348D01*
X003182Y003375D01*
X003268Y003424D01*
X003358Y003462D01*
X003453Y003487D01*
X003551Y003500D01*
X003600Y003500D01*
X003649Y003500D01*
X003747Y003487D01*
X003842Y003462D01*
X003932Y003424D01*
X004018Y003375D01*
X004096Y003315D01*
X004165Y003246D01*
X004225Y003168D01*
X004274Y003083D01*
X004312Y002992D01*
X004337Y002897D01*
X004350Y002799D01*
X004350Y002750D01*
X003600Y002750D01*
X003600Y003500D01*
X003600Y002750D01*
X003600Y002750D01*
X003600Y002862D02*
X003600Y002862D01*
X003600Y002303D02*
X003600Y002303D01*
X004202Y002303D02*
X019600Y002303D01*
X019600Y002862D02*
X017983Y002862D01*
X017983Y003420D02*
X019600Y003420D01*
X019600Y003979D02*
X017880Y003979D01*
X018141Y004564D02*
X018439Y004440D01*
X018761Y004440D01*
X019059Y004564D01*
X019287Y004791D01*
X019410Y005089D01*
X019410Y005411D01*
X019287Y005709D01*
X019198Y005798D01*
X019225Y005833D01*
X019274Y005918D01*
X019312Y006009D01*
X019337Y006104D01*
X019350Y006201D01*
X019350Y006250D01*
X018600Y006250D01*
X017850Y006250D01*
X017850Y006201D01*
X017863Y006104D01*
X017888Y006009D01*
X017926Y005918D01*
X017975Y005833D01*
X018002Y005798D01*
X017913Y005709D01*
X017790Y005411D01*
X017790Y005089D01*
X017913Y004791D01*
X018141Y004564D01*
X018205Y004537D02*
X004915Y004537D01*
X005029Y004584D02*
X004740Y004465D01*
X004428Y004465D01*
X004139Y004584D01*
X003918Y004805D01*
X003799Y005094D01*
X003799Y005406D01*
X003918Y005695D01*
X004139Y005916D01*
X004428Y006036D01*
X004740Y006036D01*
X005029Y005916D01*
X005250Y005695D01*
X005370Y005406D01*
X005370Y005094D01*
X005250Y004805D01*
X005029Y004584D01*
X005370Y005096D02*
X008577Y005096D01*
X008663Y005060D02*
X008318Y005203D01*
X008053Y005468D01*
X007910Y005813D01*
X007910Y006187D01*
X008053Y006533D01*
X008318Y006797D01*
X008663Y006940D01*
X009037Y006940D01*
X009382Y006797D01*
X009647Y006533D01*
X009790Y006187D01*
X009790Y005813D01*
X009647Y005468D01*
X009382Y005203D01*
X009037Y005060D01*
X008663Y005060D01*
X009123Y005096D02*
X014827Y005096D01*
X014913Y005060D02*
X015287Y005060D01*
X015632Y005203D01*
X015897Y005468D01*
X016040Y005813D01*
X016040Y006187D01*
X015897Y006533D01*
X015804Y006625D01*
X015897Y006718D01*
X016040Y007063D01*
X016040Y007437D01*
X015897Y007783D01*
X015632Y008047D01*
X015287Y008190D01*
X014913Y008190D01*
X014568Y008047D01*
X014303Y007783D01*
X014160Y007437D01*
X014160Y007063D01*
X014303Y006718D01*
X014396Y006625D01*
X014303Y006533D01*
X014160Y006187D01*
X014160Y005813D01*
X014303Y005468D01*
X014568Y005203D01*
X014913Y005060D01*
X015373Y005096D02*
X017790Y005096D01*
X017891Y005654D02*
X015974Y005654D01*
X016029Y006213D02*
X017850Y006213D01*
X017850Y006250D02*
X018600Y006250D01*
X018600Y006250D01*
X018600Y006250D01*
X019350Y006250D01*
X019350Y006299D01*
X019337Y006397D01*
X019312Y006492D01*
X019274Y006583D01*
X019225Y006668D01*
X019198Y006703D01*
X019287Y006791D01*
X019410Y007089D01*
X019410Y007411D01*
X019287Y007709D01*
X019059Y007937D01*
X018761Y008060D01*
X018439Y008060D01*
X018141Y007937D01*
X017913Y007709D01*
X017790Y007411D01*
X017790Y007089D01*
X017913Y006791D01*
X018002Y006703D01*
X017975Y006668D01*
X017926Y006583D01*
X017888Y006492D01*
X017863Y006397D01*
X017850Y006299D01*
X017850Y006250D01*
X017933Y006771D02*
X015919Y006771D01*
X016040Y007330D02*
X017790Y007330D01*
X018092Y007888D02*
X015791Y007888D01*
X015637Y008870D02*
X015100Y008870D01*
X014563Y008870D01*
X014489Y008885D01*
X014420Y008913D01*
X014358Y008955D01*
X014305Y009008D01*
X014263Y009070D01*
X014235Y009139D01*
X014220Y009213D01*
X014220Y009750D01*
X015100Y009750D01*
X015100Y008870D01*
X015100Y009750D01*
X015100Y009750D01*
X015100Y009750D01*
X015100Y009750D01*
X015980Y009750D01*
X015980Y009213D01*
X015965Y009139D01*
X015937Y009070D01*
X015895Y009008D01*
X015842Y008955D01*
X015780Y008913D01*
X015711Y008885D01*
X015637Y008870D01*
X015892Y009005D02*
X019600Y009005D01*
X019600Y009564D02*
X015980Y009564D01*
X015980Y009750D02*
X015980Y010288D01*
X015965Y010361D01*
X015937Y010430D01*
X015895Y010492D01*
X015842Y010545D01*
X015780Y010587D01*
X015711Y010616D01*
X015637Y010630D01*
X015100Y010630D01*
X014563Y010630D01*
X014489Y010616D01*
X014420Y010587D01*
X014358Y010545D01*
X014305Y010492D01*
X014263Y010430D01*
X014235Y010361D01*
X014220Y010288D01*
X014220Y009750D01*
X015100Y009750D01*
X015100Y010691D01*
X014218Y010691D01*
X012159Y012750D01*
X012100Y012750D01*
X011100Y011750D01*
X008659Y011750D01*
X007659Y012750D01*
X007600Y012750D01*
X005600Y010750D01*
X005600Y009750D01*
X007100Y008250D01*
X007100Y007700D01*
X006041Y006641D01*
X006041Y003250D01*
X006717Y003420D02*
X003940Y003420D01*
X003600Y003420D02*
X003600Y003420D01*
X003260Y003420D02*
X003076Y003420D01*
X002772Y004465D02*
X002460Y004465D01*
X002171Y004584D01*
X001950Y004805D01*
X001830Y005094D01*
X001830Y005406D01*
X001950Y005695D01*
X002171Y005916D01*
X002460Y006036D01*
X002772Y006036D01*
X003061Y005916D01*
X003282Y005695D01*
X003401Y005406D01*
X003401Y005094D01*
X003282Y004805D01*
X003061Y004584D01*
X002772Y004465D01*
X002947Y004537D02*
X004253Y004537D01*
X003799Y005096D02*
X003401Y005096D01*
X003299Y005654D02*
X003901Y005654D01*
X005267Y005654D02*
X007976Y005654D01*
X007921Y006213D02*
X001100Y006213D01*
X001100Y005654D02*
X001933Y005654D01*
X001830Y005096D02*
X001100Y005096D01*
X001100Y004537D02*
X002285Y004537D01*
X004342Y002862D02*
X006717Y002862D01*
X009724Y005654D02*
X014226Y005654D01*
X014171Y006213D02*
X009779Y006213D01*
X009408Y006771D02*
X014281Y006771D01*
X014160Y007330D02*
X001100Y007330D01*
X001100Y006771D02*
X008292Y006771D01*
X008663Y008810D02*
X008318Y008953D01*
X008053Y009218D01*
X007910Y009563D01*
X007910Y009937D01*
X008053Y010283D01*
X008318Y010547D01*
X008663Y010690D01*
X009037Y010690D01*
X009382Y010547D01*
X009647Y010283D01*
X009790Y009937D01*
X009790Y009563D01*
X009647Y009218D01*
X009382Y008953D01*
X009037Y008810D01*
X008663Y008810D01*
X008266Y009005D02*
X001100Y009005D01*
X001100Y009564D02*
X002221Y009564D01*
X002171Y009584D02*
X002460Y009465D01*
X002772Y009465D01*
X003061Y009584D01*
X003282Y009805D01*
X003401Y010094D01*
X003401Y010406D01*
X003282Y010695D01*
X003061Y010916D01*
X002772Y011036D01*
X002460Y011036D01*
X002171Y010916D01*
X001950Y010695D01*
X001830Y010406D01*
X001830Y010094D01*
X001950Y009805D01*
X002171Y009584D01*
X001830Y010122D02*
X001100Y010122D01*
X001100Y010681D02*
X001944Y010681D01*
X001100Y011239D02*
X019600Y011239D01*
X019600Y011798D02*
X001100Y011798D01*
X001100Y012356D02*
X005217Y012356D01*
X005217Y012220D02*
X005284Y012058D01*
X005408Y011934D01*
X005570Y011867D01*
X006630Y011867D01*
X006792Y011934D01*
X006916Y012058D01*
X006983Y012220D01*
X006983Y013281D01*
X006916Y013442D01*
X006792Y013566D01*
X006630Y013633D01*
X005570Y013633D01*
X005408Y013566D01*
X005284Y013442D01*
X005217Y013281D01*
X005217Y012220D01*
X005217Y012915D02*
X001100Y012915D01*
X001100Y013473D02*
X005315Y013473D01*
X006885Y013473D02*
X009815Y013473D01*
X009784Y013442D02*
X009717Y013281D01*
X009717Y012220D01*
X009784Y012058D01*
X009908Y011934D01*
X010070Y011867D01*
X011130Y011867D01*
X011292Y011934D01*
X011416Y012058D01*
X011483Y012220D01*
X011483Y013281D01*
X011416Y013442D01*
X011292Y013566D01*
X011130Y013633D01*
X010070Y013633D01*
X009908Y013566D01*
X009784Y013442D01*
X009717Y012915D02*
X006983Y012915D01*
X006983Y012356D02*
X009717Y012356D01*
X011483Y012356D02*
X014717Y012356D01*
X014717Y012220D02*
X014784Y012058D01*
X014908Y011934D01*
X015070Y011867D01*
X016130Y011867D01*
X016292Y011934D01*
X016416Y012058D01*
X016483Y012220D01*
X016483Y013281D01*
X016416Y013442D01*
X016292Y013566D01*
X016130Y013633D01*
X015070Y013633D01*
X014908Y013566D01*
X014784Y013442D01*
X014717Y013281D01*
X014717Y012220D01*
X014717Y012915D02*
X011483Y012915D01*
X011385Y013473D02*
X014815Y013473D01*
X016385Y013473D02*
X019600Y013473D01*
X019600Y014032D02*
X001100Y014032D01*
X004139Y010916D02*
X003918Y010695D01*
X003799Y010406D01*
X003799Y010094D01*
X003918Y009805D01*
X004139Y009584D01*
X004428Y009465D01*
X004740Y009465D01*
X005029Y009584D01*
X005250Y009805D01*
X005370Y010094D01*
X005370Y010406D01*
X005250Y010695D01*
X005029Y010916D01*
X004740Y011036D01*
X004428Y011036D01*
X004139Y010916D01*
X003912Y010681D02*
X003288Y010681D01*
X003401Y010122D02*
X003799Y010122D01*
X004189Y009564D02*
X003011Y009564D01*
X001100Y008447D02*
X019600Y008447D01*
X019600Y007888D02*
X019108Y007888D01*
X019410Y007330D02*
X019600Y007330D01*
X019600Y006771D02*
X019267Y006771D01*
X019350Y006213D02*
X019600Y006213D01*
X019600Y005654D02*
X019309Y005654D01*
X019410Y005096D02*
X019600Y005096D01*
X019600Y004537D02*
X018995Y004537D01*
X014409Y007888D02*
X001100Y007888D01*
X004979Y009564D02*
X007910Y009564D01*
X007987Y010122D02*
X005370Y010122D01*
X005256Y010681D02*
X008640Y010681D01*
X009060Y010681D02*
X019600Y010681D01*
X019600Y010122D02*
X015980Y010122D01*
X015980Y009750D02*
X015100Y009750D01*
X015100Y010630D01*
X015100Y009750D01*
X015100Y009750D01*
X015100Y009564D02*
X015100Y009564D01*
X015100Y009005D02*
X015100Y009005D01*
X014308Y009005D02*
X009434Y009005D01*
X009790Y009564D02*
X014220Y009564D01*
X014220Y010122D02*
X009713Y010122D01*
X015100Y010122D02*
X015100Y010122D01*
X015100Y010691D02*
X017159Y012750D01*
X016483Y012915D02*
X019600Y012915D01*
X019600Y012356D02*
X016483Y012356D01*
M02*
