%
M48
M72
T01C0.0236
T02C0.0320
T03C0.0400
T04C0.0461
T05C0.0550
T06C0.0591
%
T01
X7100Y7700
T02
X2600Y2750
X3600Y2750
T03
X18600Y5250
X18600Y6250
X18600Y7250
T04
X4584Y5250
X2616Y5250
X2616Y10250
X4584Y10250
T05
X8850Y9750
X8850Y6000
X15100Y6000
X15100Y7250
X15100Y9750
T06
X15600Y12750
X17159Y12750
X12159Y12750
X10600Y12750
X7659Y12750
X6100Y12750
X6041Y3250
X7600Y3250
X10541Y3250
X12100Y3250
X15541Y3250
X17100Y3250
M30
